KleiIta.ufo
<glyph name="quotedbl" format="1">
  <advance width="282"/>
  <unicode hex="0022"/>
  <outline>
    <contour>
      <point x="220.22" y="671.15" type="curve" smooth="yes"/>
      <point x="224.42" y="671.15" type="line" smooth="yes"/>
      <point x="238.113" y="671.15"/>
      <point x="245.528" y="662.779"/>
      <point x="245.528" y="649.449" type="curve" smooth="yes"/>
      <point x="245.528" y="644.737"/>
      <point x="243.035" y="636.888"/>
      <point x="241.22" y="631.25" type="curve" smooth="yes"/>
      <point x="201.32" y="507.35" type="line" smooth="yes"/>
      <point x="200.271" y="501.05"/>
      <point x="195.021" y="496.85"/>
      <point x="188.72" y="496.85" type="curve" smooth="yes"/>
      <point x="175.07" y="496.85" type="line" smooth="yes"/>
      <point x="169.793" y="496.85"/>
      <point x="167.462" y="499.798"/>
      <point x="167.462" y="504.458" type="curve" smooth="yes"/>
      <point x="167.462" y="505.36"/>
      <point x="167.55" y="506.327"/>
      <point x="167.72" y="507.35" type="curve" smooth="yes"/>
      <point x="185.521" y="636.25" type="line"/>
      <point x="188.521" y="656.104"/>
      <point x="206.688" y="671.15"/>
    </contour>
    <contour>
      <point x="107.22" y="671.15" type="curve" smooth="yes"/>
      <point x="111.42" y="671.15" type="line" smooth="yes"/>
      <point x="125.113" y="671.15"/>
      <point x="132.528" y="662.779"/>
      <point x="132.528" y="649.449" type="curve" smooth="yes"/>
      <point x="132.528" y="644.737"/>
      <point x="130.035" y="636.888"/>
      <point x="128.22" y="631.25" type="curve" smooth="yes"/>
      <point x="88.3203" y="507.35" type="line" smooth="yes"/>
      <point x="87.2705" y="501.05"/>
      <point x="82.0205" y="496.85"/>
      <point x="75.7197" y="496.85" type="curve" smooth="yes"/>
      <point x="62.0703" y="496.85" type="line" smooth="yes"/>
      <point x="56.793" y="496.85"/>
      <point x="54.4619" y="499.798"/>
      <point x="54.4619" y="504.458" type="curve" smooth="yes"/>
      <point x="54.4619" y="505.36"/>
      <point x="54.5498" y="506.327"/>
      <point x="54.7197" y="507.35" type="curve" smooth="yes"/>
      <point x="72.5205" y="636.25" type="line"/>
      <point x="75.5205" y="656.104"/>
      <point x="93.6885" y="671.15"/>
    </contour>
  </outline>
</glyph>
<glyph name="numbersign" format="1">
  <advance width="716"/>
  <unicode hex="0023"/>
  <outline>
    <contour>
      <point x="403.154" y="730" type="curve" smooth="yes"/>
      <point x="432.154" y="730" type="line" smooth="yes"/>
      <point x="436.508" y="730"/>
      <point x="440.346" y="729.241"/>
      <point x="440.346" y="725.083" type="curve" smooth="yes"/>
      <point x="440.346" y="723.657"/>
      <point x="439.971" y="721.791"/>
      <point x="439.154" y="720" type="curve" smooth="yes"/>
      <point x="356.154" y="538" type="line"/>
      <point x="487.154" y="538" type="line"/>
      <point x="570.154" y="720" type="line" smooth="yes"/>
      <point x="572.154" y="726"/>
      <point x="577.154" y="730"/>
      <point x="583.154" y="730" type="curve" smooth="yes"/>
      <point x="611.154" y="730" type="line" smooth="yes"/>
      <point x="615.633" y="730"/>
      <point x="619.309" y="729.198"/>
      <point x="619.309" y="724.72" type="curve" smooth="yes"/>
      <point x="619.309" y="723.867"/>
      <point x="619.023" y="721.904"/>
      <point x="618.154" y="720" type="curve" smooth="yes"/>
      <point x="535.154" y="538" type="line"/>
      <point x="668.154" y="538" type="line" smooth="yes"/>
      <point x="672.633" y="538"/>
      <point x="676.309" y="537.396"/>
      <point x="676.309" y="534.469" type="curve" smooth="yes"/>
      <point x="676.309" y="532.283"/>
      <point x="674.344" y="528.308"/>
      <point x="673.154" y="526" type="curve" smooth="yes"/>
      <point x="657.154" y="495" type="line" smooth="yes"/>
      <point x="654.154" y="489"/>
      <point x="648.154" y="483"/>
      <point x="642.154" y="483" type="curve" smooth="yes"/>
      <point x="511.154" y="483" type="line"/>
      <point x="418.154" y="279" type="line"/>
      <point x="562.154" y="279" type="line" smooth="yes"/>
      <point x="566.633" y="279"/>
      <point x="569.309" y="277.396"/>
      <point x="569.309" y="274.469" type="curve" smooth="yes"/>
      <point x="569.309" y="273.13"/>
      <point x="568.379" y="271.382"/>
      <point x="567.154" y="269" type="curve" smooth="yes"/>
      <point x="549.154" y="234" type="line" smooth="yes"/>
      <point x="546.154" y="228"/>
      <point x="540.154" y="224"/>
      <point x="534.154" y="224" type="curve" smooth="yes"/>
      <point x="393.154" y="224" type="line"/>
      <point x="300.154" y="20" type="line" smooth="yes"/>
      <point x="297.546" y="14.2775"/>
      <point x="295.154" y="10"/>
      <point x="289.154" y="10" type="curve" smooth="yes"/>
      <point x="259.154" y="10" type="line" smooth="yes"/>
      <point x="254.128" y="10"/>
      <point x="250.909" y="11.8066"/>
      <point x="250.909" y="15.2451" type="curve" smooth="yes"/>
      <point x="250.909" y="16.1055"/>
      <point x="251.381" y="18.3047"/>
      <point x="252.154" y="20" type="curve" smooth="yes"/>
      <point x="345.154" y="224" type="line"/>
      <point x="213.154" y="224" type="line"/>
      <point x="121.154" y="20" type="line" smooth="yes"/>
      <point x="118.568" y="14.2645"/>
      <point x="115.154" y="10"/>
      <point x="109.154" y="10" type="curve" smooth="yes"/>
      <point x="78.1543" y="10" type="line" smooth="yes"/>
      <point x="73.128" y="10"/>
      <point x="70" y="11.5615"/>
      <point x="70" y="16" type="curve" smooth="yes"/>
      <point x="70" y="16.8604"/>
      <point x="70.5868" y="18.7552"/>
      <point x="71.1543" y="20" type="curve" smooth="yes"/>
      <point x="164.154" y="224" type="line"/>
      <point x="45.1543" y="224" type="line" smooth="yes"/>
      <point x="40.6761" y="224"/>
      <point x="37" y="225.406"/>
      <point x="37" y="229.501" type="curve" smooth="yes"/>
      <point x="37" y="231.749"/>
      <point x="38.1446" y="234.04"/>
      <point x="39.1543" y="236" type="curve" smooth="yes"/>
      <point x="56.1543" y="269" type="line" smooth="yes"/>
      <point x="59.1543" y="275"/>
      <point x="65.1543" y="279"/>
      <point x="71.1543" y="279" type="curve" smooth="yes"/>
      <point x="189.154" y="279" type="line"/>
      <point x="281.154" y="483" type="line"/>
      <point x="152.154" y="483" type="line" smooth="yes"/>
      <point x="147.8" y="483"/>
      <point x="143.963" y="484.275"/>
      <point x="143.963" y="488.165" type="curve" smooth="yes"/>
      <point x="143.963" y="490.294"/>
      <point x="145.423" y="493.581"/>
      <point x="146.154" y="495" type="curve" smooth="yes"/>
      <point x="163.154" y="528" type="line" smooth="yes"/>
      <point x="166.154" y="534"/>
      <point x="172.154" y="538"/>
      <point x="178.154" y="538" type="curve" smooth="yes"/>
      <point x="306.154" y="538" type="line"/>
      <point x="389.154" y="720" type="line" smooth="yes"/>
      <point x="391.154" y="726"/>
      <point x="397.154" y="730"/>
    </contour>
    <contour>
      <point x="331.154" y="483" type="line"/>
      <point x="238.154" y="279" type="line"/>
      <point x="369.154" y="279" type="line"/>
      <point x="462.154" y="483" type="line"/>
    </contour>
  </outline>
</glyph>
<glyph name="dollar" format="1">
  <advance width="508"/>
  <unicode hex="0024"/>
  <outline>
    <contour>
      <point x="195" y="60" type="curve"/>
      <point x="284" y="62"/>
      <point x="338.646" y="111.439"/>
      <point x="338.646" y="175" type="curve" smooth="yes"/>
      <point x="338.646" y="233.464"/>
      <point x="313.646" y="253"/>
      <point x="268.646" y="286" type="curve"/>
      <point x="240.646" y="201"/>
      <point x="214" y="118"/>
    </contour>
    <contour>
      <point x="371.646" y="598" type="curve"/>
      <point x="428.398" y="590.529"/>
      <point x="460.665" y="576.355"/>
      <point x="460.665" y="534.276" type="curve" smooth="yes"/>
      <point x="460.665" y="509.254"/>
      <point x="437.286" y="506"/>
      <point x="429.646" y="506" type="curve" smooth="yes"/>
      <point x="421.409" y="506"/>
      <point x="412.196" y="512.608"/>
      <point x="412.196" y="520.577" type="curve" smooth="yes"/>
      <point x="412.196" y="526.389"/>
      <point x="416.904" y="535.454"/>
      <point x="416.904" y="542.518" type="curve" smooth="yes"/>
      <point x="416.904" y="556.917"/>
      <point x="410.158" y="577.302"/>
      <point x="367" y="581" type="curve"/>
      <point x="345" y="516"/>
      <point x="317.646" y="435"/>
      <point x="293.646" y="363" type="curve"/>
      <point x="357.646" y="314"/>
      <point x="401.646" y="276.806"/>
      <point x="401.646" y="205" type="curve" smooth="yes"/>
      <point x="401.646" y="83.9736"/>
      <point x="286.394" y="39"/>
      <point x="186.646" y="39" type="curve"/>
      <point x="174.646" y="2"/>
      <point x="163.646" y="-31"/>
      <point x="163.646" y="-31" type="curve" smooth="yes"/>
      <point x="156.646" y="-42"/>
      <point x="145.646" y="-47"/>
      <point x="135.646" y="-47" type="curve" smooth="yes"/>
      <point x="127.646" y="-47"/>
      <point x="121.646" y="-45"/>
      <point x="117.646" y="-40" type="curve"/>
      <point x="126.646" y="-16"/>
      <point x="135.646" y="20"/>
      <point x="143.646" y="43" type="curve"/>
      <point x="76.6455" y="55"/>
      <point x="40.6455" y="96.2901"/>
      <point x="40.6455" y="122" type="curve" smooth="yes"/>
      <point x="40.6455" y="141.416"/>
      <point x="50.6455" y="170"/>
      <point x="79.6455" y="170" type="curve" smooth="yes"/>
      <point x="91.8783" y="170"/>
      <point x="95.1293" y="163.96"/>
      <point x="95.1293" y="154.792" type="curve" smooth="yes"/>
      <point x="95.1293" y="144.392"/>
      <point x="90.9445" y="129.966"/>
      <point x="90.9445" y="115.769" type="curve" smooth="yes"/>
      <point x="90.9445" y="93.3792"/>
      <point x="101.353" y="71.5601"/>
      <point x="155" y="67" type="curve"/>
      <point x="184" y="150"/>
      <point x="212.646" y="233"/>
      <point x="237.646" y="309" type="curve"/>
      <point x="183.646" y="349"/>
      <point x="141.646" y="399.361"/>
      <point x="141.646" y="460" type="curve" smooth="yes"/>
      <point x="141.646" y="531.806"/>
      <point x="226.646" y="599"/>
      <point x="327.646" y="599" type="curve"/>
      <point x="333.646" y="618"/>
      <point x="342.646" y="643"/>
      <point x="348.646" y="662" type="curve" smooth="yes"/>
      <point x="351.646" y="669"/>
      <point x="363.646" y="675"/>
      <point x="372.646" y="675" type="curve" smooth="yes"/>
      <point x="382.947" y="675"/>
      <point x="389.74" y="667.984"/>
      <point x="389.74" y="659.701" type="curve" smooth="yes"/>
      <point x="389.74" y="659.139"/>
      <point x="388.808" y="654.552"/>
      <point x="388.646" y="654" type="curve" smooth="yes"/>
      <point x="383.646" y="637"/>
      <point x="377.646" y="617"/>
    </contour>
    <contour>
      <point x="324.646" y="584" type="curve"/>
      <point x="249.646" y="584"/>
      <point x="203.646" y="527.878"/>
      <point x="203.646" y="491" type="curve" smooth="yes"/>
      <point x="203.646" y="446.853"/>
      <point x="224.646" y="418"/>
      <point x="262.646" y="387" type="curve"/>
      <point x="282.646" y="450"/>
      <point x="304.646" y="519"/>
    </contour>
  </outline>
</glyph>
<glyph name="ampersand" format="1">
  <advance width="1023"/>
  <unicode hex="0026"/>
  <outline>
    <contour>
      <point x="187.952" y="302.628" type="curve" smooth="yes"/>
      <point x="187.952" y="276.912"/>
      <point x="198.403" y="218.894"/>
      <point x="208.497" y="218.894" type="curve" smooth="yes"/>
      <point x="220.279" y="218.894"/>
      <point x="457.812" y="431.023"/>
      <point x="457.812" y="615.608" type="curve" smooth="yes"/>
      <point x="457.812" y="667.248"/>
      <point x="473.853" y="703.734"/>
      <point x="494.92" y="703.734" type="curve" smooth="yes"/>
      <point x="513.059" y="703.734"/>
      <point x="517.233" y="676.248"/>
      <point x="517.233" y="653.694" type="curve" smooth="yes"/>
      <point x="517.233" y="421.124"/>
      <point x="224.945" y="216.438"/>
      <point x="224.945" y="183.357" type="curve" smooth="yes"/>
      <point x="224.945" y="158.104"/>
      <point x="295.902" y="61.5264"/>
      <point x="445.099" y="61.5264" type="curve" smooth="yes"/>
      <point x="589.018" y="61.5264"/>
      <point x="734.401" y="169.283"/>
      <point x="734.401" y="332.57" type="curve" smooth="yes"/>
      <point x="734.401" y="372.182"/>
      <point x="738.639" y="400.301"/>
      <point x="641.624" y="434.95" type="curve" smooth="yes"/>
      <point x="641.601" y="434.958"/>
      <point x="641.574" y="434.964"/>
      <point x="641.55" y="434.964" type="curve" smooth="yes"/>
      <point x="639.574" y="434.964"/>
      <point x="637.391" y="407.953"/>
      <point x="623.28" y="387.837" type="curve" smooth="yes"/>
      <point x="613.519" y="373.922"/>
      <point x="589.557" y="358.909"/>
      <point x="573.668" y="358.909" type="curve" smooth="yes"/>
      <point x="567.436" y="358.909"/>
      <point x="562.205" y="360.646"/>
      <point x="562.205" y="367.393" type="curve" smooth="yes"/>
      <point x="562.205" y="409.225"/>
      <point x="631.644" y="469.485"/>
      <point x="669.048" y="469.485" type="curve" smooth="yes"/>
      <point x="736.815" y="469.485"/>
      <point x="765.049" y="391.28"/>
      <point x="853.888" y="391.28" type="curve" smooth="yes"/>
      <point x="871.537" y="391.28"/>
      <point x="886.947" y="398.499"/>
      <point x="901.288" y="405.349" type="curve"/>
      <point x="907.011" y="395.16" type="line"/>
      <point x="894.059" y="382.79"/>
      <point x="870.447" y="330.402"/>
      <point x="844.834" y="330.402" type="curve" smooth="yes"/>
      <point x="813.062" y="330.402"/>
      <point x="781.414" y="355.746"/>
      <point x="770.403" y="355.746" type="curve" smooth="yes"/>
      <point x="768.751" y="355.746"/>
      <point x="766.923" y="355.347"/>
      <point x="766.919" y="353.918" type="curve" smooth="yes"/>
      <point x="766.43" y="193.873"/>
      <point x="701.671" y="-10.4961"/>
      <point x="449.812" y="-10.4961" type="curve" smooth="yes"/>
      <point x="248.948" y="-10.4961"/>
      <point x="140.594" y="139.503"/>
      <point x="140.594" y="265.622" type="curve" smooth="yes"/>
      <point x="140.594" y="388.458"/>
      <point x="220.394" y="511.69"/>
      <point x="325.183" y="511.69" type="curve" smooth="yes"/>
      <point x="350.793" y="511.69"/>
      <point x="380.9" y="491.204"/>
      <point x="380.9" y="467.079" type="curve" smooth="yes"/>
      <point x="380.9" y="445.501"/>
      <point x="367.462" y="422.048"/>
      <point x="340.662" y="422.048" type="curve" smooth="yes"/>
      <point x="325.503" y="422.048"/>
      <point x="319.598" y="432.929"/>
      <point x="313.622" y="447.194" type="curve" smooth="yes"/>
      <point x="307.876" y="460.923"/>
      <point x="301.113" y="468.088"/>
      <point x="286.113" y="468.088" type="curve" smooth="yes"/>
      <point x="227.677" y="468.088"/>
      <point x="187.952" y="372.743"/>
    </contour>
  </outline>
</glyph>
<glyph name="quotesingle" format="1">
  <advance width="141"/>
  <unicode hex="0027"/>
  <outline>
    <contour>
      <point x="88.2197" y="671.15" type="curve" smooth="yes"/>
      <point x="92.4199" y="671.15" type="line" smooth="yes"/>
      <point x="106.113" y="671.15"/>
      <point x="113.528" y="662.779"/>
      <point x="113.528" y="649.449" type="curve" smooth="yes"/>
      <point x="113.528" y="644.737"/>
      <point x="111.035" y="636.888"/>
      <point x="109.22" y="631.25" type="curve" smooth="yes"/>
      <point x="69.3203" y="507.35" type="line" smooth="yes"/>
      <point x="68.2705" y="501.05"/>
      <point x="63.0205" y="496.85"/>
      <point x="56.7197" y="496.85" type="curve" smooth="yes"/>
      <point x="43.0703" y="496.85" type="line" smooth="yes"/>
      <point x="37.793" y="496.85"/>
      <point x="35.4619" y="499.798"/>
      <point x="35.4619" y="504.458" type="curve" smooth="yes"/>
      <point x="35.4619" y="505.36"/>
      <point x="35.5498" y="506.327"/>
      <point x="35.7197" y="507.35" type="curve" smooth="yes"/>
      <point x="53.5205" y="636.25" type="line"/>
      <point x="56.5205" y="656.104"/>
      <point x="74.6885" y="671.15"/>
    </contour>
  </outline>
</glyph>
<glyph name="parenleft" format="1">
  <advance width="376"/>
  <unicode hex="0028"/>
  <outline>
    <contour>
      <point x="336.025" y="756.725" type="line"/>
      <point x="301.375" y="716.825"/>
      <point x="195.325" y="649.625"/>
      <point x="118.675" y="316.775" type="curve" smooth="yes"/>
      <point x="96.2857" y="219.974"/>
      <point x="88.2477" y="146.61"/>
      <point x="88.2477" y="90.2404" type="curve" smooth="yes"/>
      <point x="88.2477" y="-33.1543"/>
      <point x="126.764" y="-75.1161"/>
      <point x="137.575" y="-103.225" type="curve"/>
      <point x="127.075" y="-145.225" type="line"/>
      <point x="127.075" y="-145.225"/>
      <point x="40.3714" y="-23.7028"/>
      <point x="40.3714" y="168.145" type="curve" smooth="yes"/>
      <point x="40.3714" y="214.219"/>
      <point x="45.3721" y="264.348"/>
      <point x="57.7754" y="317.825" type="curve" smooth="yes"/>
      <point x="129.175" y="627.575"/>
      <point x="343.375" y="788.225"/>
      <point x="343.375" y="788.225" type="curve"/>
    </contour>
  </outline>
</glyph>
<glyph name="parenright" format="1">
  <advance width="382"/>
  <unicode hex="0029"/>
  <outline>
    <contour>
      <point x="241.175" y="756.725" type="curve"/>
      <point x="248.525" y="788.225" type="line"/>
      <point x="248.525" y="788.225"/>
      <point x="337.1" y="686.33"/>
      <point x="337.1" y="488.375" type="curve" smooth="yes"/>
      <point x="337.1" y="437.77"/>
      <point x="331.312" y="380.888"/>
      <point x="316.775" y="317.825" type="curve" smooth="yes"/>
      <point x="252.725" y="41.6748"/>
      <point x="32.2246" y="-145.225"/>
      <point x="32.2246" y="-145.225" type="curve"/>
      <point x="42.7246" y="-103.225" type="line"/>
      <point x="77.375" y="-62.2754"/>
      <point x="183.425" y="8.0752"/>
      <point x="254.825" y="316.775" type="curve" smooth="yes"/>
      <point x="279.992" y="426.062"/>
      <point x="288.859" y="506.71"/>
      <point x="288.859" y="567.157" type="curve" smooth="yes"/>
      <point x="288.859" y="690.81"/>
      <point x="251.754" y="729.926"/>
    </contour>
  </outline>
</glyph>
<glyph name="asterisk" format="1">
  <advance width="383"/>
  <unicode hex="002A"/>
  <outline>
    <contour>
      <point x="225.425" y="649.625" type="curve" smooth="yes"/>
      <point x="228.575" y="649.625" type="line" smooth="yes"/>
      <point x="233.277" y="649.625"/>
      <point x="237.137" y="646.256"/>
      <point x="237.137" y="641.027" type="curve" smooth="yes"/>
      <point x="237.137" y="640.418"/>
      <point x="237.084" y="639.783"/>
      <point x="236.975" y="639.125" type="curve" smooth="yes"/>
      <point x="213.875" y="521.525" type="line"/>
      <point x="322.125" y="574.075" type="line" smooth="yes"/>
      <point x="324.225" y="575.125"/>
      <point x="327.275" y="576.125"/>
      <point x="328.325" y="576.125" type="curve" smooth="yes"/>
      <point x="333.343" y="576.125"/>
      <point x="338.563" y="572.884"/>
      <point x="338.563" y="567.069" type="curve" smooth="yes"/>
      <point x="338.563" y="560.188"/>
      <point x="335.605" y="555.615"/>
      <point x="330.425" y="553.025" type="curve" smooth="yes"/>
      <point x="225.425" y="488.975" type="line"/>
      <point x="301.025" y="424.925" type="line" smooth="yes"/>
      <point x="303.088" y="423.177"/>
      <point x="304.568" y="421.775"/>
      <point x="304.568" y="418.871" type="curve" smooth="yes"/>
      <point x="304.568" y="414.127"/>
      <point x="302.355" y="410.562"/>
      <point x="299.975" y="408.125" type="curve" smooth="yes"/>
      <point x="296.862" y="404.938"/>
      <point x="292.625" y="401.825"/>
      <point x="288.425" y="401.825" type="curve" smooth="yes"/>
      <point x="287.375" y="401.825"/>
      <point x="285.705" y="401.931"/>
      <point x="284.225" y="402.875" type="curve" smooth="yes"/>
      <point x="200.225" y="456.425" type="line"/>
      <point x="168.725" y="339.875" type="line" smooth="yes"/>
      <point x="167.675" y="333.575"/>
      <point x="160.325" y="329.375"/>
      <point x="155.075" y="329.375" type="curve" smooth="yes"/>
      <point x="151.925" y="329.375" type="line" smooth="yes"/>
      <point x="147.223" y="329.375"/>
      <point x="143.363" y="332.744"/>
      <point x="143.363" y="337.973" type="curve" smooth="yes"/>
      <point x="143.363" y="338.582"/>
      <point x="143.416" y="339.217"/>
      <point x="143.525" y="339.875" type="curve" smooth="yes"/>
      <point x="165.575" y="456.425" type="line"/>
      <point x="55.3252" y="402.875" type="line" smooth="yes"/>
      <point x="53.606" y="402.04"/>
      <point x="52.1748" y="401.825"/>
      <point x="50.0752" y="401.825" type="curve" smooth="yes"/>
      <point x="45.8789" y="401.825"/>
      <point x="41.9375" y="406.91"/>
      <point x="41.9375" y="411.8" type="curve" smooth="yes"/>
      <point x="41.9375" y="413.112"/>
      <point x="42.1992" y="416.425"/>
      <point x="42.7246" y="418.475" type="curve" smooth="yes"/>
      <point x="43.5492" y="421.692"/>
      <point x="47.0217" y="423.715"/>
      <point x="49.0254" y="424.925" type="curve" smooth="yes"/>
      <point x="155.075" y="488.975" type="line"/>
      <point x="79.4248" y="552.025" type="line" smooth="yes"/>
      <point x="77.5938" y="553.555"/>
      <point x="75.6973" y="556.532"/>
      <point x="75.6973" y="559.016" type="curve" smooth="yes"/>
      <point x="75.6973" y="568.808"/>
      <point x="84.7182" y="576.125"/>
      <point x="91.0254" y="576.125" type="curve" smooth="yes"/>
      <point x="93.125" y="576.125"/>
      <point x="94.1748" y="576.125"/>
      <point x="96.2754" y="575.075" type="curve" smooth="yes"/>
      <point x="181.325" y="521.525" type="line"/>
      <point x="212.825" y="639.125" type="line" smooth="yes"/>
      <point x="213.875" y="644.375"/>
      <point x="220.175" y="649.625"/>
    </contour>
  </outline>
</glyph>
<glyph name="plus" format="1">
  <advance width="395"/>
  <unicode hex="002B"/>
  <outline>
    <contour>
      <point x="183.013" y="145.075" type="line" smooth="yes"/>
      <point x="181.963" y="139.825"/>
      <point x="171.463" y="136.675"/>
      <point x="160.963" y="136.675" type="curve" smooth="yes"/>
      <point x="150.911" y="136.675"/>
      <point x="139.896" y="138.562"/>
      <point x="139.896" y="143.415" type="curve" smooth="yes"/>
      <point x="139.896" y="143.631"/>
      <point x="141.955" y="152.776"/>
      <point x="142" y="153" type="curve" smooth="yes"/>
      <point x="168.312" y="265.825" type="line" smooth="yes"/>
      <point x="168.533" y="266.773"/>
      <point x="168.678" y="267.766"/>
      <point x="168.678" y="268.745" type="curve" smooth="yes"/>
      <point x="168.678" y="272.12"/>
      <point x="167.133" y="275.275"/>
      <point x="163.062" y="275.275" type="curve" smooth="yes"/>
      <point x="60.1621" y="275.275" type="line"/>
      <point x="56.881" y="276.588"/>
      <point x="55.2405" y="281.591"/>
      <point x="55.2405" y="287.979" type="curve" smooth="yes"/>
      <point x="55.2405" y="301.358"/>
      <point x="62.64" y="321.475"/>
      <point x="70.6621" y="321.475" type="curve" smooth="yes"/>
      <point x="172.513" y="321.475" type="line" smooth="yes"/>
      <point x="179.862" y="321.475"/>
      <point x="181.963" y="327.775"/>
      <point x="183.013" y="330.925" type="curve" smooth="yes"/>
      <point x="208.213" y="439.075" type="line"/>
      <point x="217.662" y="442.225"/>
      <point x="226.062" y="444.325"/>
      <point x="233.412" y="444.325" type="curve" smooth="yes"/>
      <point x="240.763" y="444.325"/>
      <point x="247.062" y="442.225"/>
      <point x="252.312" y="439.075" type="curve"/>
      <point x="227.112" y="330.875" type="line" smooth="yes"/>
      <point x="226.765" y="329.386"/>
      <point x="225.917" y="326.512"/>
      <point x="225.917" y="324.884" type="curve" smooth="yes"/>
      <point x="225.917" y="322.992"/>
      <point x="226.876" y="321.475"/>
      <point x="230.263" y="321.475" type="curve" smooth="yes"/>
      <point x="337.362" y="321.475" type="line"/>
      <point x="339.315" y="321.475"/>
      <point x="340.133" y="318.525"/>
      <point x="340.133" y="313.104" type="curve" smooth="yes"/>
      <point x="340.133" y="302.236"/>
      <point x="334.965" y="275.275"/>
      <point x="326.862" y="275.275" type="curve" smooth="yes"/>
      <point x="219.763" y="275.275" type="line" smooth="yes"/>
      <point x="215.562" y="275.275"/>
      <point x="212.412" y="273.175"/>
      <point x="211.362" y="267.925" type="curve" smooth="yes"/>
    </contour>
  </outline>
</glyph>
<glyph name="comma" format="1">
  <advance width="170"/>
  <unicode hex="002C"/>
  <outline>
    <contour>
      <point x="93" y="91" type="curve" smooth="yes"/>
      <point x="116.885" y="91"/>
      <point x="131.31" y="72.8086"/>
      <point x="131.31" y="51.9434" type="curve" smooth="yes"/>
      <point x="131.31" y="-26.8682"/>
      <point x="66.9775" y="-79"/>
      <point x="17" y="-79" type="curve" smooth="yes"/>
      <point x="5" y="-79"/>
      <point x="-2" y="-75"/>
      <point x="-2" y="-75" type="curve"/>
      <point x="-6" y="-67" type="line"/>
      <point x="9.58203" y="-67"/>
      <point x="52.2598" y="-48.5166"/>
      <point x="52.2598" y="-23.9004" type="curve" smooth="yes"/>
      <point x="52.2598" y="-19.2285"/>
      <point x="50.4688" y="-15.1143"/>
      <point x="48" y="-11" type="curve" smooth="yes"/>
      <point x="37.3711" y="2.89941"/>
      <point x="27.4102" y="8.1084"/>
      <point x="27.4102" y="24.8506" type="curve" smooth="yes"/>
      <point x="27.4102" y="61.1533"/>
      <point x="62.5732" y="91"/>
    </contour>
  </outline>
</glyph>
<glyph name="period" format="1">
  <advance width="212"/>
  <unicode hex="002E"/>
  <outline>
    <contour>
      <point x="101.313" y="91" type="curve" smooth="yes"/>
      <point x="123.625" y="91"/>
      <point x="138.573" y="74.0625"/>
      <point x="138.573" y="51.5625" type="curve" smooth="yes"/>
      <point x="138.573" y="16.3135"/>
      <point x="105.706" y="-11"/>
      <point x="77.3135" y="-11" type="curve" smooth="yes"/>
      <point x="54.2969" y="-11"/>
      <point x="40" y="5.71484"/>
      <point x="40" y="27.9922" type="curve" smooth="yes"/>
      <point x="40" y="63.4873"/>
      <point x="71.7354" y="91"/>
    </contour>
  </outline>
</glyph>
<glyph name="slash" format="1">
  <advance width="552"/>
  <unicode hex="002F"/>
  <outline>
    <contour>
      <point x="27.25" y="-115.8" type="curve"/>
      <point x="194.2" y="177.15"/>
      <point x="323.35" y="424.95"/>
      <point x="455.65" y="694.8" type="curve"/>
      <point x="476.65" y="709.5"/>
      <point x="493.45" y="715.8"/>
      <point x="505" y="715.8" type="curve" smooth="yes"/>
      <point x="515.438" y="715.8"/>
      <point x="521.553" y="710.756"/>
      <point x="521.553" y="701.264" type="curve" smooth="yes"/>
      <point x="521.553" y="699.298"/>
      <point x="521.291" y="697.142"/>
      <point x="520.75" y="694.8" type="curve"/>
      <point x="372.7" y="431.25"/>
      <point x="110.2" y="-75.9004"/>
      <point x="110.2" y="-75.9004" type="curve"/>
      <point x="92.3496" y="-126.3"/>
      <point x="67.1504" y="-101.1"/>
    </contour>
  </outline>
</glyph>
<glyph name="zero" format="1">
  <advance width="480"/>
  <unicode hex="0030"/>
  <outline>
    <contour>
      <point x="114.397" y="181.175" type="curve" smooth="yes"/>
      <point x="114.397" y="87.2783"/>
      <point x="142.371" y="23"/>
      <point x="189.823" y="23" type="curve" smooth="yes"/>
      <point x="282.873" y="23"/>
      <point x="401.47" y="254.998"/>
      <point x="401.47" y="454.315" type="curve" smooth="yes"/>
      <point x="401.47" y="547.401"/>
      <point x="373.023" y="611"/>
      <point x="325.823" y="611" type="curve" smooth="yes"/>
      <point x="232.971" y="611"/>
      <point x="114.397" y="369.755"/>
    </contour>
    <contour>
      <point x="332.823" y="640" type="curve" smooth="yes"/>
      <point x="417.705" y="640"/>
      <point x="468.646" y="554.66"/>
      <point x="468.646" y="432.982" type="curve" smooth="yes"/>
      <point x="468.646" y="212.102"/>
      <point x="315.79" y="-7"/>
      <point x="182.823" y="-7" type="curve" smooth="yes"/>
      <point x="97.4941" y="-7"/>
      <point x="45.2607" y="80.252"/>
      <point x="45.2607" y="202.943" type="curve" smooth="yes"/>
      <point x="45.2607" y="423.842"/>
      <point x="200.271" y="640"/>
    </contour>
  </outline>
</glyph>
<glyph name="one" format="1">
  <advance width="315"/>
  <unicode hex="0031"/>
  <outline>
    <contour>
      <point x="177" y="16" type="curve"/>
      <point x="174" y="0" type="line"/>
      <point x="40" y="0" type="line"/>
      <point x="44" y="16" type="line"/>
      <point x="62" y="16"/>
      <point x="78" y="19"/>
      <point x="82" y="37" type="curve" smooth="yes"/>
      <point x="197" y="532" type="line" smooth="yes"/>
      <point x="198.538" y="538.619"/>
      <point x="201.658" y="548.078"/>
      <point x="201.658" y="553.506" type="curve" smooth="yes"/>
      <point x="201.658" y="562.029"/>
      <point x="196.942" y="565"/>
      <point x="189" y="565" type="curve" smooth="yes"/>
      <point x="179" y="565"/>
      <point x="156" y="563"/>
      <point x="156" y="563" type="curve"/>
      <point x="160" y="583" type="line" smooth="yes"/>
      <point x="197" y="598"/>
      <point x="236.812" y="618.906"/>
      <point x="273" y="640" type="curve" smooth="yes"/>
      <point x="274.932" y="641.126"/>
      <point x="279" y="643"/>
      <point x="281" y="643" type="curve" smooth="yes"/>
      <point x="284.509" y="643"/>
      <point x="287.192" y="640.686"/>
      <point x="287.192" y="636.196" type="curve" smooth="yes"/>
      <point x="287.192" y="635.514"/>
      <point x="287.13" y="634.782"/>
      <point x="287" y="634" type="curve" smooth="yes"/>
      <point x="149" y="37" type="line" smooth="yes"/>
      <point x="148.557" y="34.8957"/>
      <point x="148.347" y="33"/>
      <point x="148.347" y="31.2924" type="curve" smooth="yes"/>
      <point x="148.347" y="17.5815"/>
      <point x="161.883" y="16"/>
    </contour>
  </outline>
</glyph>
<glyph name="two" format="1">
  <advance width="480"/>
  <unicode hex="0032"/>
  <outline>
    <contour>
      <point x="197" y="530" type="curve"/>
      <point x="183" y="546" type="line"/>
      <point x="183" y="546"/>
      <point x="254" y="642"/>
      <point x="353" y="642" type="curve" smooth="yes"/>
      <point x="431.796" y="642"/>
      <point x="476.849" y="608.789"/>
      <point x="476.849" y="546.421" type="curve" smooth="yes"/>
      <point x="476.849" y="454.473"/>
      <point x="417.074" y="399.412"/>
      <point x="307" y="282" type="curve" smooth="yes"/>
      <point x="217" y="186"/>
      <point x="127" y="86"/>
      <point x="94" y="54" type="curve"/>
      <point x="290" y="54" type="line" smooth="yes"/>
      <point x="336" y="54"/>
      <point x="365" y="73"/>
      <point x="382" y="105" type="curve"/>
      <point x="395" y="103" type="line"/>
      <point x="336" y="0" type="line"/>
      <point x="13" y="0" type="line" smooth="yes"/>
      <point x="16" y="12"/>
      <point x="21" y="34"/>
      <point x="21" y="34" type="curve"/>
      <point x="145" y="157"/>
      <point x="233" y="263"/>
      <point x="302" y="340" type="curve" smooth="yes"/>
      <point x="356.466" y="400.781"/>
      <point x="409.085" y="456.703"/>
      <point x="409.085" y="530.517" type="curve" smooth="yes"/>
      <point x="409.085" y="580.597"/>
      <point x="370.693" y="601"/>
      <point x="323" y="601" type="curve" smooth="yes"/>
      <point x="267" y="601"/>
      <point x="235" y="569"/>
    </contour>
  </outline>
</glyph>
<glyph name="three" format="1">
  <advance width="505"/>
  <unicode hex="0033"/>
  <outline>
    <contour>
      <point x="174.257" y="522" type="curve"/>
      <point x="164.257" y="537" type="line"/>
      <point x="164.257" y="537"/>
      <point x="254.257" y="640"/>
      <point x="348.257" y="640" type="curve" smooth="yes"/>
      <point x="422.217" y="640"/>
      <point x="459.197" y="611.156"/>
      <point x="459.197" y="565.552" type="curve" smooth="yes"/>
      <point x="459.197" y="483.583"/>
      <point x="365.109" y="428.622"/>
      <point x="293.257" y="375" type="curve"/>
      <point x="361.417" y="375"/>
      <point x="429.702" y="316.952"/>
      <point x="429.702" y="232.896" type="curve" smooth="yes"/>
      <point x="429.702" y="83.4468"/>
      <point x="293.492" y="-7"/>
      <point x="161.257" y="-7" type="curve" smooth="yes"/>
      <point x="106.222" y="-7"/>
      <point x="40" y="15.3738"/>
      <point x="40" y="34.9184" type="curve" smooth="yes"/>
      <point x="40" y="38.1898"/>
      <point x="40.9321" y="39.3505"/>
      <point x="42.2568" y="42" type="curve" smooth="yes"/>
      <point x="48.2568" y="49"/>
      <point x="58.2568" y="59"/>
      <point x="67.2568" y="59" type="curve" smooth="yes"/>
      <point x="76.2568" y="59"/>
      <point x="85.2568" y="55"/>
      <point x="94.2568" y="46" type="curve" smooth="yes"/>
      <point x="110.257" y="30"/>
      <point x="139.257" y="23"/>
      <point x="168.257" y="23" type="curve" smooth="yes"/>
      <point x="262.597" y="23"/>
      <point x="360.884" y="89.9209"/>
      <point x="360.884" y="204.381" type="curve" smooth="yes"/>
      <point x="360.884" y="241.121"/>
      <point x="343.559" y="272.104"/>
      <point x="318.257" y="288" type="curve" smooth="yes"/>
      <point x="297.037" y="301.331"/>
      <point x="269.257" y="309"/>
      <point x="244.257" y="309" type="curve" smooth="yes"/>
      <point x="210.257" y="309"/>
      <point x="170.257" y="292"/>
      <point x="161.257" y="292" type="curve" smooth="yes"/>
      <point x="156.413" y="292"/>
      <point x="153.257" y="295.753"/>
      <point x="153.257" y="301" type="curve" smooth="yes"/>
      <point x="153.257" y="304.236"/>
      <point x="156.257" y="307"/>
      <point x="159.257" y="309" type="curve" smooth="yes"/>
      <point x="164.278" y="312.364"/>
      <point x="377.497" y="443.688"/>
      <point x="377.497" y="541.769" type="curve" smooth="yes"/>
      <point x="377.497" y="577.248"/>
      <point x="356.075" y="598"/>
      <point x="319.257" y="598" type="curve" smooth="yes"/>
      <point x="275.257" y="598"/>
      <point x="215.257" y="568"/>
    </contour>
  </outline>
</glyph>
<glyph name="four" format="1">
  <advance width="457"/>
  <unicode hex="0034"/>
  <outline>
    <contour>
      <point x="330.196" y="539" type="line"/>
      <point x="266.196" y="464"/>
      <point x="179.196" y="381"/>
      <point x="119.196" y="322" type="curve"/>
      <point x="170.196" y="322"/>
      <point x="258.196" y="319"/>
      <point x="280.196" y="319" type="curve"/>
    </contour>
    <contour>
      <point x="377.196" y="628" type="curve"/>
      <point x="384.196" y="637"/>
      <point x="396.196" y="642"/>
      <point x="405.196" y="642" type="curve" smooth="yes"/>
      <point x="411.521" y="642"/>
      <point x="419.48" y="638.734"/>
      <point x="419.48" y="630.727" type="curve" smooth="yes"/>
      <point x="419.48" y="629.872"/>
      <point x="419.389" y="628.964"/>
      <point x="419.196" y="628" type="curve" smooth="yes"/>
      <point x="348.196" y="321" type="line"/>
      <point x="378.196" y="321"/>
      <point x="410.196" y="325"/>
      <point x="433.196" y="329" type="curve"/>
      <point x="423.929" y="320.891"/>
      <point x="415.712" y="308.1"/>
      <point x="415.712" y="291.146" type="curve" smooth="yes"/>
      <point x="415.712" y="285.362"/>
      <point x="417.242" y="281.257"/>
      <point x="419.196" y="278" type="curve"/>
      <point x="337.196" y="278" type="line"/>
      <point x="274.196" y="8" type="line"/>
      <point x="273.196" y="3"/>
      <point x="272.196" y="0"/>
      <point x="267.196" y="0" type="curve"/>
      <point x="212.196" y="0" type="line"/>
      <point x="208.32" y="0"/>
      <point x="206.848" y="1.20215"/>
      <point x="206.848" y="3.60645" type="curve" smooth="yes"/>
      <point x="206.848" y="4.30273"/>
      <point x="207.972" y="9.10059"/>
      <point x="208.196" y="10" type="curve" smooth="yes"/>
      <point x="270.196" y="278" type="line"/>
      <point x="270.196" y="278"/>
      <point x="60.1963" y="278"/>
      <point x="48.1963" y="278" type="curve" smooth="yes"/>
      <point x="45.5982" y="278"/>
      <point x="43" y="281.25"/>
      <point x="43" y="284.451" type="curve" smooth="yes"/>
      <point x="43" y="289.164"/>
      <point x="46.2314" y="293.035"/>
      <point x="49.1963" y="296" type="curve" smooth="yes"/>
      <point x="160.196" y="407"/>
      <point x="279.196" y="517"/>
    </contour>
  </outline>
</glyph>
<glyph name="five" format="1">
  <advance width="556"/>
  <unicode hex="0035"/>
  <outline>
    <contour>
      <point x="491.393" y="616" type="curve" smooth="yes"/>
      <point x="494.319" y="616.658"/>
      <point x="500.393" y="618"/>
      <point x="502.393" y="618" type="curve" smooth="yes"/>
      <point x="507.773" y="618"/>
      <point x="511.546" y="615.587"/>
      <point x="511.546" y="612.204" type="curve" smooth="yes"/>
      <point x="511.546" y="607.204"/>
      <point x="489.585" y="571.321"/>
      <point x="480.393" y="556" type="curve"/>
      <point x="238.393" y="556" type="line"/>
      <point x="150.393" y="366" type="line"/>
      <point x="200.393" y="391"/>
      <point x="247.393" y="403"/>
      <point x="288.393" y="403" type="curve" smooth="yes"/>
      <point x="372.491" y="403"/>
      <point x="429.55" y="353.081"/>
      <point x="429.55" y="264.789" type="curve" smooth="yes"/>
      <point x="429.55" y="120.922"/>
      <point x="305.609" y="-9"/>
      <point x="178.393" y="-9" type="curve" smooth="yes"/>
      <point x="137.393" y="-9"/>
      <point x="84" y="12"/>
      <point x="44.3926" y="50" type="curve" smooth="yes"/>
      <point x="42.5214" y="51.7953"/>
      <point x="42.0003" y="53.4641"/>
      <point x="42.0003" y="55.6077" type="curve" smooth="yes"/>
      <point x="42.0003" y="63.8983"/>
      <point x="52.5368" y="72"/>
      <point x="57.3926" y="72" type="curve" smooth="yes"/>
      <point x="59.3926" y="72"/>
      <point x="60.3926" y="71"/>
      <point x="61.3926" y="70" type="curve"/>
      <point x="83.3926" y="37"/>
      <point x="142.393" y="25"/>
      <point x="177.393" y="25" type="curve" smooth="yes"/>
      <point x="284.069" y="25"/>
      <point x="366.941" y="129.711"/>
      <point x="366.941" y="225.595" type="curve" smooth="yes"/>
      <point x="366.941" y="289.575"/>
      <point x="325.649" y="334"/>
      <point x="248.393" y="334" type="curve" smooth="yes"/>
      <point x="207.393" y="334"/>
      <point x="151.393" y="328"/>
      <point x="87.3926" y="292" type="curve"/>
      <point x="231.393" y="611" type="line"/>
      <point x="443.393" y="611" type="line" smooth="yes"/>
      <point x="461.393" y="611"/>
      <point x="478.051" y="613"/>
    </contour>
  </outline>
</glyph>
<glyph name="six" format="1">
  <advance width="480"/>
  <unicode hex="0036"/>
  <outline>
    <contour>
      <point x="446.571" y="608" type="curve" smooth="yes"/>
      <point x="257.498" y="559.381"/>
      <point x="99.7471" y="386.672"/>
      <point x="99.7471" y="161.211" type="curve" smooth="yes"/>
      <point x="99.7471" y="85.4248"/>
      <point x="123.433" y="17"/>
      <point x="190.571" y="17" type="curve" smooth="yes"/>
      <point x="281.596" y="17"/>
      <point x="371.649" y="113.406"/>
      <point x="371.649" y="247.508" type="curve" smooth="yes"/>
      <point x="371.649" y="318.51"/>
      <point x="328.735" y="347"/>
      <point x="272.571" y="347" type="curve" smooth="yes"/>
      <point x="222.571" y="347"/>
      <point x="190.571" y="322"/>
      <point x="165.571" y="298" type="curve" smooth="yes"/>
      <point x="163.409" y="296.271"/>
      <point x="160.988" y="295.552"/>
      <point x="158.751" y="295.552" type="curve" smooth="yes"/>
      <point x="155.562" y="295.552"/>
      <point x="151.016" y="299.07"/>
      <point x="151.016" y="302.186" type="curve" smooth="yes"/>
      <point x="151.016" y="305.924"/>
      <point x="152.772" y="309.201"/>
      <point x="156.571" y="313" type="curve" smooth="yes"/>
      <point x="184.571" y="345"/>
      <point x="232.571" y="400"/>
      <point x="315.571" y="400" type="curve" smooth="yes"/>
      <point x="373.426" y="400"/>
      <point x="438.31" y="364.146"/>
      <point x="438.31" y="267.09" type="curve" smooth="yes"/>
      <point x="438.31" y="118.333"/>
      <point x="317.561" y="-8"/>
      <point x="183.571" y="-8" type="curve" smooth="yes"/>
      <point x="91.2734" y="-8"/>
      <point x="32.2529" y="74.1738"/>
      <point x="32.2529" y="180.316" type="curve" smooth="yes"/>
      <point x="32.2529" y="454.045"/>
      <point x="268.833" y="597.888"/>
      <point x="456.571" y="637" type="curve"/>
      <point x="456.571" y="637"/>
      <point x="458.259" y="631.938"/>
      <point x="458.259" y="626.031" type="curve" smooth="yes"/>
      <point x="458.259" y="617.16"/>
      <point x="455.409" y="610.525"/>
    </contour>
  </outline>
</glyph>
<glyph name="seven" format="1">
  <advance width="453"/>
  <unicode hex="0037"/>
  <outline>
    <contour>
      <point x="407" y="562" type="curve"/>
      <point x="158" y="562" type="line" smooth="yes"/>
      <point x="143" y="562"/>
      <point x="129" y="546"/>
      <point x="129" y="546" type="curve" smooth="yes"/>
      <point x="123" y="546"/>
      <point x="119" y="553"/>
      <point x="119" y="553" type="curve" smooth="yes"/>
      <point x="144" y="612" type="line" smooth="yes"/>
      <point x="147" y="617"/>
      <point x="154" y="622"/>
      <point x="160" y="622" type="curve" smooth="yes"/>
      <point x="419" y="622" type="line"/>
      <point x="482" y="622" type="line" smooth="yes"/>
      <point x="487.026" y="622"/>
      <point x="489.246" y="619.193"/>
      <point x="489.246" y="614.754" type="curve" smooth="yes"/>
      <point x="489.246" y="608.02"/>
      <point x="482.027" y="599.844"/>
      <point x="479" y="596" type="curve" smooth="yes"/>
      <point x="330.614" y="407.597"/>
      <point x="166" y="166"/>
      <point x="104" y="0" type="curve"/>
      <point x="41" y="0" type="line"/>
      <point x="102" y="165"/>
      <point x="276" y="413"/>
    </contour>
  </outline>
</glyph>
<glyph name="eight" format="1">
  <advance width="480"/>
  <unicode hex="0038"/>
  <outline>
    <contour>
      <point x="195.656" y="16" type="curve" smooth="yes"/>
      <point x="268.825" y="16"/>
      <point x="345.472" y="91.7686"/>
      <point x="345.472" y="165.485" type="curve" smooth="yes"/>
      <point x="345.472" y="227.646"/>
      <point x="296.064" y="289.394"/>
      <point x="247.656" y="329" type="curve"/>
      <point x="163.425" y="264.774"/>
      <point x="107.038" y="217.463"/>
      <point x="107.038" y="114.481" type="curve" smooth="yes"/>
      <point x="107.038" y="57.5352"/>
      <point x="141.097" y="16"/>
    </contour>
    <contour>
      <point x="285.656" y="380" type="curve"/>
      <point x="328.957" y="417.75"/>
      <point x="409.978" y="465.32"/>
      <point x="409.978" y="534.715" type="curve" smooth="yes"/>
      <point x="409.978" y="575.628"/>
      <point x="386.415" y="623"/>
      <point x="335.656" y="623" type="curve" smooth="yes"/>
      <point x="250.224" y="623"/>
      <point x="210.713" y="552.767"/>
      <point x="210.713" y="490.454" type="curve" smooth="yes"/>
      <point x="210.713" y="438.562"/>
      <point x="251.185" y="411.109"/>
    </contour>
    <contour>
      <point x="306.656" y="367" type="curve"/>
      <point x="307.656" y="365"/>
      <point x="309.656" y="364"/>
      <point x="311.656" y="362" type="curve" smooth="yes"/>
      <point x="362.436" y="312.053"/>
      <point x="406.286" y="262.105"/>
      <point x="406.286" y="189.66" type="curve" smooth="yes"/>
      <point x="406.286" y="87.3032"/>
      <point x="307.984" y="-8"/>
      <point x="188.656" y="-8" type="curve" smooth="yes"/>
      <point x="114.148" y="-8"/>
      <point x="41.9996" y="38.42"/>
      <point x="41.9996" y="115.209" type="curve" smooth="yes"/>
      <point x="41.9996" y="220.147"/>
      <point x="132.365" y="273.914"/>
      <point x="225.656" y="341" type="curve"/>
      <point x="189.049" y="375.167"/>
      <point x="152.442" y="407.348"/>
      <point x="152.442" y="470.921" type="curve" smooth="yes"/>
      <point x="152.442" y="553.77"/>
      <point x="202.831" y="643"/>
      <point x="340.656" y="643" type="curve" smooth="yes"/>
      <point x="406.285" y="643"/>
      <point x="459.329" y="599.74"/>
      <point x="459.329" y="541.122" type="curve" smooth="yes"/>
      <point x="459.329" y="457.585"/>
      <point x="360.211" y="408.772"/>
    </contour>
  </outline>
</glyph>
<glyph name="nine" format="1">
  <advance width="499"/>
  <unicode hex="0039"/>
  <outline>
    <contour>
      <point x="53.6875" y="11" type="curve" smooth="yes"/>
      <point x="232.73" y="70.681"/>
      <point x="393.192" y="248.719"/>
      <point x="393.192" y="488.647" type="curve" smooth="yes"/>
      <point x="393.192" y="564.394"/>
      <point x="365.608" y="616"/>
      <point x="292.688" y="616" type="curve" smooth="yes"/>
      <point x="217.872" y="616"/>
      <point x="132.576" y="532.351"/>
      <point x="132.576" y="401.764" type="curve" smooth="yes"/>
      <point x="132.576" y="337.777"/>
      <point x="161.22" y="297"/>
      <point x="205.688" y="297" type="curve" smooth="yes"/>
      <point x="252.688" y="297"/>
      <point x="300.688" y="323"/>
      <point x="324.688" y="347" type="curve" smooth="yes"/>
      <point x="328.688" y="351"/>
      <point x="331.688" y="352"/>
      <point x="333.688" y="352" type="curve" smooth="yes"/>
      <point x="336.285" y="352"/>
      <point x="339.884" y="348.75"/>
      <point x="339.884" y="344.899" type="curve" smooth="yes"/>
      <point x="339.884" y="340.536"/>
      <point x="335.913" y="336.301"/>
      <point x="332.688" y="332" type="curve" smooth="yes"/>
      <point x="304.688" y="300"/>
      <point x="263.688" y="253"/>
      <point x="186.688" y="253" type="curve" smooth="yes"/>
      <point x="132.521" y="253"/>
      <point x="70.7153" y="288.417"/>
      <point x="70.7153" y="384.134" type="curve" smooth="yes"/>
      <point x="70.7153" y="531.694"/>
      <point x="190.981" y="641"/>
      <point x="298.688" y="641" type="curve" smooth="yes"/>
      <point x="395.282" y="641"/>
      <point x="453.01" y="587.715"/>
      <point x="453.01" y="478.663" type="curve" smooth="yes"/>
      <point x="453.01" y="188.398"/>
      <point x="221.865" y="31.481"/>
      <point x="43.6875" y="-15" type="curve"/>
      <point x="43.6875" y="-15"/>
      <point x="42" y="-10.5"/>
      <point x="42" y="-5.29688" type="curve" smooth="yes"/>
      <point x="42" y="3.22221"/>
      <point x="45.0769" y="8.53984"/>
    </contour>
  </outline>
</glyph>
<glyph name="colon" format="1">
  <advance width="294"/>
  <unicode hex="003A"/>
  <outline>
    <contour>
      <point x="116.313" y="91" type="curve" smooth="yes"/>
      <point x="138.625" y="91"/>
      <point x="153.573" y="74.0624"/>
      <point x="153.573" y="51.5623" type="curve" smooth="yes"/>
      <point x="153.573" y="16.3137"/>
      <point x="120.706" y="-11"/>
      <point x="92.3135" y="-11" type="curve" smooth="yes"/>
      <point x="69.2965" y="-11"/>
      <point x="55.0002" y="5.71459"/>
      <point x="55.0002" y="27.9925" type="curve" smooth="yes"/>
      <point x="55.0002" y="63.4871"/>
      <point x="86.7358" y="91"/>
    </contour>
    <contour>
      <point x="200.313" y="457" type="curve" smooth="yes"/>
      <point x="222.625" y="457"/>
      <point x="237.573" y="440.062"/>
      <point x="237.573" y="417.562" type="curve" smooth="yes"/>
      <point x="237.573" y="381.536"/>
      <point x="204.808" y="355"/>
      <point x="177.313" y="355" type="curve" smooth="yes"/>
      <point x="154.434" y="355"/>
      <point x="138.736" y="370.797"/>
      <point x="138.736" y="393.264" type="curve" smooth="yes"/>
      <point x="138.736" y="428.962"/>
      <point x="170.412" y="457"/>
    </contour>
  </outline>
</glyph>
<glyph name="semicolon" format="1">
  <advance width="325"/>
  <unicode hex="003B"/>
  <outline>
    <contour>
      <point x="232" y="457" type="curve" smooth="yes"/>
      <point x="254.312" y="457"/>
      <point x="269.26" y="440.062"/>
      <point x="269.26" y="417.562" type="curve" smooth="yes"/>
      <point x="269.26" y="381.408"/>
      <point x="235.594" y="355"/>
      <point x="208" y="355" type="curve" smooth="yes"/>
      <point x="185.286" y="355"/>
      <point x="170.357" y="370.57"/>
      <point x="170.357" y="392.778" type="curve" smooth="yes"/>
      <point x="170.357" y="428.732"/>
      <point x="201.832" y="457"/>
    </contour>
    <contour>
      <point x="151" y="91" type="curve" smooth="yes"/>
      <point x="174.885" y="91"/>
      <point x="189.31" y="72.8086"/>
      <point x="189.31" y="51.9435" type="curve" smooth="yes"/>
      <point x="189.31" y="-29.1718"/>
      <point x="124.439" y="-77"/>
      <point x="71" y="-77" type="curve" smooth="yes"/>
      <point x="61" y="-77"/>
      <point x="56" y="-77"/>
      <point x="56" y="-77" type="curve"/>
      <point x="52" y="-67" type="line"/>
      <point x="67.9879" y="-67"/>
      <point x="110" y="-49.458"/>
      <point x="110" y="-27" type="curve" smooth="yes"/>
      <point x="110" y="-2.16234"/>
      <point x="85.4102" y="5.38184"/>
      <point x="85.4102" y="26.8506" type="curve" smooth="yes"/>
      <point x="85.4102" y="63.1533"/>
      <point x="120.573" y="91"/>
    </contour>
  </outline>
</glyph>
<glyph name="less" format="1">
  <advance width="513"/>
  <unicode hex="003C"/>
  <outline>
    <contour>
      <point x="151" y="314" type="line"/>
      <point x="374" y="152" type="line"/>
      <point x="359" y="84" type="line"/>
      <point x="49" y="304" type="line"/>
      <point x="52" y="320" type="line"/>
      <point x="464" y="540" type="line"/>
      <point x="449" y="476" type="line"/>
    </contour>
  </outline>
</glyph>
<glyph name="equal" format="1">
  <advance width="403"/>
  <unicode hex="003D"/>
  <outline>
    <contour>
      <point x="86.2129" y="327.4" type="line"/>
      <point x="82.9315" y="328.713"/>
      <point x="81.2906" y="333.717"/>
      <point x="81.2906" y="340.105" type="curve" smooth="yes"/>
      <point x="81.2906" y="353.486"/>
      <point x="88.6908" y="373.6"/>
      <point x="96.7129" y="373.6" type="curve" smooth="yes"/>
      <point x="343.463" y="373.6" type="line"/>
      <point x="345.415" y="373.6"/>
      <point x="346.233" y="370.651"/>
      <point x="346.233" y="366.229" type="curve" smooth="yes"/>
      <point x="346.233" y="355.361"/>
      <point x="341.065" y="327.4"/>
      <point x="332.963" y="327.4" type="curve" smooth="yes"/>
    </contour>
    <contour>
      <point x="62.0625" y="222.4" type="line"/>
      <point x="58.7812" y="223.713"/>
      <point x="57.1406" y="228.717"/>
      <point x="57.1406" y="235.105" type="curve" smooth="yes"/>
      <point x="57.1406" y="248.486"/>
      <point x="64.5408" y="268.6"/>
      <point x="72.5625" y="268.6" type="curve" smooth="yes"/>
      <point x="319.312" y="268.6" type="line"/>
      <point x="321.265" y="268.6"/>
      <point x="322.083" y="265.65"/>
      <point x="322.083" y="261.228" type="curve" smooth="yes"/>
      <point x="322.083" y="250.361"/>
      <point x="316.915" y="222.4"/>
      <point x="308.812" y="222.4" type="curve" smooth="yes"/>
    </contour>
  </outline>
</glyph>
<glyph name="greater" format="1">
  <advance width="509"/>
  <unicode hex="003E"/>
  <outline>
    <contour>
      <point x="359" y="314" type="line"/>
      <point x="136" y="476" type="line"/>
      <point x="150" y="540" type="line"/>
      <point x="460" y="320" type="line"/>
      <point x="457" y="304" type="line"/>
      <point x="45" y="84" type="line"/>
      <point x="61" y="152" type="line"/>
    </contour>
  </outline>
</glyph>
<glyph name="question" format="1">
  <advance width="578"/>
  <unicode hex="003F"/>
  <outline>
    <contour>
      <point x="189.964" y="206.625" type="line"/>
      <point x="196.264" y="254.925"/>
      <point x="198.913" y="362.675"/>
      <point x="198.913" y="362.675" type="curve" smooth="yes"/>
      <point x="210.464" y="415.175"/>
      <point x="274.163" y="444.975"/>
      <point x="317.214" y="479.625" type="curve" smooth="yes"/>
      <point x="391.324" y="538.699"/>
      <point x="440.215" y="560.073"/>
      <point x="440.215" y="643.542" type="curve" smooth="yes"/>
      <point x="440.215" y="701.728"/>
      <point x="388.241" y="740.575"/>
      <point x="338.214" y="740.575" type="curve" smooth="yes"/>
      <point x="278.363" y="740.575"/>
      <point x="237.163" y="689.625"/>
      <point x="226.663" y="666.525" type="curve" smooth="yes"/>
      <point x="215.113" y="639.225"/>
      <point x="189.113" y="623.575"/>
      <point x="172.313" y="623.575" type="curve" smooth="yes"/>
      <point x="156.235" y="623.575"/>
      <point x="144.209" y="637.832"/>
      <point x="144.209" y="656.311" type="curve" smooth="yes"/>
      <point x="144.209" y="720.415"/>
      <point x="263.682" y="769.375"/>
      <point x="337.764" y="769.375" type="curve" smooth="yes"/>
      <point x="412.375" y="769.375"/>
      <point x="511.136" y="720.145"/>
      <point x="511.136" y="626.959" type="curve" smooth="yes"/>
      <point x="511.136" y="521.261"/>
      <point x="429.636" y="498.281"/>
      <point x="361.464" y="450.225" type="curve" smooth="yes"/>
      <point x="319.464" y="420.825"/>
      <point x="278" y="392"/>
      <point x="262.113" y="348.075" type="curve" smooth="yes"/>
      <point x="241.082" y="289.926"/>
      <point x="232.363" y="203.625"/>
      <point x="232.363" y="203.625" type="curve"/>
    </contour>
    <contour>
      <point x="197.313" y="92" type="curve" smooth="yes"/>
      <point x="219.625" y="92"/>
      <point x="234.573" y="75.0624"/>
      <point x="234.573" y="52.5623" type="curve" smooth="yes"/>
      <point x="234.573" y="17.3137"/>
      <point x="201.706" y="-10"/>
      <point x="173.313" y="-10" type="curve" smooth="yes"/>
      <point x="150.297" y="-10"/>
      <point x="136" y="6.71459"/>
      <point x="136" y="28.9925" type="curve" smooth="yes"/>
      <point x="136" y="64.4871"/>
      <point x="167.736" y="92"/>
    </contour>
  </outline>
</glyph>
<glyph name="at" format="1">
  <advance width="723"/>
  <unicode hex="0040"/>
  <outline>
    <contour>
      <point x="297.1" y="-20.6748" type="curve" smooth="yes"/>
      <point x="408.399" y="-20.6748"/>
      <point x="509.199" y="18.1748"/>
      <point x="549.1" y="49.6748" type="curve"/>
      <point x="557.558" y="49.6748"/>
      <point x="565.175" y="42.9463"/>
      <point x="565.175" y="35.5098" type="curve" smooth="yes"/>
      <point x="565.175" y="31.6211"/>
      <point x="563.104" y="29.0283"/>
      <point x="560.649" y="26.5752" type="curve" smooth="yes"/>
      <point x="519.699" y="-8.0752"/>
      <point x="424.149" y="-62.6748"/>
      <point x="287.649" y="-62.6748" type="curve" smooth="yes"/>
      <point x="180.13" y="-62.6748"/>
      <point x="32.3945" y="-14.417"/>
      <point x="32.3945" y="148.973" type="curve" smooth="yes"/>
      <point x="32.3945" y="386.463"/>
      <point x="234.262" y="553.675"/>
      <point x="470.35" y="553.675" type="curve" smooth="yes"/>
      <point x="592.654" y="553.675"/>
      <point x="686.46" y="470.491"/>
      <point x="686.46" y="341.724" type="curve" smooth="yes"/>
      <point x="686.46" y="184.496"/>
      <point x="564.896" y="74.875"/>
      <point x="421" y="74.875" type="curve" smooth="yes"/>
      <point x="388.449" y="74.875"/>
      <point x="397.899" y="108.475"/>
      <point x="389.5" y="108.475" type="curve" smooth="yes"/>
      <point x="376.899" y="108.475"/>
      <point x="338.05" y="70.6748"/>
      <point x="281.35" y="70.6748" type="curve" smooth="yes"/>
      <point x="218.903" y="70.6748"/>
      <point x="179.952" y="107.056"/>
      <point x="179.952" y="162.431" type="curve" smooth="yes"/>
      <point x="179.952" y="328.467"/>
      <point x="356.532" y="406.675"/>
      <point x="435.699" y="406.675" type="curve" smooth="yes"/>
      <point x="464.05" y="406.675"/>
      <point x="501.85" y="395.125"/>
      <point x="508.149" y="395.125" type="curve" smooth="yes"/>
      <point x="517.6" y="395.125"/>
      <point x="530.199" y="403.525"/>
      <point x="534.399" y="407.725" type="curve"/>
      <point x="545.949" y="407.725"/>
      <point x="551.199" y="402.475"/>
      <point x="555.399" y="396.175" type="curve"/>
      <point x="542.8" y="376.225"/>
      <point x="530.199" y="348.925"/>
      <point x="518.649" y="314.275" type="curve" smooth="yes"/>
      <point x="448.3" y="142.075" type="line"/>
      <point x="448.089" y="140.671"/>
      <point x="447.986" y="139.332"/>
      <point x="447.986" y="138.057" type="curve" smooth="yes"/>
      <point x="447.986" y="120.261"/>
      <point x="467.976" y="114.775"/>
      <point x="493.449" y="114.775" type="curve" smooth="yes"/>
      <point x="558.857" y="114.775"/>
      <point x="630.231" y="231.279"/>
      <point x="630.231" y="332.032" type="curve" smooth="yes"/>
      <point x="630.231" y="438.08"/>
      <point x="554.209" y="499.075"/>
      <point x="431.5" y="499.075" type="curve" smooth="yes"/>
      <point x="277.037" y="499.075"/>
      <point x="100.274" y="369.479"/>
      <point x="100.274" y="154.259" type="curve" smooth="yes"/>
      <point x="100.274" y="23.4541"/>
      <point x="203.332" y="-20.6748"/>
    </contour>
    <contour>
      <point x="250.904" y="194.472" type="curve" smooth="yes"/>
      <point x="250.904" y="156.246"/>
      <point x="274.847" y="112.675"/>
      <point x="328.6" y="112.675" type="curve" smooth="yes"/>
      <point x="386.35" y="112.675"/>
      <point x="403.149" y="143.125"/>
      <point x="412.6" y="170.425" type="curve" smooth="yes"/>
      <point x="477.699" y="317.425" type="line"/>
      <point x="478.774" y="322.322"/>
      <point x="479.278" y="326.826"/>
      <point x="479.278" y="330.962" type="curve" smooth="yes"/>
      <point x="479.278" y="363.179"/>
      <point x="448.677" y="373.075"/>
      <point x="418.899" y="373.075" type="curve" smooth="yes"/>
      <point x="355.447" y="373.075"/>
      <point x="250.904" y="301.482"/>
    </contour>
  </outline>
</glyph>
<glyph name="A" format="1">
  <advance width="677"/>
  <unicode hex="0041"/>
  <outline>
    <contour>
      <point x="492" y="18" type="curve" smooth="yes"/>
      <point x="506" y="21"/>
      <point x="519" y="27"/>
      <point x="524" y="47" type="curve" smooth="yes"/>
      <point x="524.707" y="51.2426"/>
      <point x="525.414" y="55.4853"/>
      <point x="525.414" y="60.435" type="curve" smooth="yes"/>
      <point x="525.414" y="62.4853"/>
      <point x="525.293" y="64.6569"/>
      <point x="525" y="67" type="curve" smooth="yes"/>
      <point x="490" y="303" type="line" smooth="yes"/>
      <point x="489" y="307"/>
      <point x="488" y="312"/>
      <point x="484" y="312" type="curve" smooth="yes"/>
      <point x="280" y="312" type="line" smooth="yes"/>
      <point x="274" y="312"/>
      <point x="272" y="308"/>
      <point x="269" y="304" type="curve" smooth="yes"/>
      <point x="128" y="74" type="line" smooth="yes"/>
      <point x="117.606" y="57.8313"/>
      <point x="112.163" y="48.9755"/>
      <point x="112.163" y="35.105" type="curve" smooth="yes"/>
      <point x="112.163" y="22.8776"/>
      <point x="121.714" y="19.5714"/>
      <point x="132" y="17" type="curve" smooth="yes"/>
      <point x="139" y="16"/>
      <point x="146" y="16"/>
      <point x="153" y="16" type="curve"/>
      <point x="149" y="0" type="line"/>
      <point x="12" y="0" type="line"/>
      <point x="15" y="16" type="line"/>
      <point x="22" y="16"/>
      <point x="30" y="17"/>
      <point x="38" y="18" type="curve" smooth="yes"/>
      <point x="53" y="22"/>
      <point x="63" y="38"/>
      <point x="74" y="55" type="curve"/>
      <point x="475" y="711" type="line"/>
      <point x="488" y="721"/>
      <point x="494" y="719"/>
      <point x="508" y="730" type="curve"/>
      <point x="609" y="36" type="line" smooth="yes"/>
      <point x="611" y="26"/>
      <point x="614" y="20"/>
      <point x="622" y="18" type="curve" smooth="yes"/>
      <point x="629" y="17"/>
      <point x="638" y="16"/>
      <point x="645" y="16" type="curve"/>
      <point x="641" y="0" type="line"/>
      <point x="464" y="0" type="line"/>
      <point x="468" y="16" type="line"/>
      <point x="476" y="16"/>
      <point x="484" y="17"/>
    </contour>
    <contour>
      <point x="298" y="351" type="line" smooth="yes"/>
      <point x="297.225" y="349.73"/>
      <point x="294.745" y="346.633"/>
      <point x="294.745" y="344.549" type="curve" smooth="yes"/>
      <point x="294.745" y="342.373"/>
      <point x="296.686" y="341"/>
      <point x="300" y="341" type="curve" smooth="yes"/>
      <point x="468" y="341" type="line"/>
      <point x="475" y="341" type="line" smooth="yes"/>
      <point x="479" y="341"/>
      <point x="482" y="343"/>
      <point x="483" y="346" type="curve" smooth="yes"/>
      <point x="483" y="347"/>
      <point x="482" y="354"/>
      <point x="482" y="354" type="curve" smooth="yes"/>
      <point x="446" y="593" type="line"/>
    </contour>
  </outline>
</glyph>
<glyph name="B" format="1">
  <advance width="588"/>
  <unicode hex="0042"/>
  <outline>
    <contour>
      <point x="118" y="50" type="line" smooth="yes"/>
      <point x="117.377" y="46.5703"/>
      <point x="117.093" y="43.6035"/>
      <point x="117.093" y="41.0371" type="curve" smooth="yes"/>
      <point x="117.093" y="27.1377"/>
      <point x="125.403" y="25"/>
      <point x="133" y="25" type="curve" smooth="yes"/>
      <point x="148" y="25"/>
      <point x="163" y="24"/>
      <point x="178" y="24" type="curve" smooth="yes"/>
      <point x="342.202" y="24"/>
      <point x="415.714" y="114.484"/>
      <point x="415.714" y="241.546" type="curve" smooth="yes"/>
      <point x="415.714" y="322.871"/>
      <point x="325" y="358"/>
      <point x="244" y="358" type="curve" smooth="yes"/>
      <point x="223" y="358"/>
      <point x="189" y="356"/>
      <point x="189" y="356" type="curve"/>
    </contour>
    <contour>
      <point x="339" y="384" type="curve"/>
      <point x="408.702" y="380.515"/>
      <point x="492.827" y="334.52"/>
      <point x="492.827" y="233.446" type="curve" smooth="yes"/>
      <point x="492.827" y="67.4688"/>
      <point x="356.685" y="-2"/>
      <point x="245" y="-2" type="curve" smooth="yes"/>
      <point x="180" y="-2"/>
      <point x="150" y="0"/>
      <point x="57" y="0" type="curve" smooth="yes"/>
      <point x="-17" y="0" type="line"/>
      <point x="-13" y="16" type="line"/>
      <point x="-5" y="16"/>
      <point x="2" y="16"/>
      <point x="10" y="18" type="curve" smooth="yes"/>
      <point x="29" y="22"/>
      <point x="40" y="36"/>
      <point x="43" y="49" type="curve" smooth="yes"/>
      <point x="72" y="167"/>
      <point x="100" y="285"/>
      <point x="127" y="403" type="curve" smooth="yes"/>
      <point x="147" y="491"/>
      <point x="186" y="668"/>
      <point x="186" y="668" type="curve" smooth="yes"/>
      <point x="186.878" y="672.171"/>
      <point x="187.322" y="676.391"/>
      <point x="187.322" y="680.489" type="curve" smooth="yes"/>
      <point x="187.322" y="695.059"/>
      <point x="181.707" y="708.098"/>
      <point x="170" y="712" type="curve" smooth="yes"/>
      <point x="163" y="714"/>
      <point x="156" y="714"/>
      <point x="148" y="714" type="curve"/>
      <point x="152" y="730" type="line"/>
      <point x="160" y="730"/>
      <point x="168" y="730"/>
      <point x="176" y="730" type="curve" smooth="yes"/>
      <point x="236" y="730"/>
      <point x="286" y="734"/>
      <point x="345" y="734" type="curve" smooth="yes"/>
      <point x="459.598" y="734"/>
      <point x="526.712" y="674.457"/>
      <point x="526.712" y="589.396" type="curve" smooth="yes"/>
      <point x="526.712" y="476.739"/>
      <point x="436.546" y="403.509"/>
    </contour>
    <contour>
      <point x="457.07" y="596.515" type="curve" smooth="yes"/>
      <point x="457.07" y="663.26"/>
      <point x="416.079" y="704"/>
      <point x="327" y="704" type="curve" smooth="yes"/>
      <point x="312" y="704"/>
      <point x="283" y="702"/>
      <point x="282" y="702" type="curve" smooth="yes"/>
      <point x="271" y="701"/>
      <point x="265" y="696"/>
      <point x="262" y="685" type="curve"/>
      <point x="226" y="522" type="line"/>
      <point x="197" y="395" type="line"/>
      <point x="209" y="395"/>
      <point x="225" y="395"/>
      <point x="239" y="395" type="curve" smooth="yes"/>
      <point x="359.978" y="395"/>
      <point x="457.07" y="470.013"/>
    </contour>
  </outline>
</glyph>
<glyph name="C" format="1">
  <advance width="708"/>
  <unicode hex="0043"/>
  <outline>
    <contour>
      <point x="689.392" y="657" type="curve" smooth="yes"/>
      <point x="712.392" y="657"/>
      <point x="716.392" y="684"/>
      <point x="728.392" y="684" type="curve" smooth="yes"/>
      <point x="733.962" y="684"/>
      <point x="737" y="681.467"/>
      <point x="737" y="677.399" type="curve" smooth="yes"/>
      <point x="737" y="676.1"/>
      <point x="736.8" y="673.633"/>
      <point x="736.392" y="672" type="curve" smooth="yes"/>
      <point x="694.392" y="471" type="line"/>
      <point x="694.392" y="471"/>
      <point x="687.392" y="467"/>
      <point x="685.392" y="467" type="curve" smooth="yes"/>
      <point x="679.392" y="467"/>
      <point x="676.392" y="469"/>
      <point x="676.392" y="472" type="curve" smooth="yes"/>
      <point x="676.392" y="573"/>
      <point x="632.392" y="705"/>
      <point x="472.392" y="705" type="curve" smooth="yes"/>
      <point x="252.531" y="705"/>
      <point x="140.699" y="445.361"/>
      <point x="140.699" y="234.491" type="curve" smooth="yes"/>
      <point x="140.699" y="45.4763"/>
      <point x="264.573" y="32"/>
      <point x="320.392" y="32" type="curve" smooth="yes"/>
      <point x="489.392" y="32"/>
      <point x="609.392" y="181"/>
      <point x="610.392" y="186" type="curve"/>
      <point x="631.392" y="178" type="line"/>
      <point x="631.392" y="178"/>
      <point x="526.392" y="-10"/>
      <point x="313.392" y="-10" type="curve" smooth="yes"/>
      <point x="213.113" y="-10"/>
      <point x="50.3899" y="36.5722"/>
      <point x="50.3899" y="239.674" type="curve" smooth="yes"/>
      <point x="50.3899" y="504.247"/>
      <point x="231.8" y="742"/>
      <point x="494.392" y="742" type="curve" smooth="yes"/>
      <point x="620.392" y="742"/>
      <point x="658.392" y="657"/>
    </contour>
  </outline>
</glyph>
<glyph name="D" format="1">
  <advance width="735"/>
  <unicode hex="0044"/>
  <outline>
    <contour>
      <point x="176" y="712" type="curve" smooth="yes"/>
      <point x="169" y="714"/>
      <point x="162" y="714"/>
      <point x="154" y="714" type="curve"/>
      <point x="158" y="730" type="line"/>
      <point x="288" y="730" type="line"/>
      <point x="337" y="730"/>
      <point x="386" y="731"/>
      <point x="434" y="731" type="curve" smooth="yes"/>
      <point x="583.803" y="731"/>
      <point x="701.024" y="643.175"/>
      <point x="701.024" y="469.908" type="curve" smooth="yes"/>
      <point x="701.024" y="170.801"/>
      <point x="482.196" y="-3"/>
      <point x="255" y="-3" type="curve" smooth="yes"/>
      <point x="247" y="-3" type="line" smooth="yes"/>
      <point x="236" y="-3"/>
      <point x="214" y="-2"/>
      <point x="214" y="-2" type="curve"/>
      <point x="214" y="-2"/>
      <point x="123" y="0"/>
      <point x="107" y="0" type="curve" smooth="yes"/>
      <point x="-11" y="0" type="line"/>
      <point x="-7" y="16" type="line"/>
      <point x="1" y="16"/>
      <point x="8" y="16"/>
      <point x="16" y="18" type="curve" smooth="yes"/>
      <point x="35" y="22"/>
      <point x="46" y="36"/>
      <point x="49" y="49" type="curve"/>
      <point x="78" y="167"/>
      <point x="106" y="284"/>
      <point x="133" y="402" type="curve" smooth="yes"/>
      <point x="155" y="495"/>
      <point x="175" y="589"/>
      <point x="195" y="682" type="curve" smooth="yes"/>
      <point x="195.538" y="684.333"/>
      <point x="195.819" y="686.666"/>
      <point x="195.819" y="688.946" type="curve" smooth="yes"/>
      <point x="195.819" y="699.376"/>
      <point x="189.949" y="708.718"/>
    </contour>
    <contour>
      <point x="276" y="679" type="line" smooth="yes"/>
      <point x="228" y="469"/>
      <point x="130" y="50"/>
      <point x="130" y="50" type="curve"/>
      <point x="129.205" y="45.7617"/>
      <point x="128.762" y="42.3652"/>
      <point x="128.762" y="39.6436" type="curve" smooth="yes"/>
      <point x="128.762" y="32.0908"/>
      <point x="132.179" y="29.7354"/>
      <point x="141" y="29" type="curve"/>
      <point x="220" y="30" type="line" smooth="yes"/>
      <point x="220" y="30"/>
      <point x="232" y="30"/>
      <point x="238" y="30" type="curve" smooth="yes"/>
      <point x="490.101" y="30"/>
      <point x="618.737" y="245.805"/>
      <point x="618.737" y="482.958" type="curve" smooth="yes"/>
      <point x="618.737" y="646.831"/>
      <point x="516.161" y="696"/>
      <point x="389" y="696" type="curve" smooth="yes"/>
      <point x="380" y="696"/>
      <point x="342" y="696"/>
      <point x="324" y="696" type="curve" smooth="yes"/>
      <point x="315" y="696"/>
      <point x="291" y="696"/>
      <point x="291" y="696" type="curve" smooth="yes"/>
      <point x="284" y="696"/>
      <point x="278" y="690"/>
      <point x="277" y="684" type="curve" smooth="yes"/>
    </contour>
  </outline>
</glyph>
<glyph name="E" format="1">
  <advance width="590"/>
  <unicode hex="0045"/>
  <outline>
    <contour>
      <point x="416.195" y="373" type="curve" smooth="yes"/>
      <point x="389.384" y="377.373"/>
      <point x="362.195" y="379"/>
      <point x="331.195" y="379" type="curve" smooth="yes"/>
      <point x="300.195" y="379"/>
      <point x="260.195" y="376"/>
      <point x="233.195" y="373" type="curve"/>
      <point x="163.195" y="55" type="line" smooth="yes"/>
      <point x="162.657" y="52.667"/>
      <point x="162.376" y="50.2373"/>
      <point x="162.376" y="47.8096" type="curve" smooth="yes"/>
      <point x="162.376" y="36.708"/>
      <point x="168.246" y="25.6406"/>
      <point x="182.195" y="24" type="curve" smooth="yes"/>
      <point x="199.195" y="22"/>
      <point x="208.195" y="21"/>
      <point x="225.195" y="21" type="curve" smooth="yes"/>
      <point x="283.195" y="21"/>
      <point x="330.195" y="22"/>
      <point x="372.195" y="32" type="curve" smooth="yes"/>
      <point x="432.195" y="47"/>
      <point x="464.195" y="79"/>
      <point x="490.195" y="139" type="curve"/>
      <point x="506.195" y="140" type="line"/>
      <point x="457.195" y="0" type="line"/>
      <point x="199.195" y="0" type="line" smooth="yes"/>
      <point x="10.1953" y="0" type="line"/>
      <point x="14.1953" y="16" type="line"/>
      <point x="24.1953" y="16"/>
      <point x="33.1953" y="16"/>
      <point x="43.1953" y="18" type="curve" smooth="yes"/>
      <point x="62.1953" y="22"/>
      <point x="73.1953" y="36"/>
      <point x="76.1953" y="49" type="curve"/>
      <point x="82.1953" y="67"/>
      <point x="124.195" y="247"/>
      <point x="162.195" y="411" type="curve" smooth="yes"/>
      <point x="191.195" y="538"/>
      <point x="218.195" y="656"/>
      <point x="222.195" y="682" type="curve" smooth="yes"/>
      <point x="222.733" y="684.333"/>
      <point x="223.015" y="686.666"/>
      <point x="223.015" y="688.946" type="curve" smooth="yes"/>
      <point x="223.015" y="699.376"/>
      <point x="217.145" y="708.718"/>
      <point x="203.195" y="712" type="curve" smooth="yes"/>
      <point x="196.195" y="714"/>
      <point x="189.195" y="714"/>
      <point x="181.195" y="714" type="curve"/>
      <point x="185.195" y="730" type="line"/>
      <point x="375.195" y="730" type="line"/>
      <point x="594.195" y="730" type="line"/>
      <point x="577.195" y="590" type="line"/>
      <point x="563.195" y="591" type="line"/>
      <point x="563.281" y="593.592"/>
      <point x="563.325" y="596.124"/>
      <point x="563.325" y="598.598" type="curve" smooth="yes"/>
      <point x="563.325" y="653.402"/>
      <point x="541.992" y="679.82"/>
      <point x="493.195" y="698" type="curve" smooth="yes"/>
      <point x="465.195" y="708"/>
      <point x="430.195" y="709"/>
      <point x="386.195" y="709" type="curve" smooth="yes"/>
      <point x="367.195" y="709"/>
      <point x="358.195" y="708"/>
      <point x="339.195" y="706" type="curve" smooth="yes"/>
      <point x="323.195" y="704"/>
      <point x="311.195" y="693"/>
      <point x="308.195" y="681" type="curve" smooth="yes"/>
      <point x="243.195" y="413" type="line"/>
      <point x="270.195" y="411"/>
      <point x="308.195" y="408"/>
      <point x="338.195" y="408" type="curve" smooth="yes"/>
      <point x="373.195" y="408"/>
      <point x="399.195" y="411"/>
      <point x="428.195" y="414" type="curve" smooth="yes"/>
      <point x="440.195" y="417"/>
      <point x="453.195" y="427"/>
      <point x="460.195" y="442" type="curve" smooth="yes"/>
      <point x="464.195" y="451"/>
      <point x="467.195" y="466"/>
      <point x="468.195" y="467" type="curve"/>
      <point x="482.195" y="467" type="line"/>
      <point x="448.195" y="319" type="line"/>
      <point x="434.195" y="319" type="line" smooth="yes"/>
      <point x="434.056" y="319.14"/>
      <point x="433.994" y="319.475"/>
      <point x="433.994" y="319.979" type="curve" smooth="yes"/>
      <point x="433.994" y="323.056"/>
      <point x="437.377" y="336.228"/>
      <point x="437.377" y="346.229" type="curve" smooth="yes"/>
      <point x="437.377" y="361.199"/>
      <point x="427.703" y="371.123"/>
    </contour>
  </outline>
</glyph>
<glyph name="F" format="1">
  <advance width="580"/>
  <unicode hex="0046"/>
  <outline>
    <contour>
      <point x="331" y="706" type="curve" smooth="yes"/>
      <point x="312" y="704"/>
      <point x="301" y="689"/>
      <point x="298" y="676" type="curve" smooth="yes"/>
      <point x="231" y="394" type="line"/>
      <point x="267.046" y="391.33"/>
      <point x="312.654" y="389.926"/>
      <point x="351.51" y="389.926" type="curve" smooth="yes"/>
      <point x="395.08" y="389.926"/>
      <point x="433.209" y="392.306"/>
      <point x="448" y="424" type="curve" smooth="yes"/>
      <point x="452" y="433"/>
      <point x="455" y="448"/>
      <point x="456" y="449" type="curve" smooth="yes"/>
      <point x="470" y="449" type="line"/>
      <point x="436" y="301" type="line"/>
      <point x="422" y="301" type="line" smooth="yes"/>
      <point x="421.86" y="301.14"/>
      <point x="421.799" y="301.475"/>
      <point x="421.799" y="301.979" type="curve" smooth="yes"/>
      <point x="421.799" y="305.023"/>
      <point x="425.182" y="317.267"/>
      <point x="425.182" y="328.229" type="curve" smooth="yes"/>
      <point x="425.182" y="343.199"/>
      <point x="416.652" y="352.969"/>
      <point x="404" y="355" type="curve" smooth="yes"/>
      <point x="377.508" y="359.254"/>
      <point x="350" y="361"/>
      <point x="319" y="361" type="curve" smooth="yes"/>
      <point x="288" y="361"/>
      <point x="249" y="358"/>
      <point x="222" y="355" type="curve"/>
      <point x="212" y="318" type="line"/>
      <point x="154" y="48" type="line" smooth="yes"/>
      <point x="153.444" y="45.5908"/>
      <point x="153.163" y="43.25"/>
      <point x="153.163" y="41.0029" type="curve" smooth="yes"/>
      <point x="153.163" y="31.1279"/>
      <point x="158.595" y="23.0732"/>
      <point x="170" y="19" type="curve" smooth="yes"/>
      <point x="176.667" y="16.333"/>
      <point x="182.889" y="15.8887"/>
      <point x="189.556" y="15.8887" type="curve" smooth="yes"/>
      <point x="192.889" y="15.8887"/>
      <point x="196.333" y="16"/>
      <point x="200" y="16" type="curve"/>
      <point x="197" y="0" type="line"/>
      <point x="13" y="0" type="line"/>
      <point x="17" y="16" type="line"/>
      <point x="25" y="16"/>
      <point x="32" y="16"/>
      <point x="40" y="18" type="curve" smooth="yes"/>
      <point x="59" y="22"/>
      <point x="70" y="35"/>
      <point x="73" y="48" type="curve"/>
      <point x="79" y="67"/>
      <point x="119" y="237"/>
      <point x="156" y="396" type="curve" smooth="yes"/>
      <point x="187.173" y="529.96"/>
      <point x="218" y="676"/>
      <point x="218" y="676" type="curve" smooth="yes"/>
      <point x="218.538" y="678.333"/>
      <point x="219.819" y="686.666"/>
      <point x="219.819" y="688.946" type="curve" smooth="yes"/>
      <point x="219.819" y="699.376"/>
      <point x="213.949" y="708.718"/>
      <point x="200" y="712" type="curve" smooth="yes"/>
      <point x="191" y="714"/>
      <point x="182" y="714"/>
      <point x="172" y="714" type="curve"/>
      <point x="176" y="730" type="line"/>
      <point x="613" y="730" type="line"/>
      <point x="597" y="590" type="line"/>
      <point x="582" y="591" type="line"/>
      <point x="582.099" y="593.945"/>
      <point x="582.148" y="596.824"/>
      <point x="582.148" y="599.636" type="curve" smooth="yes"/>
      <point x="582.148" y="654.102"/>
      <point x="563.397" y="683.736"/>
      <point x="513" y="698" type="curve" smooth="yes"/>
      <point x="477" y="708"/>
      <point x="434" y="709"/>
      <point x="379" y="709" type="curve" smooth="yes"/>
      <point x="360" y="709"/>
      <point x="350" y="708"/>
    </contour>
  </outline>
</glyph>
<glyph name="G" format="1">
  <advance width="732"/>
  <unicode hex="0047"/>
  <outline>
    <contour>
      <point x="661.811" y="283" type="curve" smooth="yes"/>
      <point x="642.811" y="279"/>
      <point x="630.811" y="266"/>
      <point x="627.811" y="253" type="curve" smooth="yes"/>
      <point x="605.811" y="166" type="line"/>
      <point x="599.811" y="141"/>
      <point x="592.811" y="136"/>
      <point x="573.811" y="114" type="curve" smooth="yes"/>
      <point x="525.811" y="59"/>
      <point x="417.811" y="-10"/>
      <point x="291.811" y="-10" type="curve" smooth="yes"/>
      <point x="195.239" y="-10"/>
      <point x="28.0381" y="36.0947"/>
      <point x="28.0381" y="241.11" type="curve" smooth="yes"/>
      <point x="28.0381" y="505.044"/>
      <point x="209.891" y="742"/>
      <point x="471.811" y="742" type="curve" smooth="yes"/>
      <point x="597.811" y="742"/>
      <point x="635.811" y="657"/>
      <point x="666.811" y="657" type="curve" smooth="yes"/>
      <point x="690.811" y="657"/>
      <point x="693.811" y="684"/>
      <point x="706.811" y="684" type="curve" smooth="yes"/>
      <point x="712.049" y="684"/>
      <point x="715" y="680.189"/>
      <point x="715" y="675.229" type="curve" smooth="yes"/>
      <point x="715" y="674.508"/>
      <point x="714.938" y="673.762"/>
      <point x="714.811" y="673" type="curve" smooth="yes"/>
      <point x="671.811" y="471" type="line"/>
      <point x="671.811" y="471"/>
      <point x="663.811" y="467"/>
      <point x="661.811" y="467" type="curve" smooth="yes"/>
      <point x="655.811" y="467"/>
      <point x="653.811" y="469"/>
      <point x="653.811" y="472" type="curve" smooth="yes"/>
      <point x="653.811" y="573"/>
      <point x="609.811" y="705"/>
      <point x="449.811" y="705" type="curve" smooth="yes"/>
      <point x="231.167" y="705"/>
      <point x="117.694" y="448.265"/>
      <point x="117.694" y="238.27" type="curve" smooth="yes"/>
      <point x="117.694" y="45.6553"/>
      <point x="247.622" y="32"/>
      <point x="303.811" y="32" type="curve" smooth="yes"/>
      <point x="387.811" y="32"/>
      <point x="516.811" y="95"/>
      <point x="533.811" y="168" type="curve"/>
      <point x="551.811" y="253" type="line" smooth="yes"/>
      <point x="552.349" y="255.333"/>
      <point x="552.63" y="257.666"/>
      <point x="552.63" y="259.946" type="curve" smooth="yes"/>
      <point x="552.63" y="270.376"/>
      <point x="546.76" y="279.718"/>
      <point x="532.811" y="283" type="curve" smooth="yes"/>
      <point x="525.811" y="285"/>
      <point x="518.811" y="286"/>
      <point x="510.811" y="286" type="curve"/>
      <point x="513.811" y="302" type="line"/>
      <point x="688.811" y="302" type="line"/>
      <point x="684.811" y="286" type="line"/>
      <point x="676.811" y="286"/>
      <point x="669.811" y="285"/>
    </contour>
  </outline>
</glyph>
<glyph name="I" format="1">
  <advance width="309"/>
  <unicode hex="0049"/>
  <outline>
    <contour>
      <point x="138" y="18" type="curve" smooth="yes"/>
      <point x="145" y="16"/>
      <point x="152" y="16"/>
      <point x="160" y="16" type="curve"/>
      <point x="156" y="0" type="line"/>
      <point x="-22" y="0" type="line"/>
      <point x="-18" y="16" type="line"/>
      <point x="-10" y="16"/>
      <point x="-3" y="16"/>
      <point x="5" y="18" type="curve" smooth="yes"/>
      <point x="24" y="22"/>
      <point x="35" y="36"/>
      <point x="38" y="49" type="curve" smooth="yes"/>
      <point x="66" y="164"/>
      <point x="92" y="279"/>
      <point x="119" y="394" type="curve" smooth="yes"/>
      <point x="141" y="490"/>
      <point x="163" y="586"/>
      <point x="184" y="682" type="curve" smooth="yes"/>
      <point x="184.538" y="684.333"/>
      <point x="184.819" y="686.666"/>
      <point x="184.819" y="688.946" type="curve" smooth="yes"/>
      <point x="184.819" y="699.376"/>
      <point x="178.949" y="708.718"/>
      <point x="165" y="712" type="curve" smooth="yes"/>
      <point x="158" y="714"/>
      <point x="151" y="714"/>
      <point x="143" y="714" type="curve"/>
      <point x="147" y="730" type="line"/>
      <point x="325" y="730" type="line"/>
      <point x="321" y="714" type="line"/>
      <point x="313" y="714"/>
      <point x="305.121" y="713.433"/>
      <point x="297" y="712" type="curve" smooth="yes"/>
      <point x="280" y="709"/>
      <point x="268" y="696"/>
      <point x="265" y="683" type="curve" smooth="yes"/>
      <point x="241" y="587"/>
      <point x="218" y="490"/>
      <point x="196" y="394" type="curve" smooth="yes"/>
      <point x="169" y="279"/>
      <point x="144" y="164"/>
      <point x="119" y="49" type="curve" smooth="yes"/>
      <point x="118.505" y="46.8535"/>
      <point x="118.255" y="44.6787"/>
      <point x="118.255" y="42.5264" type="curve" smooth="yes"/>
      <point x="118.255" y="31.6484"/>
      <point x="124.643" y="21.3398"/>
    </contour>
  </outline>
</glyph>
<glyph name="J" format="1">
  <advance width="258"/>
  <unicode hex="004A"/>
  <outline>
    <contour>
      <point x="154" y="712" type="curve" smooth="yes"/>
      <point x="144.921" y="713.603"/>
      <point x="135" y="714"/>
      <point x="125" y="714" type="curve"/>
      <point x="128" y="730" type="line"/>
      <point x="315" y="730" type="line"/>
      <point x="311" y="714" type="line"/>
      <point x="303" y="714"/>
      <point x="294" y="714"/>
      <point x="286" y="712" type="curve" smooth="yes"/>
      <point x="268" y="708"/>
      <point x="256" y="696"/>
      <point x="253" y="683" type="curve" smooth="yes"/>
      <point x="238" y="622"/>
      <point x="216" y="526"/>
      <point x="193" y="427" type="curve" smooth="yes"/>
      <point x="152" y="248"/>
      <point x="109" y="59"/>
      <point x="104" y="36" type="curve"/>
      <point x="72" y="-100"/>
      <point x="-31" y="-175"/>
      <point x="-187" y="-180" type="curve"/>
      <point x="-181" y="-154" type="line"/>
      <point x="-49" y="-116"/>
      <point x="-4" y="-75"/>
      <point x="33" y="80" type="curve" smooth="yes"/>
      <point x="40" y="108"/>
      <point x="84" y="296"/>
      <point x="124" y="469" type="curve" smooth="yes"/>
      <point x="142" y="549"/>
      <point x="160" y="626"/>
      <point x="172" y="682" type="curve" smooth="yes"/>
      <point x="172.538" y="684.333"/>
      <point x="172.819" y="686.698"/>
      <point x="172.819" y="689.025" type="curve" smooth="yes"/>
      <point x="172.819" y="699.67"/>
      <point x="167.949" y="709.538"/>
    </contour>
  </outline>
</glyph>
<glyph name="K" format="1">
  <advance width="591"/>
  <unicode hex="004B"/>
  <outline>
    <contour>
      <point x="186" y="18" type="curve" smooth="yes"/>
      <point x="193" y="17"/>
      <point x="201" y="16"/>
      <point x="208" y="16" type="curve"/>
      <point x="204" y="0" type="line"/>
      <point x="22" y="0" type="line"/>
      <point x="26" y="16" type="line"/>
      <point x="33" y="16"/>
      <point x="41" y="17"/>
      <point x="49" y="18" type="curve" smooth="yes"/>
      <point x="68" y="22"/>
      <point x="79" y="35"/>
      <point x="82" y="49" type="curve" smooth="yes"/>
      <point x="111" y="167"/>
      <point x="138" y="285"/>
      <point x="165" y="403" type="curve" smooth="yes"/>
      <point x="186" y="496"/>
      <point x="207" y="589"/>
      <point x="226" y="682" type="curve" smooth="yes"/>
      <point x="226.538" y="684.333"/>
      <point x="226.819" y="686.666"/>
      <point x="226.819" y="688.947" type="curve" smooth="yes"/>
      <point x="226.819" y="699.376"/>
      <point x="220.949" y="708.718"/>
      <point x="207" y="712" type="curve" smooth="yes"/>
      <point x="200" y="714"/>
      <point x="192" y="714"/>
      <point x="185" y="714" type="curve"/>
      <point x="189" y="730" type="line"/>
      <point x="200" y="730"/>
      <point x="308" y="730"/>
      <point x="368" y="730" type="curve"/>
      <point x="365" y="714" type="line"/>
      <point x="358" y="714"/>
      <point x="350" y="714"/>
      <point x="342" y="712" type="curve" smooth="yes"/>
      <point x="323" y="708"/>
      <point x="312" y="696"/>
      <point x="309" y="683" type="curve" smooth="yes"/>
      <point x="241" y="388" type="line"/>
      <point x="262" y="395"/>
      <point x="281" y="407"/>
      <point x="314" y="443" type="curve" smooth="yes"/>
      <point x="513" y="656" type="line" smooth="yes"/>
      <point x="531.734" y="675.775"/>
      <point x="541.543" y="688.059"/>
      <point x="541.543" y="699.726" type="curve" smooth="yes"/>
      <point x="541.543" y="707.726"/>
      <point x="532.97" y="711.672"/>
      <point x="525" y="713" type="curve" smooth="yes"/>
      <point x="519" y="714"/>
      <point x="512" y="714"/>
      <point x="504" y="714" type="curve"/>
      <point x="508" y="730" type="line"/>
      <point x="648" y="730" type="line"/>
      <point x="644" y="714" type="line"/>
      <point x="637" y="714"/>
      <point x="629" y="713"/>
      <point x="620" y="711" type="curve" smooth="yes"/>
      <point x="605" y="708"/>
      <point x="592" y="694"/>
      <point x="577" y="678" type="curve" smooth="yes"/>
      <point x="338" y="418" type="line"/>
      <point x="359" y="372" type="line"/>
      <point x="425" y="236"/>
      <point x="487" y="100"/>
      <point x="513" y="39" type="curve" smooth="yes"/>
      <point x="517.913" y="27.4734"/>
      <point x="525" y="21"/>
      <point x="534" y="18" type="curve" smooth="yes"/>
      <point x="542" y="17"/>
      <point x="553" y="16"/>
      <point x="560" y="16" type="curve"/>
      <point x="556" y="0" type="line"/>
      <point x="368" y="0" type="line"/>
      <point x="371" y="16" type="line"/>
      <point x="378" y="16"/>
      <point x="384" y="17"/>
      <point x="391" y="18" type="curve" smooth="yes"/>
      <point x="404.573" y="20.4678"/>
      <point x="416.937" y="26.3809"/>
      <point x="416.937" y="44.1191" type="curve" smooth="yes"/>
      <point x="416.937" y="51.0273"/>
      <point x="414.183" y="59.5416"/>
      <point x="410" y="70" type="curve" smooth="yes"/>
      <point x="364.567" y="167.567"/>
      <point x="319.351" y="265.351"/>
      <point x="274" y="363" type="curve"/>
      <point x="261" y="349"/>
      <point x="245" y="342"/>
      <point x="231" y="338" type="curve"/>
      <point x="167" y="49" type="line" smooth="yes"/>
      <point x="166.462" y="46.4877"/>
      <point x="166.181" y="44.0076"/>
      <point x="166.181" y="41.606" type="curve" smooth="yes"/>
      <point x="166.181" y="30.6241"/>
      <point x="172.051" y="21.2822"/>
    </contour>
  </outline>
</glyph>
<glyph name="L" format="1">
  <advance width="516"/>
  <unicode hex="004C"/>
  <outline>
    <contour>
      <point x="149" y="24" type="curve" smooth="yes"/>
      <point x="167" y="22"/>
      <point x="176" y="21"/>
      <point x="195" y="21" type="curve"/>
      <point x="252" y="21"/>
      <point x="297" y="22"/>
      <point x="339" y="32" type="curve" smooth="yes"/>
      <point x="399" y="47"/>
      <point x="431" y="79"/>
      <point x="457" y="139" type="curve"/>
      <point x="473" y="140" type="line"/>
      <point x="424" y="0" type="line"/>
      <point x="-18" y="0" type="line"/>
      <point x="-14" y="16" type="line"/>
      <point x="-4" y="16"/>
      <point x="5" y="16"/>
      <point x="15" y="18" type="curve" smooth="yes"/>
      <point x="34" y="22"/>
      <point x="45" y="36"/>
      <point x="48" y="49" type="curve" smooth="yes"/>
      <point x="77" y="167"/>
      <point x="105" y="285"/>
      <point x="132" y="403" type="curve" smooth="yes"/>
      <point x="153" y="496"/>
      <point x="174" y="589"/>
      <point x="194" y="682" type="curve" smooth="yes"/>
      <point x="194.538" y="684.333"/>
      <point x="194.819" y="686.666"/>
      <point x="194.819" y="688.946" type="curve" smooth="yes"/>
      <point x="194.819" y="699.376"/>
      <point x="188.949" y="708.718"/>
      <point x="176" y="712" type="curve" smooth="yes"/>
      <point x="168.943" y="713.789"/>
      <point x="161" y="714"/>
      <point x="153" y="714" type="curve"/>
      <point x="157" y="730" type="line"/>
      <point x="342" y="730" type="line"/>
      <point x="338" y="714" type="line"/>
      <point x="334.333" y="714"/>
      <point x="330.777" y="714.111"/>
      <point x="327.223" y="714.111" type="curve" smooth="yes"/>
      <point x="320.111" y="714.111"/>
      <point x="313" y="713.667"/>
      <point x="305" y="711" type="curve" smooth="yes"/>
      <point x="289" y="706"/>
      <point x="278" y="695"/>
      <point x="275" y="682" type="curve" smooth="yes"/>
      <point x="252" y="588"/>
      <point x="229" y="495"/>
      <point x="207" y="401" type="curve" smooth="yes"/>
      <point x="180" y="285"/>
      <point x="154" y="169"/>
      <point x="129" y="53" type="curve" smooth="yes"/>
      <point x="128.509" y="50.8721"/>
      <point x="128.259" y="48.7168"/>
      <point x="128.259" y="46.5928" type="curve" smooth="yes"/>
      <point x="128.259" y="35.7383"/>
      <point x="134.783" y="25.6729"/>
    </contour>
  </outline>
</glyph>
<glyph name="M" format="1">
  <advance width="777"/>
  <unicode hex="004D"/>
  <outline>
    <contour>
      <point x="661.391" y="18" type="curve" smooth="yes"/>
      <point x="669.391" y="16"/>
      <point x="677.391" y="16"/>
      <point x="685.391" y="16" type="curve"/>
      <point x="681.391" y="0" type="line"/>
      <point x="498.391" y="0" type="line"/>
      <point x="502.391" y="16" type="line"/>
      <point x="510.391" y="16"/>
      <point x="517.391" y="16"/>
      <point x="525.391" y="18" type="curve" smooth="yes"/>
      <point x="544.391" y="22"/>
      <point x="555.391" y="36"/>
      <point x="558.391" y="49" type="curve" smooth="yes"/>
      <point x="574.391" y="113"/>
      <point x="588.391" y="177"/>
      <point x="603.391" y="241" type="curve" smooth="yes"/>
      <point x="622.391" y="322"/>
      <point x="642.391" y="406"/>
      <point x="661.391" y="488" type="curve" smooth="yes"/>
      <point x="671.391" y="530"/>
      <point x="680.391" y="571"/>
      <point x="689.391" y="611" type="curve"/>
      <point x="355.391" y="146" type="line" smooth="yes"/>
      <point x="351.391" y="140"/>
      <point x="344.391" y="129"/>
      <point x="338.391" y="129" type="curve" smooth="yes"/>
      <point x="334.391" y="129"/>
      <point x="329.759" y="135.45"/>
      <point x="328.391" y="142" type="curve" smooth="yes"/>
      <point x="328.391" y="142"/>
      <point x="239.391" y="569"/>
      <point x="230.391" y="611" type="curve"/>
      <point x="83.3906" y="53" type="line" smooth="yes"/>
      <point x="83.1445" y="51.3994"/>
      <point x="82.0195" y="44.7988"/>
      <point x="82.0195" y="43.2158" type="curve" smooth="yes"/>
      <point x="82.0195" y="31.9355"/>
      <point x="88.3604" y="21.5078"/>
      <point x="102.391" y="18" type="curve" smooth="yes"/>
      <point x="109.391" y="16"/>
      <point x="116.391" y="16"/>
      <point x="124.391" y="16" type="curve"/>
      <point x="120.391" y="0" type="line"/>
      <point x="-16.6094" y="0" type="line"/>
      <point x="-12.6094" y="16" type="line"/>
      <point x="-4.60938" y="16"/>
      <point x="2.39062" y="16"/>
      <point x="10.3906" y="18" type="curve" smooth="yes"/>
      <point x="29.3906" y="22"/>
      <point x="40.3906" y="39"/>
      <point x="44.3906" y="52" type="curve" smooth="yes"/>
      <point x="100.391" y="260"/>
      <point x="153.391" y="467"/>
      <point x="206.391" y="678" type="curve" smooth="yes"/>
      <point x="207.155" y="680.954"/>
      <point x="208.216" y="684.414"/>
      <point x="208.216" y="687.191" type="curve" smooth="yes"/>
      <point x="208.216" y="698.078"/>
      <point x="202.489" y="708.726"/>
      <point x="189.391" y="712" type="curve" smooth="yes"/>
      <point x="182.391" y="714"/>
      <point x="175.391" y="714"/>
      <point x="167.391" y="714" type="curve"/>
      <point x="170.391" y="730" type="line"/>
      <point x="297.391" y="730" type="line"/>
      <point x="402.391" y="263" type="line"/>
      <point x="726.391" y="730" type="line"/>
      <point x="845.391" y="730" type="line"/>
      <point x="842.391" y="714" type="line"/>
      <point x="834.391" y="714"/>
      <point x="824.391" y="714"/>
      <point x="816.391" y="712" type="curve" smooth="yes"/>
      <point x="798.391" y="709"/>
      <point x="788.391" y="700"/>
      <point x="784.391" y="683" type="curve" smooth="yes"/>
      <point x="769.78" y="620.907"/>
      <point x="754.391" y="559"/>
      <point x="740.391" y="497" type="curve" smooth="yes"/>
      <point x="705.391" y="346"/>
      <point x="673.391" y="196"/>
      <point x="642.391" y="47" type="curve" smooth="yes"/>
      <point x="642.391" y="47"/>
      <point x="641.646" y="42.7334"/>
      <point x="641.646" y="40.6729" type="curve" smooth="yes"/>
      <point x="641.646" y="30.2549"/>
      <point x="648.033" y="21.3398"/>
    </contour>
  </outline>
</glyph>
<glyph name="N" format="1">
  <advance width="750"/>
  <unicode hex="004E"/>
  <outline>
    <contour>
      <point x="105" y="18" type="curve" smooth="yes"/>
      <point x="112" y="16"/>
      <point x="121" y="16"/>
      <point x="129" y="16" type="curve"/>
      <point x="125" y="0" type="line"/>
      <point x="-12" y="0" type="line"/>
      <point x="-8" y="16" type="line"/>
      <point x="0" y="16"/>
      <point x="7" y="16"/>
      <point x="15" y="18" type="curve" smooth="yes"/>
      <point x="34" y="22"/>
      <point x="46" y="39"/>
      <point x="49" y="52" type="curve" smooth="yes"/>
      <point x="132" y="399" type="line"/>
      <point x="188" y="679" type="line" smooth="yes"/>
      <point x="188" y="679"/>
      <point x="188.912" y="684.254"/>
      <point x="188.912" y="686.94" type="curve" smooth="yes"/>
      <point x="188.912" y="697.854"/>
      <point x="184.642" y="708.79"/>
      <point x="171" y="712" type="curve" smooth="yes"/>
      <point x="164" y="714"/>
      <point x="156" y="714"/>
      <point x="148" y="714" type="curve"/>
      <point x="152" y="730" type="line"/>
      <point x="255" y="730" type="line"/>
      <point x="597" y="153" type="line"/>
      <point x="718" y="682" type="line" smooth="yes"/>
      <point x="718" y="682"/>
      <point x="718.819" y="686.96"/>
      <point x="718.819" y="689.309" type="curve" smooth="yes"/>
      <point x="718.819" y="700.049"/>
      <point x="712.949" y="708.718"/>
      <point x="699" y="712" type="curve" smooth="yes"/>
      <point x="692" y="714"/>
      <point x="684" y="714"/>
      <point x="676" y="714" type="curve"/>
      <point x="680" y="730" type="line"/>
      <point x="817" y="730" type="line"/>
      <point x="814" y="714" type="line"/>
      <point x="806" y="714"/>
      <point x="797.027" y="713.889"/>
      <point x="789" y="712" type="curve" smooth="yes"/>
      <point x="772" y="708"/>
      <point x="762" y="698"/>
      <point x="758" y="684" type="curve" smooth="yes"/>
      <point x="734" y="590"/>
      <point x="713" y="495"/>
      <point x="691" y="401" type="curve" smooth="yes"/>
      <point x="660" y="267"/>
      <point x="631" y="134"/>
      <point x="602" y="0" type="curve" smooth="yes"/>
      <point x="601" y="-6"/>
      <point x="596" y="-9"/>
      <point x="592" y="-9" type="curve" smooth="yes"/>
      <point x="587" y="-9"/>
      <point x="582" y="0"/>
      <point x="582" y="0" type="curve"/>
      <point x="458" y="209"/>
      <point x="343" y="411"/>
      <point x="219" y="619" type="curve"/>
      <point x="206" y="564"/>
      <point x="194" y="510"/>
      <point x="181" y="455" type="curve" smooth="yes"/>
      <point x="158" y="355"/>
      <point x="135" y="255"/>
      <point x="112" y="155" type="curve" smooth="yes"/>
      <point x="104" y="119"/>
      <point x="95" y="84"/>
      <point x="87" y="48" type="curve" smooth="yes"/>
      <point x="87" y="48"/>
      <point x="86.582" y="44.4258"/>
      <point x="86.582" y="42.6621" type="curve" smooth="yes"/>
      <point x="86.582" y="31.5957"/>
      <point x="91.1992" y="21.4502"/>
    </contour>
  </outline>
</glyph>
<glyph name="O" format="1">
  <advance width="707"/>
  <unicode hex="004F"/>
  <outline>
    <contour>
      <point x="455.109" y="734" type="curve" smooth="yes"/>
      <point x="597.697" y="734"/>
      <point x="703.174" y="645.347"/>
      <point x="703.174" y="476.016" type="curve" smooth="yes"/>
      <point x="703.174" y="181.308"/>
      <point x="451.145" y="-11"/>
      <point x="281.109" y="-11" type="curve" smooth="yes"/>
      <point x="190.831" y="-11"/>
      <point x="28.1077" y="36.3114"/>
      <point x="28.1077" y="239.621" type="curve" smooth="yes"/>
      <point x="28.1077" y="545.285"/>
      <point x="200.672" y="734"/>
    </contour>
    <contour>
      <point x="116.054" y="231.538" type="curve" smooth="yes"/>
      <point x="116.054" y="40.4427"/>
      <point x="240.36" y="27"/>
      <point x="296.109" y="27" type="curve" smooth="yes"/>
      <point x="425.455" y="27"/>
      <point x="624.391" y="183.911"/>
      <point x="624.391" y="497.868" type="curve" smooth="yes"/>
      <point x="624.391" y="612.214"/>
      <point x="573.989" y="699"/>
      <point x="435.109" y="699" type="curve" smooth="yes"/>
      <point x="190.835" y="699"/>
      <point x="116.054" y="394.047"/>
    </contour>
  </outline>
</glyph>
<glyph name="P" format="1">
  <advance width="594"/>
  <unicode hex="0050"/>
  <outline>
    <contour>
      <point x="184" y="18" type="curve" smooth="yes"/>
      <point x="191" y="16"/>
      <point x="199" y="16"/>
      <point x="207" y="16" type="curve"/>
      <point x="204" y="0" type="line"/>
      <point x="26" y="0" type="line"/>
      <point x="29" y="16" type="line"/>
      <point x="37" y="16"/>
      <point x="45" y="16"/>
      <point x="53" y="18" type="curve" smooth="yes"/>
      <point x="72" y="22"/>
      <point x="82" y="36"/>
      <point x="85" y="49" type="curve"/>
      <point x="114" y="167"/>
      <point x="141.425" y="284.134"/>
      <point x="169" y="401" type="curve" smooth="yes"/>
      <point x="228" y="669" type="line" smooth="yes"/>
      <point x="228.957" y="673.546"/>
      <point x="229.456" y="680.149"/>
      <point x="229.456" y="684.591" type="curve" smooth="yes"/>
      <point x="229.456" y="698.712"/>
      <point x="224.411" y="708.196"/>
      <point x="213" y="712" type="curve" smooth="yes"/>
      <point x="206" y="714"/>
      <point x="199" y="714"/>
      <point x="191" y="714" type="curve"/>
      <point x="194" y="730" type="line"/>
      <point x="202" y="730"/>
      <point x="210" y="730"/>
      <point x="218" y="730" type="curve" smooth="yes"/>
      <point x="278" y="730"/>
      <point x="342" y="732"/>
      <point x="401" y="732" type="curve" smooth="yes"/>
      <point x="519.81" y="732"/>
      <point x="610.127" y="688.164"/>
      <point x="610.127" y="572.39" type="curve" smooth="yes"/>
      <point x="610.127" y="376.701"/>
      <point x="428.387" y="282"/>
      <point x="289" y="282" type="curve" smooth="yes"/>
      <point x="278" y="282"/>
      <point x="267" y="283"/>
      <point x="257" y="284" type="curve" smooth="yes"/>
      <point x="248.667" y="284.833"/>
      <point x="244.5" y="288.444"/>
      <point x="244.5" y="293.676" type="curve" smooth="yes"/>
      <point x="244.5" y="294.722"/>
      <point x="244.667" y="295.833"/>
      <point x="245" y="297" type="curve" smooth="yes"/>
      <point x="247" y="304"/>
      <point x="253" y="311"/>
      <point x="262" y="311" type="curve" smooth="yes"/>
      <point x="394.236" y="311"/>
      <point x="537.553" y="388.648"/>
      <point x="537.553" y="580.195" type="curve" smooth="yes"/>
      <point x="537.553" y="671.038"/>
      <point x="473.487" y="704"/>
      <point x="362" y="704" type="curve" smooth="yes"/>
      <point x="319" y="704" type="line"/>
      <point x="318" y="703" type="line"/>
      <point x="292" y="601"/>
      <point x="268" y="499"/>
      <point x="244" y="397" type="curve" smooth="yes"/>
      <point x="217" y="281"/>
      <point x="191" y="164"/>
      <point x="166" y="47" type="curve" smooth="yes"/>
      <point x="165.505" y="44.853"/>
      <point x="165.255" y="42.7333"/>
      <point x="165.255" y="40.6725" type="curve" smooth="yes"/>
      <point x="165.255" y="30.2546"/>
      <point x="170.643" y="21.3398"/>
    </contour>
  </outline>
</glyph>
<glyph name="Q" format="1">
  <advance width="742"/>
  <unicode hex="0051"/>
  <outline>
    <contour>
      <point x="119.16" y="227.567" type="curve" smooth="yes"/>
      <point x="119.16" y="34.1643"/>
      <point x="246.65" y="20"/>
      <point x="303.317" y="20" type="curve" smooth="yes"/>
      <point x="435.492" y="20"/>
      <point x="636.553" y="172.815"/>
      <point x="636.553" y="494.7" type="curve" smooth="yes"/>
      <point x="636.553" y="610.409"/>
      <point x="585.643" y="698"/>
      <point x="444.317" y="698" type="curve" smooth="yes"/>
      <point x="197.509" y="698"/>
      <point x="119.16" y="392.108"/>
    </contour>
    <contour>
      <point x="463.317" y="733" type="curve" smooth="yes"/>
      <point x="607.687" y="733"/>
      <point x="716.569" y="643.507"/>
      <point x="716.569" y="472.516" type="curve" smooth="yes"/>
      <point x="716.569" y="170.732"/>
      <point x="485.488" y="4.85353"/>
      <point x="317.317" y="-15" type="curve"/>
      <point x="312.664" y="-24.9964"/>
      <point x="310.417" y="-34.5471"/>
      <point x="310.417" y="-43.509" type="curve" smooth="yes"/>
      <point x="310.417" y="-86.5449"/>
      <point x="362.242" y="-116"/>
      <point x="448.317" y="-116" type="curve" smooth="yes"/>
      <point x="455.317" y="-116"/>
      <point x="463.317" y="-115"/>
      <point x="471.317" y="-115" type="curve"/>
      <point x="470.317" y="-143" type="line"/>
      <point x="444.317" y="-145"/>
      <point x="421.317" y="-147"/>
      <point x="399.317" y="-147" type="curve" smooth="yes"/>
      <point x="286.943" y="-147"/>
      <point x="210.793" y="-114.628"/>
      <point x="210.793" y="-43.1178" type="curve" smooth="yes"/>
      <point x="210.793" y="-33.1746"/>
      <point x="212.266" y="-22.4747"/>
      <point x="215.317" y="-11" type="curve"/>
      <point x="134.776" y="5.60642"/>
      <point x="30.1049" y="69.7837"/>
      <point x="30.1049" y="234.197" type="curve" smooth="yes"/>
      <point x="30.1049" y="543.621"/>
      <point x="241.84" y="733"/>
    </contour>
  </outline>
</glyph>
<glyph name="R" format="1">
  <advance width="641"/>
  <unicode hex="0052"/>
  <outline>
    <contour>
      <point x="163" y="18" type="curve" smooth="yes"/>
      <point x="170" y="16"/>
      <point x="177" y="16"/>
      <point x="185" y="16" type="curve"/>
      <point x="181" y="0" type="line"/>
      <point x="107" y="0" type="line"/>
      <point x="77" y="0" type="line"/>
      <point x="3" y="0" type="line"/>
      <point x="7" y="16" type="line"/>
      <point x="15" y="16"/>
      <point x="22" y="16"/>
      <point x="30" y="18" type="curve" smooth="yes"/>
      <point x="49" y="22"/>
      <point x="60" y="36"/>
      <point x="63" y="49" type="curve" smooth="yes"/>
      <point x="92" y="168"/>
      <point x="121" y="286"/>
      <point x="148" y="405" type="curve" smooth="yes"/>
      <point x="168" y="493"/>
      <point x="188" y="580"/>
      <point x="206" y="668" type="curve"/>
      <point x="206.878" y="672.171"/>
      <point x="207.322" y="676.391"/>
      <point x="207.322" y="680.489" type="curve" smooth="yes"/>
      <point x="207.322" y="695.059"/>
      <point x="202.707" y="709.098"/>
      <point x="190" y="712" type="curve" smooth="yes"/>
      <point x="182.902" y="713.621"/>
      <point x="176" y="714"/>
      <point x="168" y="714" type="curve"/>
      <point x="172" y="730" type="line"/>
      <point x="180" y="730"/>
      <point x="188" y="730"/>
      <point x="196" y="730" type="curve" smooth="yes"/>
      <point x="256" y="730"/>
      <point x="320" y="734"/>
      <point x="379" y="734" type="curve" smooth="yes"/>
      <point x="496.495" y="734"/>
      <point x="575.638" y="692.159"/>
      <point x="575.638" y="592.491" type="curve" smooth="yes"/>
      <point x="575.638" y="446.294"/>
      <point x="485.513" y="380.717"/>
      <point x="348" y="364" type="curve"/>
      <point x="446.18" y="364"/>
      <point x="518.259" y="309.755"/>
      <point x="518.259" y="231.204" type="curve" smooth="yes"/>
      <point x="518.259" y="228.498"/>
      <point x="518.173" y="225.763"/>
      <point x="518" y="223" type="curve" smooth="yes"/>
      <point x="514.414" y="165.733"/>
      <point x="509.699" y="134.287"/>
      <point x="507" y="92" type="curve" smooth="yes"/>
      <point x="506.677" y="86.9355"/>
      <point x="506.52" y="82.2344"/>
      <point x="506.52" y="77.8672" type="curve" smooth="yes"/>
      <point x="506.52" y="41.7012"/>
      <point x="517.307" y="28.3477"/>
      <point x="534" y="20" type="curve" smooth="yes"/>
      <point x="536.929" y="18.5352"/>
      <point x="541.488" y="17.9287"/>
      <point x="546.722" y="17.9287" type="curve" smooth="yes"/>
      <point x="559.357" y="17.9287"/>
      <point x="575.929" y="21.4648"/>
      <point x="583" y="25" type="curve"/>
      <point x="579" y="9" type="line"/>
      <point x="556" y="1"/>
      <point x="532.083" y="-4.91797"/>
      <point x="494" y="-5" type="curve" smooth="yes"/>
      <point x="493.933" y="-5"/>
      <point x="493.866" y="-5"/>
      <point x="493.799" y="-5" type="curve" smooth="yes"/>
      <point x="446.197" y="-5"/>
      <point x="421.899" y="31.3594"/>
      <point x="421.899" y="71.417" type="curve" smooth="yes"/>
      <point x="421.899" y="72.9385"/>
      <point x="421.934" y="75.4668"/>
      <point x="422" y="77" type="curve" smooth="yes"/>
      <point x="424" y="122.881"/>
      <point x="430.642" y="201.415"/>
      <point x="434" y="236" type="curve" smooth="yes"/>
      <point x="434.361" y="239.719"/>
      <point x="434.538" y="243.312"/>
      <point x="434.538" y="246.783" type="curve" smooth="yes"/>
      <point x="434.538" y="332.216"/>
      <point x="327.214" y="344.171"/>
      <point x="212" y="353" type="curve"/>
      <point x="143" y="47" type="line" smooth="yes"/>
      <point x="142.557" y="45.0332"/>
      <point x="142.321" y="43.0928"/>
      <point x="142.321" y="41.1982" type="curve" smooth="yes"/>
      <point x="142.321" y="30.5557"/>
      <point x="149.418" y="21.3955"/>
    </contour>
    <contour>
      <point x="218" y="378.1" type="curve"/>
      <point x="229" y="378.1"/>
      <point x="240" y="378"/>
      <point x="251" y="378" type="curve" smooth="yes"/>
      <point x="382.263" y="378"/>
      <point x="500.003" y="440.733"/>
      <point x="500.003" y="596.584" type="curve" smooth="yes"/>
      <point x="500.003" y="678.357"/>
      <point x="445.97" y="704"/>
      <point x="340" y="704" type="curve" smooth="yes"/>
      <point x="296" y="704" type="line"/>
      <point x="295" y="703" type="line"/>
      <point x="271" y="601"/>
      <point x="249.562" y="517.103"/>
      <point x="226" y="415" type="curve" smooth="yes"/>
      <point x="223" y="402"/>
      <point x="221" y="391.1"/>
    </contour>
  </outline>
</glyph>
<glyph name="S" format="1">
  <advance width="510"/>
  <unicode hex="0053"/>
  <outline>
    <contour>
      <point x="183.879" y="36" type="curve" smooth="yes"/>
      <point x="290.801" y="36"/>
      <point x="372.115" y="99.208"/>
      <point x="372.115" y="198.635" type="curve" smooth="yes"/>
      <point x="372.115" y="265.443"/>
      <point x="318.808" y="320.114"/>
      <point x="260.879" y="364" type="curve" smooth="yes"/>
      <point x="197.962" y="411.637"/>
      <point x="130.198" y="469.775"/>
      <point x="130.198" y="538.417" type="curve" smooth="yes"/>
      <point x="130.198" y="645.295"/>
      <point x="241.249" y="742"/>
      <point x="376.879" y="742" type="curve" smooth="yes"/>
      <point x="455.777" y="742"/>
      <point x="528.034" y="712.588"/>
      <point x="528.034" y="695.427" type="curve" smooth="yes"/>
      <point x="528.034" y="694.942"/>
      <point x="527.982" y="693.467"/>
      <point x="527.879" y="693" type="curve" smooth="yes"/>
      <point x="524.879" y="679"/>
      <point x="486.879" y="612"/>
      <point x="477.879" y="612" type="curve" smooth="yes"/>
      <point x="463.879" y="612"/>
      <point x="458.879" y="710"/>
      <point x="354.879" y="710" type="curve" smooth="yes"/>
      <point x="256.952" y="710"/>
      <point x="206.756" y="633.377"/>
      <point x="206.756" y="562.926" type="curve" smooth="yes"/>
      <point x="206.756" y="506.445"/>
      <point x="255.871" y="478.881"/>
      <point x="311.879" y="436" type="curve" smooth="yes"/>
      <point x="382.801" y="381.036"/>
      <point x="448.221" y="315.854"/>
      <point x="448.221" y="241.153" type="curve" smooth="yes"/>
      <point x="448.221" y="139.931"/>
      <point x="387.879" y="75.5459"/>
      <point x="334.879" y="37" type="curve" smooth="yes"/>
      <point x="293.879" y="7"/>
      <point x="215.879" y="-10"/>
      <point x="171.879" y="-10" type="curve" smooth="yes"/>
      <point x="47.4209" y="-10"/>
      <point x="-13.9883" y="65.3076"/>
      <point x="-13.9883" y="107.759" type="curve" smooth="yes"/>
      <point x="-13.9883" y="110.672"/>
      <point x="-13.6992" y="113.431"/>
      <point x="-13.1211" y="116" type="curve" smooth="yes"/>
      <point x="-8.12109" y="137"/>
      <point x="39.8789" y="192"/>
      <point x="55.8789" y="192" type="curve" smooth="yes"/>
      <point x="58.4766" y="192"/>
      <point x="61.0752" y="192"/>
      <point x="61.0752" y="189.402" type="curve" smooth="yes"/>
      <point x="61.0752" y="189"/>
      <point x="61.0127" y="188.536"/>
      <point x="60.8789" y="188" type="curve" smooth="yes"/>
      <point x="60.2295" y="182.375"/>
      <point x="59.8613" y="176.188"/>
      <point x="59.8613" y="169.627" type="curve" smooth="yes"/>
      <point x="59.8613" y="115.535"/>
      <point x="84.8867" y="36"/>
    </contour>
  </outline>
</glyph>
<glyph name="T" format="1">
  <advance width="625"/>
  <unicode hex="0054"/>
  <outline>
    <contour>
      <point x="180" y="701" type="curve" smooth="yes"/>
      <point x="138" y="693"/>
      <point x="111" y="663"/>
      <point x="91" y="614" type="curve"/>
      <point x="73" y="614" type="line"/>
      <point x="117" y="733" type="line"/>
      <point x="118" y="735"/>
      <point x="120" y="736"/>
      <point x="122" y="736" type="curve" smooth="yes"/>
      <point x="128" y="736"/>
      <point x="141" y="734"/>
      <point x="148" y="734" type="curve" smooth="yes"/>
      <point x="182" y="733"/>
      <point x="275" y="730"/>
      <point x="388" y="730" type="curve" smooth="yes"/>
      <point x="488" y="731"/>
      <point x="542" y="732"/>
      <point x="626" y="735" type="curve" smooth="yes"/>
      <point x="630" y="735"/>
      <point x="653" y="738"/>
      <point x="659" y="738" type="curve" smooth="yes"/>
      <point x="664.481" y="738"/>
      <point x="668.128" y="737.165"/>
      <point x="668.128" y="734.972" type="curve" smooth="yes"/>
      <point x="668.128" y="734.669"/>
      <point x="667.087" y="729.346"/>
      <point x="667" y="729" type="curve" smooth="yes"/>
      <point x="636" y="612" type="line"/>
      <point x="620" y="613" type="line"/>
      <point x="620" y="613"/>
      <point x="625.219" y="641.473"/>
      <point x="625.219" y="657.008" type="curve" smooth="yes"/>
      <point x="625.219" y="685.289"/>
      <point x="613.896" y="699.294"/>
      <point x="600" y="703" type="curve" smooth="yes"/>
      <point x="579" y="708"/>
      <point x="552" y="709"/>
      <point x="497" y="709" type="curve" smooth="yes"/>
      <point x="481" y="709"/>
      <point x="464" y="708"/>
      <point x="447" y="708" type="curve" smooth="yes"/>
      <point x="429" y="708"/>
      <point x="418" y="691"/>
      <point x="415" y="678" type="curve" smooth="yes"/>
      <point x="387" y="561"/>
      <point x="358" y="445"/>
      <point x="331" y="328" type="curve" smooth="yes"/>
      <point x="309" y="235"/>
      <point x="289" y="141"/>
      <point x="269" y="48" type="curve" smooth="yes"/>
      <point x="268.462" y="45.667"/>
      <point x="268.181" y="43.334"/>
      <point x="268.181" y="41.0537" type="curve" smooth="yes"/>
      <point x="268.181" y="30.624"/>
      <point x="273.221" y="21.9365"/>
      <point x="287" y="18" type="curve" smooth="yes"/>
      <point x="294" y="16"/>
      <point x="302" y="16"/>
      <point x="310" y="16" type="curve"/>
      <point x="307" y="0" type="line"/>
      <point x="117" y="0" type="line"/>
      <point x="120" y="16" type="line"/>
      <point x="123.667" y="16"/>
      <point x="127.333" y="15.8887"/>
      <point x="131.037" y="15.8887" type="curve" smooth="yes"/>
      <point x="138.444" y="15.8887"/>
      <point x="146" y="16.333"/>
      <point x="154" y="19" type="curve" smooth="yes"/>
      <point x="170" y="24"/>
      <point x="181" y="35"/>
      <point x="184" y="48" type="curve" smooth="yes"/>
      <point x="207" y="141"/>
      <point x="229" y="235"/>
      <point x="251" y="328" type="curve" smooth="yes"/>
      <point x="328" y="679" type="line" smooth="yes"/>
      <point x="328.477" y="681.383"/>
      <point x="329.701" y="683.689"/>
      <point x="329.701" y="685.893" type="curve" smooth="yes"/>
      <point x="329.701" y="697.56"/>
      <point x="323.412" y="706.317"/>
      <point x="315" y="708" type="curve" smooth="yes"/>
      <point x="309" y="709"/>
      <point x="300" y="709"/>
      <point x="287" y="709" type="curve" smooth="yes"/>
      <point x="255" y="709"/>
      <point x="209" y="706"/>
    </contour>
  </outline>
</glyph>
<glyph name="U" format="1">
  <advance width="764"/>
  <unicode hex="0055"/>
  <outline>
    <contour>
      <point x="245.966" y="680" type="move" smooth="yes"/>
    </contour>
    <contour>
      <point x="147.966" y="712" type="curve" smooth="yes"/>
      <point x="141.809" y="713.447"/>
      <point x="133.966" y="714"/>
      <point x="126.966" y="714" type="curve"/>
      <point x="129.966" y="730" type="line"/>
      <point x="305.966" y="730" type="line"/>
      <point x="301.966" y="714" type="line"/>
      <point x="293.966" y="714"/>
      <point x="285.993" y="713.889"/>
      <point x="277.966" y="712" type="curve" smooth="yes"/>
      <point x="260.966" y="708"/>
      <point x="249.966" y="697"/>
      <point x="245.966" y="680" type="curve" smooth="yes"/>
      <point x="245.966" y="679"/>
      <point x="243.562" y="671.103"/>
      <point x="240.966" y="660" type="curve" smooth="yes"/>
      <point x="222.966" y="583"/>
      <point x="160" y="310"/>
      <point x="159.966" y="310" type="curve" smooth="yes"/>
      <point x="148.234" y="259.165"/>
      <point x="142.237" y="215.976"/>
      <point x="142.237" y="179.73" type="curve" smooth="yes"/>
      <point x="142.237" y="67.6748"/>
      <point x="199.559" y="22"/>
      <point x="321.966" y="22" type="curve" smooth="yes"/>
      <point x="476.966" y="22"/>
      <point x="581.966" y="97"/>
      <point x="627.966" y="296" type="curve"/>
      <point x="634.966" y="327"/>
      <point x="709.966" y="654"/>
      <point x="716.966" y="685" type="curve" smooth="yes"/>
      <point x="717.699" y="687.75"/>
      <point x="718.062" y="690.265"/>
      <point x="718.062" y="692.563" type="curve" smooth="yes"/>
      <point x="718.062" y="702.799"/>
      <point x="710.849" y="708.733"/>
      <point x="696.966" y="712" type="curve" smooth="yes"/>
      <point x="689.966" y="714"/>
      <point x="682.966" y="714"/>
      <point x="674.966" y="714" type="curve"/>
      <point x="678.966" y="730" type="line"/>
      <point x="818.966" y="730" type="line"/>
      <point x="814.966" y="714" type="line"/>
      <point x="806.966" y="714"/>
      <point x="799.966" y="714"/>
      <point x="791.966" y="712" type="curve" smooth="yes"/>
      <point x="773.966" y="708"/>
      <point x="762.966" y="700"/>
      <point x="758.966" y="684" type="curve" smooth="yes"/>
      <point x="751.473" y="657.775"/>
      <point x="728.76" y="546.721"/>
      <point x="707.966" y="458" type="curve" smooth="yes"/>
      <point x="688.966" y="375"/>
      <point x="671.966" y="305"/>
      <point x="662.966" y="270" type="curve" smooth="yes"/>
      <point x="605.966" y="43"/>
      <point x="443.966" y="-19"/>
      <point x="310.966" y="-19" type="curve" smooth="yes"/>
      <point x="194.493" y="-19"/>
      <point x="60.1562" y="27.8945"/>
      <point x="60.1562" y="194.252" type="curve" smooth="yes"/>
      <point x="60.1562" y="220.715"/>
      <point x="63.5547" y="250.2"/>
      <point x="70.9658" y="283" type="curve" smooth="yes"/>
      <point x="163.966" y="680" type="line" smooth="yes"/>
      <point x="164.719" y="683.012"/>
      <point x="165.082" y="685.918"/>
      <point x="165.082" y="688.671" type="curve" smooth="yes"/>
      <point x="165.082" y="700.54"/>
      <point x="158.33" y="709.564"/>
    </contour>
  </outline>
</glyph>
<glyph name="V" format="1">
  <advance width="641"/>
  <unicode hex="0056"/>
  <outline>
    <contour>
      <point x="250" y="715" type="curve" smooth="yes"/>
      <point x="233.535" y="711.2"/>
      <point x="218.209" y="701.474"/>
      <point x="218.209" y="677.137" type="curve" smooth="yes"/>
      <point x="218.209" y="674.006"/>
      <point x="218.463" y="670.633"/>
      <point x="219" y="667" type="curve" smooth="yes"/>
      <point x="297" y="140" type="line"/>
      <point x="616" y="660" type="line" smooth="yes"/>
      <point x="626.416" y="676.202"/>
      <point x="631.837" y="683.899"/>
      <point x="631.837" y="697.947" type="curve" smooth="yes"/>
      <point x="631.837" y="717.584"/>
      <point x="610.505" y="718"/>
      <point x="591" y="718" type="curve"/>
      <point x="595" y="733" type="line"/>
      <point x="733" y="733" type="line"/>
      <point x="729" y="717" type="line"/>
      <point x="691.768" y="717"/>
      <point x="686.664" y="702.886"/>
      <point x="670" y="678" type="curve"/>
      <point x="532.159" y="452.723"/>
      <point x="392.617" y="221.925"/>
      <point x="258" y="2" type="curve" smooth="yes"/>
      <point x="254.235" y="-4.15039"/>
      <point x="251" y="-10"/>
      <point x="246" y="-10" type="curve" smooth="yes"/>
      <point x="241" y="-10"/>
      <point x="239" y="-6"/>
      <point x="238" y="2" type="curve" smooth="yes"/>
      <point x="236" y="15"/>
      <point x="164" y="491"/>
      <point x="139" y="665" type="curve" smooth="yes"/>
      <point x="138" y="671"/>
      <point x="136.76" y="678.958"/>
      <point x="136" y="684" type="curve" smooth="yes"/>
      <point x="133" y="703.921"/>
      <point x="129.401" y="713.028"/>
      <point x="120" y="715" type="curve" smooth="yes"/>
      <point x="112.875" y="716.494"/>
      <point x="104" y="717"/>
      <point x="97" y="717" type="curve"/>
      <point x="101" y="733" type="line"/>
      <point x="279" y="733" type="line"/>
      <point x="275" y="717" type="line"/>
      <point x="268" y="717"/>
      <point x="258.035" y="716.854"/>
    </contour>
  </outline>
</glyph>
<glyph name="W" format="1">
  <advance width="932"/>
  <unicode hex="0057"/>
  <outline>
    <contour>
      <point x="880" y="718" type="curve"/>
      <point x="884" y="734" type="line"/>
      <point x="1022" y="734" type="line"/>
      <point x="1018" y="718" type="line"/>
      <point x="1010" y="718"/>
      <point x="1002" y="717"/>
      <point x="994" y="715" type="curve" smooth="yes"/>
      <point x="979" y="711"/>
      <point x="969" y="696"/>
      <point x="959" y="679" type="curve"/>
      <point x="825.428" y="453.64"/>
      <point x="691.511" y="228.256"/>
      <point x="558" y="3" type="curve" smooth="yes"/>
      <point x="552" y="-6"/>
      <point x="549" y="-10"/>
      <point x="544" y="-10" type="curve" smooth="yes"/>
      <point x="540" y="-10"/>
      <point x="536" y="-6"/>
      <point x="535" y="2" type="curve" smooth="yes"/>
      <point x="534" y="9"/>
      <point x="506" y="179"/>
      <point x="479" y="352" type="curve"/>
      <point x="278" y="21" type="line" smooth="yes"/>
      <point x="271" y="10"/>
      <point x="267" y="3"/>
      <point x="267" y="3" type="curve" smooth="yes"/>
      <point x="261" y="-6"/>
      <point x="258" y="-9"/>
      <point x="254" y="-9" type="curve" smooth="yes"/>
      <point x="249.038" y="-9"/>
      <point x="243.966" y="-4.46777"/>
      <point x="242.86" y="5" type="curve" smooth="yes"/>
      <point x="232" y="98"/>
      <point x="150.263" y="621.686"/>
      <point x="138" y="683" type="curve" smooth="yes"/>
      <point x="134.264" y="701.684"/>
      <point x="133.503" y="712.59"/>
      <point x="121" y="716" type="curve" smooth="yes"/>
      <point x="114" y="718"/>
      <point x="107" y="718"/>
      <point x="99" y="718" type="curve"/>
      <point x="103" y="734" type="line"/>
      <point x="284" y="734" type="line"/>
      <point x="281" y="718" type="line"/>
      <point x="247.965" y="718"/>
      <point x="222.586" y="712.274"/>
      <point x="222.586" y="676.772" type="curve" smooth="yes"/>
      <point x="222.586" y="674.601"/>
      <point x="223.707" y="668.343"/>
      <point x="224" y="666" type="curve" smooth="yes"/>
      <point x="304" y="137" type="line"/>
      <point x="471" y="406" type="line"/>
      <point x="452" y="526"/>
      <point x="434" y="641"/>
      <point x="425" y="695" type="curve" smooth="yes"/>
      <point x="420.284" y="713.862"/>
      <point x="409.52" y="718"/>
      <point x="389" y="718" type="curve"/>
      <point x="393" y="734" type="line"/>
      <point x="549" y="734" type="line"/>
      <point x="546" y="718" type="line"/>
      <point x="519.652" y="718"/>
      <point x="496.478" y="711.278"/>
      <point x="491" y="688" type="curve" smooth="yes"/>
      <point x="490.836" y="687.015"/>
      <point x="490.303" y="685.407"/>
      <point x="490.303" y="682.645" type="curve" smooth="yes"/>
      <point x="490.303" y="681.466"/>
      <point x="490.735" y="677.642"/>
      <point x="491" y="676" type="curve" smooth="yes"/>
      <point x="522" y="484" type="line"/>
      <point x="632" y="660" type="line" smooth="yes"/>
      <point x="641.292" y="673.938"/>
      <point x="646.963" y="683.756"/>
      <point x="646.963" y="697.104" type="curve" smooth="yes"/>
      <point x="646.963" y="713.999"/>
      <point x="626.219" y="718"/>
      <point x="609" y="718" type="curve"/>
      <point x="613" y="734" type="line"/>
      <point x="665" y="734" type="line"/>
      <point x="697" y="734" type="line"/>
      <point x="747" y="734" type="line"/>
      <point x="743" y="718" type="line"/>
      <point x="735" y="718"/>
      <point x="728" y="717"/>
      <point x="720" y="715" type="curve" smooth="yes"/>
      <point x="706" y="712"/>
      <point x="698" y="698"/>
      <point x="687" y="682" type="curve" smooth="yes"/>
      <point x="539" y="448" type="line"/>
      <point x="591" y="136" type="line"/>
      <point x="906" y="660" type="line" smooth="yes"/>
      <point x="915.616" y="675.997"/>
      <point x="921.837" y="685.028"/>
      <point x="921.837" y="698.84" type="curve" smooth="yes"/>
      <point x="921.837" y="716.379"/>
      <point x="897.769" y="718"/>
    </contour>
  </outline>
</glyph>
<glyph name="X" format="1">
  <advance width="674"/>
  <unicode hex="0058"/>
  <outline>
    <contour>
      <point x="155" y="714" type="curve"/>
      <point x="158" y="730" type="line"/>
      <point x="346" y="730" type="line"/>
      <point x="342" y="714" type="line"/>
      <point x="314.94" y="714"/>
      <point x="292.804" y="709.177"/>
      <point x="292.804" y="681.755" type="curve" smooth="yes"/>
      <point x="292.804" y="675.546"/>
      <point x="294.85" y="667.945"/>
      <point x="298" y="660" type="curve" smooth="yes"/>
      <point x="388" y="433" type="line"/>
      <point x="591" y="656" type="line" smooth="yes"/>
      <point x="609.409" y="676.455"/>
      <point x="618.31" y="686.086"/>
      <point x="618.31" y="699.925" type="curve" smooth="yes"/>
      <point x="618.31" y="712.829"/>
      <point x="595.675" y="714"/>
      <point x="582" y="714" type="curve"/>
      <point x="586" y="730" type="line"/>
      <point x="723" y="730" type="line"/>
      <point x="720" y="714" type="line"/>
      <point x="685.47" y="714"/>
      <point x="673.748" y="701.198"/>
      <point x="652" y="678" type="curve" smooth="yes"/>
      <point x="401" y="400" type="line"/>
      <point x="408" y="381" type="line" smooth="yes"/>
      <point x="461" y="242"/>
      <point x="514" y="100"/>
      <point x="541" y="39" type="curve" smooth="yes"/>
      <point x="549.8" y="17.8809"/>
      <point x="560.599" y="16"/>
      <point x="587" y="16" type="curve"/>
      <point x="583" y="0" type="line"/>
      <point x="396" y="0" type="line"/>
      <point x="400" y="16" type="line"/>
      <point x="420.793" y="16"/>
      <point x="439.669" y="19.2324"/>
      <point x="444" y="38" type="curve" smooth="yes"/>
      <point x="444.517" y="39.8086"/>
      <point x="444.767" y="42.8838"/>
      <point x="444.767" y="45.209" type="curve" smooth="yes"/>
      <point x="444.767" y="51.8838"/>
      <point x="442.708" y="59.6172"/>
      <point x="439" y="70" type="curve" smooth="yes"/>
      <point x="338" y="332" type="line"/>
      <point x="105" y="74" type="line"/>
      <point x="87" y="55"/>
      <point x="79" y="43"/>
      <point x="77" y="35" type="curve" smooth="yes"/>
      <point x="76.6289" y="33.6406"/>
      <point x="76.457" y="31.3877"/>
      <point x="76.457" y="30.2324" type="curve" smooth="yes"/>
      <point x="76.457" y="19.709"/>
      <point x="91.8623" y="15.75"/>
      <point x="103.125" y="15.75" type="curve" smooth="yes"/>
      <point x="106.5" y="15.75"/>
      <point x="110" y="16"/>
      <point x="114" y="16" type="curve"/>
      <point x="110" y="0" type="line"/>
      <point x="-28" y="0" type="line"/>
      <point x="-24" y="16" type="line"/>
      <point x="13.3506" y="16"/>
      <point x="21.543" y="28.0459"/>
      <point x="44" y="52" type="curve" smooth="yes"/>
      <point x="325" y="365" type="line"/>
      <point x="274" y="498"/>
      <point x="223" y="632"/>
      <point x="197" y="690" type="curve" smooth="yes"/>
      <point x="188.992" y="709.218"/>
      <point x="178.116" y="714"/>
    </contour>
  </outline>
</glyph>
<glyph name="Y" format="1">
  <advance width="580"/>
  <unicode hex="0059"/>
  <outline>
    <contour>
      <point x="182" y="49" type="curve"/>
      <point x="199" y="119"/>
      <point x="217" y="188"/>
      <point x="233" y="257" type="curve" smooth="yes"/>
      <point x="243" y="300"/>
      <point x="252" y="343"/>
      <point x="260" y="386" type="curve"/>
      <point x="212" y="512"/>
      <point x="165" y="635"/>
      <point x="140" y="690" type="curve" smooth="yes"/>
      <point x="131.852" y="709.557"/>
      <point x="120.682" y="714"/>
      <point x="97" y="714" type="curve"/>
      <point x="101" y="730" type="line"/>
      <point x="286" y="730" type="line"/>
      <point x="283" y="714" type="line"/>
      <point x="260.256" y="714"/>
      <point x="233.233" y="709.824"/>
      <point x="233.233" y="684.791" type="curve" smooth="yes"/>
      <point x="233.233" y="678.116"/>
      <point x="235.292" y="670.383"/>
      <point x="239" y="660" type="curve" smooth="yes"/>
      <point x="328" y="431" type="line"/>
      <point x="534" y="656" type="line" smooth="yes"/>
      <point x="551.56" y="675.195"/>
      <point x="561.589" y="687.066"/>
      <point x="561.589" y="700.007" type="curve" smooth="yes"/>
      <point x="561.589" y="712.864"/>
      <point x="538.536" y="714"/>
      <point x="525" y="714" type="curve"/>
      <point x="528" y="730" type="line"/>
      <point x="666" y="730" type="line"/>
      <point x="662" y="714" type="line"/>
      <point x="639" y="714"/>
      <point x="618" y="704"/>
      <point x="607" y="691" type="curve"/>
      <point x="339" y="396" type="line"/>
      <point x="326" y="350"/>
      <point x="315" y="303"/>
      <point x="304" y="256" type="curve" smooth="yes"/>
      <point x="288" y="187"/>
      <point x="275" y="123"/>
      <point x="260" y="54" type="curve" smooth="yes"/>
      <point x="260" y="54"/>
      <point x="258.181" y="43.3018"/>
      <point x="258.181" y="40.9688" type="curve" smooth="yes"/>
      <point x="258.181" y="18.3936"/>
      <point x="273.562" y="16"/>
      <point x="300" y="16" type="curve"/>
      <point x="296" y="0" type="line"/>
      <point x="122" y="0" type="line"/>
      <point x="126" y="16" type="line"/>
      <point x="134" y="16"/>
      <point x="141" y="16"/>
      <point x="149" y="18" type="curve" smooth="yes"/>
      <point x="168" y="22"/>
      <point x="179" y="36"/>
    </contour>
  </outline>
</glyph>
<glyph name="Z" format="1">
  <advance width="671"/>
  <unicode hex="005A"/>
  <outline>
    <contour>
      <point x="684.37" y="682" type="curve"/>
      <point x="145.37" y="33" type="line"/>
      <point x="177.37" y="28"/>
      <point x="216.37" y="25"/>
      <point x="257.37" y="25" type="curve" smooth="yes"/>
      <point x="298.37" y="25"/>
      <point x="378.37" y="25"/>
      <point x="426.37" y="32" type="curve" smooth="yes"/>
      <point x="490.37" y="41"/>
      <point x="526.37" y="85"/>
      <point x="554.37" y="153" type="curve"/>
      <point x="572.37" y="154" type="line"/>
      <point x="512.37" y="0" type="line"/>
      <point x="55.3701" y="0" type="line" smooth="yes"/>
      <point x="48.3701" y="0"/>
      <point x="35.3701" y="2.68262"/>
      <point x="35.3701" y="17" type="curve" smooth="yes"/>
      <point x="35.3701" y="23"/>
      <point x="41.3701" y="31"/>
      <point x="45.3701" y="36" type="curve"/>
      <point x="605.37" y="704" type="line"/>
      <point x="605.37" y="704"/>
      <point x="525.37" y="708"/>
      <point x="472.37" y="708" type="curve"/>
      <point x="417.37" y="708"/>
      <point x="374.37" y="707"/>
      <point x="334.37" y="698" type="curve" smooth="yes"/>
      <point x="267.37" y="683"/>
      <point x="232.37" y="651"/>
      <point x="205.37" y="591" type="curve"/>
      <point x="190.37" y="590" type="line"/>
      <point x="251.37" y="730" type="line"/>
      <point x="253.37" y="733"/>
      <point x="257.37" y="735"/>
      <point x="261.37" y="735" type="curve" smooth="yes"/>
      <point x="270.37" y="735"/>
      <point x="283.37" y="730"/>
      <point x="290.37" y="730" type="curve" smooth="yes"/>
      <point x="698.37" y="730" type="line"/>
      <point x="698.37" y="730"/>
      <point x="698.37" y="716"/>
      <point x="696.37" y="707" type="curve" smooth="yes"/>
      <point x="694.581" y="698.95"/>
      <point x="691.37" y="690"/>
    </contour>
  </outline>
</glyph>
<glyph name="bracketleft" format="1">
  <advance width="438"/>
  <unicode hex="005B"/>
  <outline>
    <contour>
      <point x="265.13" y="696.95" type="line"/>
      <point x="91.8799" y="-56.9502" type="line"/>
      <point x="217.88" y="-56.9502" type="line" smooth="yes"/>
      <point x="221.468" y="-56.9502"/>
      <point x="223.094" y="-61.8539"/>
      <point x="223.094" y="-68.6453" type="curve" smooth="yes"/>
      <point x="223.094" y="-82.6027"/>
      <point x="214.134" y="-103.15"/>
      <point x="207.38" y="-103.15" type="curve" smooth="yes"/>
      <point x="46.7305" y="-103.15" type="line"/>
      <point x="36.79" y="-103.15"/>
      <point x="32.0775" y="-99.2291"/>
      <point x="32.0775" y="-90.3568" type="curve" smooth="yes"/>
      <point x="32.0775" y="-87.9825"/>
      <point x="32.415" y="-85.2536"/>
      <point x="33.0801" y="-82.1504" type="curve" smooth="yes"/>
      <point x="218.93" y="722.15" type="line" smooth="yes"/>
      <point x="222.08" y="736.85"/>
      <point x="230.48" y="743.15"/>
      <point x="246.23" y="743.15" type="curve"/>
      <point x="402.68" y="743.15" type="line" smooth="yes"/>
      <point x="405.896" y="743.15"/>
      <point x="407.142" y="739.21"/>
      <point x="407.142" y="733.502" type="curve" smooth="yes"/>
      <point x="407.142" y="719.87"/>
      <point x="399.191" y="696.95"/>
      <point x="392.18" y="696.95" type="curve" smooth="yes"/>
    </contour>
  </outline>
</glyph>
<glyph name="backslash" format="1">
  <advance width="398"/>
  <unicode hex="005C"/>
  <outline>
    <contour>
      <point x="356.168" y="-96" type="curve"/>
      <point x="347.367" y="-100.563"/>
      <point x="337.079" y="-103.052"/>
      <point x="327" y="-103.052" type="curve" smooth="yes"/>
      <point x="306.158" y="-103.052"/>
      <point x="290.212" y="-90.3541"/>
      <point x="282.168" y="-58" type="curve"/>
      <point x="282.168" y="-58"/>
      <point x="132" y="425"/>
      <point x="43" y="676" type="curve"/>
      <point x="43" y="689.32"/>
      <point x="51.1804" y="696.256"/>
      <point x="64" y="696.256" type="curve" smooth="yes"/>
      <point x="76.2035" y="696.256"/>
      <point x="92.6111" y="689.655"/>
      <point x="110.168" y="676" type="curve"/>
      <point x="182.168" y="419"/>
      <point x="255.168" y="183"/>
    </contour>
  </outline>
</glyph>
<glyph name="bracketright" format="1">
  <advance width="441"/>
  <unicode hex="005D"/>
  <outline>
    <contour>
      <point x="346.787" y="696.95" type="line"/>
      <point x="219.737" y="696.95" type="line" smooth="yes"/>
      <point x="216.456" y="696.95"/>
      <point x="214.816" y="701.871"/>
      <point x="214.816" y="708.382" type="curve" smooth="yes"/>
      <point x="214.816" y="721.769"/>
      <point x="222.276" y="743.15"/>
      <point x="230.237" y="743.15" type="curve" smooth="yes"/>
      <point x="387.737" y="743.15" type="line"/>
      <point x="400.601" y="743.15"/>
      <point x="406.46" y="738.948"/>
      <point x="406.46" y="729.399" type="curve" smooth="yes"/>
      <point x="406.46" y="727.256"/>
      <point x="406.165" y="724.844"/>
      <point x="405.588" y="722.15" type="curve" smooth="yes"/>
      <point x="219.737" y="-82.1504" type="line" smooth="yes"/>
      <point x="216.588" y="-96.8496"/>
      <point x="208.188" y="-103.15"/>
      <point x="195.588" y="-103.15" type="curve"/>
      <point x="34.9375" y="-103.15" type="line" smooth="yes"/>
      <point x="31.6562" y="-103.15"/>
      <point x="30.0156" y="-98.228"/>
      <point x="30.0156" y="-91.7164" type="curve" smooth="yes"/>
      <point x="30.0156" y="-78.3289"/>
      <point x="37.476" y="-56.9502"/>
      <point x="45.4375" y="-56.9502" type="curve" smooth="yes"/>
      <point x="172.487" y="-56.9502" type="line"/>
    </contour>
  </outline>
</glyph>
<glyph name="asciicircum" format="1">
  <advance width="458"/>
  <unicode hex="005E"/>
  <outline>
    <contour>
      <point x="425.225" y="575.075" type="line"/>
      <point x="418.925" y="563.525"/>
      <point x="409.475" y="557.225"/>
      <point x="400.025" y="554.075" type="curve"/>
      <point x="274.025" y="670.625" type="line"/>
      <point x="94.4746" y="554.075" type="line"/>
      <point x="85.0254" y="557.225"/>
      <point x="79.7754" y="564.575"/>
      <point x="79.7754" y="575.075" type="curve"/>
      <point x="295.025" y="760.925" type="line"/>
    </contour>
  </outline>
</glyph>
<glyph name="underscore" format="1">
  <advance width="429"/>
  <unicode hex="005F"/>
  <outline>
    <contour>
      <point x="65.2715" y="-4" type="line"/>
      <point x="61.2775" y="-4"/>
      <point x="59.8156" y="0.220439"/>
      <point x="59.8156" y="5.98559" type="curve" smooth="yes"/>
      <point x="59.8156" y="18.9114"/>
      <point x="66.1082" y="38"/>
      <point x="74.7217" y="38" type="curve" smooth="yes"/>
      <point x="356.121" y="38" type="line"/>
      <point x="359.709" y="38"/>
      <point x="361.335" y="33.5866"/>
      <point x="361.335" y="27.4407" type="curve" smooth="yes"/>
      <point x="361.335" y="14.7784"/>
      <point x="354.691" y="-4"/>
      <point x="346.671" y="-4" type="curve" smooth="yes"/>
    </contour>
  </outline>
</glyph>
<glyph name="grave" format="1">
  <advance width="283"/>
  <unicode hex="0060"/>
  <outline>
    <contour>
      <point x="208.378" y="534" type="line"/>
      <point x="167.378" y="569"/>
      <point x="79.3779" y="653"/>
      <point x="69.3779" y="668" type="curve" smooth="yes"/>
      <point x="65.2354" y="674.214"/>
      <point x="62.9996" y="681.381"/>
      <point x="62.9996" y="689.172" type="curve" smooth="yes"/>
      <point x="62.9996" y="718.704"/>
      <point x="90.8306" y="744"/>
      <point x="115.378" y="744" type="curve" smooth="yes"/>
      <point x="126.378" y="744"/>
      <point x="136.378" y="740"/>
      <point x="142.378" y="731" type="curve" smooth="yes"/>
      <point x="152.378" y="716"/>
      <point x="202.378" y="599"/>
      <point x="224.378" y="547" type="curve"/>
    </contour>
  </outline>
</glyph>
<glyph name="a" format="1">
  <advance width="527"/>
  <unicode hex="0061"/>
  <outline>
    <contour>
      <point x="413.256" y="44.1748" type="curve"/>
      <point x="413.256" y="20.0254" type="line"/>
      <point x="382.806" y="5.3252"/>
      <point x="364.605" y="-7.27539"/>
      <point x="341.506" y="-7.27539" type="curve" smooth="yes"/>
      <point x="319.58" y="-7.27539"/>
      <point x="311.756" y="12.8682"/>
      <point x="311.756" y="31.5752" type="curve"/>
      <point x="310.31" y="30.1289"/>
      <point x="302.977" y="28.8462"/>
      <point x="301.506" y="27.375" type="curve" smooth="yes"/>
      <point x="265.806" y="3.22461"/>
      <point x="231.155" y="-10.4248"/>
      <point x="186.006" y="-10.4248" type="curve" smooth="yes"/>
      <point x="77.2499" y="-10.4248"/>
      <point x="22.2217" y="50.5898"/>
      <point x="22.2217" y="164.627" type="curve" smooth="yes"/>
      <point x="22.2217" y="370.634"/>
      <point x="152.097" y="511.425"/>
      <point x="303.605" y="511.425" type="curve" smooth="yes"/>
      <point x="343.506" y="511.425"/>
      <point x="378.155" y="501.975"/>
      <point x="407.556" y="467.325" type="curve"/>
      <point x="411.756" y="486.225" type="line" smooth="yes"/>
      <point x="437.106" y="490.291"/>
      <point x="462.456" y="496.616"/>
      <point x="487.806" y="501.975" type="curve" smooth="yes"/>
      <point x="387.006" y="63.0752" type="line"/>
      <point x="380.706" y="35.7754" type="line"/>
      <point x="391.206" y="37.875"/>
      <point x="401.706" y="41.0254"/>
    </contour>
    <contour>
      <point x="392.556" y="377.025" type="line"/>
      <point x="392.92" y="383.262"/>
      <point x="393.144" y="389.57"/>
      <point x="393.144" y="395.85" type="curve" smooth="yes"/>
      <point x="393.144" y="443.942"/>
      <point x="380.98" y="489.375"/>
      <point x="316.456" y="489.375" type="curve" smooth="yes"/>
      <point x="193.551" y="489.375"/>
      <point x="98.5771" y="335.65"/>
      <point x="98.5771" y="167.047" type="curve" smooth="yes"/>
      <point x="98.5771" y="80.8252"/>
      <point x="125.999" y="21.0752"/>
      <point x="209.105" y="21.0752" type="curve" smooth="yes"/>
      <point x="238.506" y="21.0752"/>
      <point x="309.605" y="47.2754"/>
      <point x="316.956" y="67.2246" type="curve"/>
    </contour>
  </outline>
</glyph>
<glyph name="c" format="1">
  <advance width="454"/>
  <unicode hex="0063"/>
  <outline>
    <contour>
      <point x="359.498" y="88.2754" type="curve"/>
      <point x="367.898" y="67.2754" type="line"/>
      <point x="302.798" y="8.47461"/>
      <point x="250.298" y="-10.4248"/>
      <point x="177.849" y="-10.4248" type="curve" smooth="yes"/>
      <point x="84.317" y="-10.4248"/>
      <point x="14.6281" y="51.9866"/>
      <point x="14.6281" y="172.224" type="curve" smooth="yes"/>
      <point x="14.6281" y="383.945"/>
      <point x="147.762" y="511.425"/>
      <point x="294.398" y="511.425" type="curve" smooth="yes"/>
      <point x="343.748" y="511.425"/>
      <point x="401.498" y="494.625"/>
      <point x="437.198" y="430.575" type="curve" smooth="yes"/>
      <point x="438.735" y="428.269"/>
      <point x="439.71" y="425.963"/>
      <point x="439.71" y="423.658" type="curve" smooth="yes"/>
      <point x="439.71" y="406.733"/>
      <point x="408.442" y="394.875"/>
      <point x="392.048" y="394.875" type="curve" smooth="yes"/>
      <point x="332.198" y="394.875"/>
      <point x="361.599" y="488.325"/>
      <point x="281.798" y="488.325" type="curve" smooth="yes"/>
      <point x="183.328" y="488.325"/>
      <point x="92.3713" y="346.757"/>
      <point x="92.3713" y="193.512" type="curve" smooth="yes"/>
      <point x="92.3713" y="105.934"/>
      <point x="127.586" y="33.6748"/>
      <point x="216.698" y="33.6748" type="curve" smooth="yes"/>
      <point x="255.548" y="33.6748"/>
      <point x="304.898" y="49.4248"/>
    </contour>
  </outline>
</glyph>
<glyph name="d" format="1">
  <advance width="540"/>
  <unicode hex="0064"/>
  <outline>
    <contour>
      <point x="425.261" y="44.6504" type="curve"/>
      <point x="425.261" y="20.5" type="line"/>
      <point x="394.811" y="5.7998"/>
      <point x="359.61" y="-6.7998"/>
      <point x="336.511" y="-6.7998" type="curve" smooth="yes"/>
      <point x="322.335" y="-6.7998"/>
      <point x="318.791" y="4.42276"/>
      <point x="318.791" y="16.2353" type="curve" smooth="yes"/>
      <point x="318.791" y="21.8456"/>
      <point x="319.761" y="26.5648"/>
      <point x="320.761" y="32.0498" type="curve"/>
      <point x="319.71" y="31" type="line" smooth="yes"/>
      <point x="318.66" y="29.9502"/>
      <point x="316.561" y="28.9004"/>
      <point x="315.511" y="27.8496" type="curve" smooth="yes"/>
      <point x="279.811" y="3.7002"/>
      <point x="245.16" y="-9.9502"/>
      <point x="200.011" y="-9.9502" type="curve" smooth="yes"/>
      <point x="109.671" y="-9.9502"/>
      <point x="40.2796" y="39.6351"/>
      <point x="40.2796" y="159.601" type="curve" smooth="yes"/>
      <point x="40.2796" y="374.678"/>
      <point x="166.943" y="511.9"/>
      <point x="317.61" y="511.9" type="curve" smooth="yes"/>
      <point x="357.511" y="511.9"/>
      <point x="392.16" y="502.45"/>
      <point x="421.561" y="467.8" type="curve"/>
      <point x="471.625" y="686" type="line" smooth="yes"/>
      <point x="473.299" y="692.696"/>
      <point x="474.119" y="698.644"/>
      <point x="474.119" y="703.812" type="curve" smooth="yes"/>
      <point x="474.119" y="714.851"/>
      <point x="470.377" y="722.324"/>
      <point x="463.225" y="725.9" type="curve" smooth="yes"/>
      <point x="459.024" y="728"/>
      <point x="445.375" y="730.101"/>
      <point x="441.175" y="730.101" type="curve"/>
      <point x="444.325" y="743.75" type="line"/>
      <point x="534.325" y="766.851" type="line" smooth="yes"/>
      <point x="553.625" y="772" type="line" smooth="yes"/>
      <point x="554.581" y="772.299"/>
      <point x="557.175" y="773.15"/>
      <point x="558.225" y="773.15" type="curve" smooth="yes"/>
      <point x="560.957" y="773.15"/>
      <point x="562.062" y="770.992"/>
      <point x="562.062" y="768.415" type="curve" smooth="yes"/>
      <point x="562.062" y="765.35"/>
      <point x="560.817" y="760.219"/>
      <point x="559.325" y="754.25" type="curve" smooth="yes"/>
      <point x="399.011" y="64.5996" type="line" smooth="yes"/>
      <point x="392.71" y="36.25" type="line"/>
      <point x="403.21" y="38.3496"/>
      <point x="413.71" y="41.5"/>
    </contour>
    <contour>
      <point x="403.561" y="377.5" type="line"/>
      <point x="403.9" y="384.288"/>
      <point x="404.095" y="390.918"/>
      <point x="404.095" y="397.344" type="curve" smooth="yes"/>
      <point x="404.095" y="450.562"/>
      <point x="390.735" y="489.85"/>
      <point x="335.46" y="489.85" type="curve" smooth="yes"/>
      <point x="203.577" y="489.85"/>
      <point x="112.592" y="322.08"/>
      <point x="112.592" y="152.769" type="curve" smooth="yes"/>
      <point x="112.592" y="70.9344"/>
      <point x="143.9" y="21.5498"/>
      <point x="223.11" y="21.5498" type="curve" smooth="yes"/>
      <point x="252.511" y="21.5498"/>
      <point x="323.91" y="45.7002"/>
      <point x="332.311" y="69.8496" type="curve"/>
    </contour>
  </outline>
</glyph>
<glyph name="e" format="1">
  <advance width="516"/>
  <unicode hex="0065"/>
  <outline>
    <contour>
      <point x="115.673" y="228.95" type="curve"/>
      <point x="111.909" y="205.688"/>
      <point x="107.713" y="178.95"/>
      <point x="107.713" y="156.381" type="curve" smooth="yes"/>
      <point x="107.713" y="69.2012"/>
      <point x="154.095" y="24.2002"/>
      <point x="214.554" y="24.2002" type="curve" smooth="yes"/>
      <point x="263.904" y="24.2002"/>
      <point x="327.484" y="48.3496"/>
      <point x="384.565" y="87.2002" type="curve"/>
      <point x="392.23" y="67.25" type="line"/>
      <point x="330.408" y="13.7002"/>
      <point x="267.568" y="-10.4502"/>
      <point x="199.318" y="-10.4502" type="curve" smooth="yes"/>
      <point x="103.732" y="-10.4502"/>
      <point x="29.6162" y="47.1611"/>
      <point x="29.6162" y="163.447" type="curve" smooth="yes"/>
      <point x="29.6162" y="396.72"/>
      <point x="200.481" y="512.45"/>
      <point x="344.545" y="512.45" type="curve" smooth="yes"/>
      <point x="427.91" y="512.45"/>
      <point x="482.616" y="486.643"/>
      <point x="482.616" y="432.14" type="curve" smooth="yes"/>
      <point x="482.616" y="251.091"/>
      <point x="195.612" y="250.426"/>
    </contour>
    <contour>
      <point x="108.006" y="262.65" type="curve"/>
      <point x="200.101" y="283.459"/>
      <point x="407.397" y="281.562"/>
      <point x="407.397" y="425.134" type="curve" smooth="yes"/>
      <point x="407.397" y="472.891"/>
      <point x="376.083" y="486.2"/>
      <point x="328.994" y="486.2" type="curve" smooth="yes"/>
      <point x="258.644" y="486.2"/>
      <point x="132.708" y="420.15"/>
    </contour>
  </outline>
</glyph>
<glyph name="f" format="1">
  <advance width="462"/>
  <unicode hex="0066"/>
  <outline>
    <contour>
      <point x="126.55" y="453.299" type="line"/>
      <point x="100.3" y="453.299"/>
      <point x="75.0996" y="449.1"/>
      <point x="75.0996" y="449.1" type="curve"/>
      <point x="90.8496" y="486.899" type="line"/>
      <point x="133.899" y="486.899" type="line"/>
      <point x="133.899" y="486.899"/>
      <point x="138.296" y="504.273"/>
      <point x="142.718" y="524.175" type="curve" smooth="yes"/>
      <point x="144.817" y="533.625"/>
      <point x="147.968" y="544.125"/>
      <point x="150.067" y="552.525" type="curve" smooth="yes"/>
      <point x="195.218" y="711.075"/>
      <point x="281.067" y="768.825"/>
      <point x="393.418" y="768.825" type="curve" smooth="yes"/>
      <point x="430.168" y="768.825"/>
      <point x="473.218" y="755.175"/>
      <point x="497.367" y="703.725" type="curve" smooth="yes"/>
      <point x="498.598" y="701.88"/>
      <point x="499.107" y="700.034"/>
      <point x="499.107" y="698.189" type="curve" smooth="yes"/>
      <point x="499.107" y="681.424"/>
      <point x="472.681" y="670.125"/>
      <point x="458.518" y="670.125" type="curve" smooth="yes"/>
      <point x="408.117" y="670.125"/>
      <point x="437.518" y="746.775"/>
      <point x="370.317" y="746.775" type="curve" smooth="yes"/>
      <point x="304.168" y="746.775"/>
      <point x="245.105" y="665.164"/>
      <point x="217.018" y="546.225" type="curve" smooth="yes"/>
      <point x="204" y="491.1" type="line"/>
      <point x="204" y="491.1"/>
      <point x="297.449" y="491.1"/>
      <point x="307.949" y="491.1" type="curve" smooth="yes"/>
      <point x="324.298" y="491.1"/>
      <point x="330.433" y="487.172"/>
      <point x="330.433" y="480.674" type="curve" smooth="yes"/>
      <point x="330.433" y="475.56"/>
      <point x="328.301" y="470.903"/>
      <point x="325.8" y="465.899" type="curve" smooth="yes"/>
      <point x="318.449" y="449.1" type="line"/>
      <point x="313.199" y="449.1"/>
      <point x="236.55" y="453.299"/>
      <point x="198.75" y="453.299" type="curve"/>
      <point x="103" y="15" type="line" smooth="yes"/>
      <point x="72.0823" y="-126.527"/>
      <point x="15.8994" y="-179.2"/>
      <point x="-96.4502" y="-179.2" type="curve" smooth="yes"/>
      <point x="-133.2" y="-179.2"/>
      <point x="-177.3" y="-166.6"/>
      <point x="-202.5" y="-120.4" type="curve" smooth="yes"/>
      <point x="-204.038" y="-118.094"/>
      <point x="-205.012" y="-115.225"/>
      <point x="-205.012" y="-112.618" type="curve" smooth="yes"/>
      <point x="-205.012" y="-97.6621"/>
      <point x="-179.11" y="-87.8496"/>
      <point x="-165.75" y="-87.8496" type="curve" smooth="yes"/>
      <point x="-115.351" y="-87.8496"/>
      <point x="-141.601" y="-155.05"/>
      <point x="-74.4004" y="-155.05" type="curve" smooth="yes"/>
      <point x="-8.25" y="-155.05"/>
      <point x="18.3029" y="-84.8978"/>
      <point x="39.25" y="19.25" type="curve" smooth="yes"/>
    </contour>
  </outline>
</glyph>
<glyph name="g" format="1">
  <advance width="484"/>
  <unicode hex="0067"/>
  <outline>
    <contour>
      <point x="300.441" y="-106.335" type="curve" smooth="yes"/>
      <point x="300.441" y="-45.6118"/>
      <point x="231.893" y="-39.7733"/>
      <point x="164.186" y="-32.25" type="curve" smooth="yes"/>
      <point x="162.086" y="-32.25"/>
      <point x="156.536" y="-31.2002"/>
      <point x="156.536" y="-31.2002" type="curve"/>
      <point x="72.6123" y="-56.0176"/>
      <point x="-14.7395" y="-84.3987"/>
      <point x="-14.7395" y="-172.913" type="curve" smooth="yes"/>
      <point x="-14.7395" y="-222.445"/>
      <point x="32.2345" y="-245.4"/>
      <point x="90.6855" y="-245.4" type="curve" smooth="yes"/>
      <point x="179.769" y="-245.4"/>
      <point x="300.441" y="-198.109"/>
    </contour>
    <contour>
      <point x="194.636" y="136.8" type="curve" smooth="yes"/>
      <point x="298.815" y="136.8"/>
      <point x="336.156" y="280.714"/>
      <point x="336.156" y="392.751" type="curve" smooth="yes"/>
      <point x="336.156" y="453.775"/>
      <point x="310.304" y="481.2"/>
      <point x="251.336" y="481.2" type="curve" smooth="yes"/>
      <point x="159.248" y="481.2"/>
      <point x="117.822" y="342.926"/>
      <point x="117.822" y="241.908" type="curve" smooth="yes"/>
      <point x="117.822" y="179.203"/>
      <point x="140.733" y="136.8"/>
    </contour>
    <contour>
      <point x="84.3857" y="-271.65" type="curve" smooth="yes"/>
      <point x="-0.0299634" y="-271.65"/>
      <point x="-80.1609" y="-253.657"/>
      <point x="-80.1609" y="-187.487" type="curve" smooth="yes"/>
      <point x="-80.1609" y="-81.5332"/>
      <point x="59.4104" y="-48.5599"/>
      <point x="131.636" y="-27" type="curve"/>
      <point x="96.9863" y="-24.9004"/>
      <point x="68.6357" y="-20.7002"/>
      <point x="48.6855" y="-15.4502" type="curve" smooth="yes"/>
      <point x="24.5287" y="-9.65273"/>
      <point x="3.03987" y="1.48073"/>
      <point x="3.03987" y="18.7676" type="curve" smooth="yes"/>
      <point x="3.03987" y="64.9027"/>
      <point x="129.041" y="92.6461"/>
      <point x="159.986" y="104.25" type="curve"/>
      <point x="103.449" y="108.533"/>
      <point x="45.6133" y="149.566"/>
      <point x="45.6133" y="246.707" type="curve" smooth="yes"/>
      <point x="45.6133" y="410.303"/>
      <point x="151.734" y="511.65"/>
      <point x="269.186" y="511.65" type="curve" smooth="yes"/>
      <point x="304.886" y="511.65"/>
      <point x="341.536" y="501.15"/>
      <point x="364.636" y="474.9" type="curve"/>
      <point x="398.236" y="495.9"/>
      <point x="426.586" y="508.5"/>
      <point x="463.336" y="508.5" type="curve" smooth="yes"/>
      <point x="469.185" y="508.5"/>
      <point x="472.375" y="503.179"/>
      <point x="472.375" y="495.185" type="curve" smooth="yes"/>
      <point x="472.375" y="465.699"/>
      <point x="435.024" y="440.25"/>
      <point x="406.636" y="440.25" type="curve" smooth="yes"/>
      <point x="400.336" y="440.25"/>
      <point x="392.986" y="441.3"/>
      <point x="385.636" y="443.4" type="curve"/>
      <point x="394.061" y="423.541"/>
      <point x="399.333" y="398.853"/>
      <point x="399.333" y="368.545" type="curve" smooth="yes"/>
      <point x="399.333" y="121.904"/>
      <point x="224.527" y="115.961"/>
      <point x="108.536" y="60.1504" type="curve" smooth="yes"/>
      <point x="102.286" y="57.1432"/>
      <point x="95.7871" y="52.2383"/>
      <point x="95.7871" y="45.7549" type="curve" smooth="yes"/>
      <point x="95.7871" y="36.7256"/>
      <point x="105.386" y="35.5625"/>
      <point x="111.486" y="33.9004" type="curve" smooth="yes"/>
      <point x="116.942" y="32.4141"/>
      <point x="137.655" y="30.0742"/>
      <point x="151.036" y="28.7998" type="curve" smooth="yes"/>
      <point x="176.354" y="26.3887"/>
      <point x="197.953" y="26.2534"/>
      <point x="226.136" y="24.4502" type="curve" smooth="yes"/>
      <point x="304.681" y="19.4247"/>
      <point x="357.086" y="-5.72392"/>
      <point x="357.086" y="-67.3282" type="curve" smooth="yes"/>
      <point x="357.086" y="-203.377"/>
      <point x="195.347" y="-271.65"/>
    </contour>
  </outline>
</glyph>
<glyph name="h" format="1">
  <advance width="502"/>
  <unicode hex="0068"/>
  <outline>
    <contour>
      <point x="316.28" y="136.175" type="curve" smooth="yes"/>
      <point x="365.63" y="349.325" type="line" smooth="yes"/>
      <point x="368.544" y="361.912"/>
      <point x="369.943" y="374.006"/>
      <point x="369.943" y="385.392" type="curve" smooth="yes"/>
      <point x="369.943" y="438.643"/>
      <point x="339.338" y="476.375"/>
      <point x="290.03" y="476.375" type="curve" smooth="yes"/>
      <point x="258.53" y="476.375"/>
      <point x="225.979" y="462.83"/>
      <point x="164.03" y="396.68" type="curve"/>
      <point x="71.6299" y="-0.325195" type="line"/>
      <point x="3.58008" y="-0.325195" type="line"/>
      <point x="168" y="692" type="line" smooth="yes"/>
      <point x="169.2" y="697.4"/>
      <point x="169.8" y="703.199"/>
      <point x="169.8" y="707.424" type="curve" smooth="yes"/>
      <point x="169.8" y="717.984"/>
      <point x="166.05" y="723.949"/>
      <point x="158.55" y="727.699" type="curve" smooth="yes"/>
      <point x="154.35" y="729.8"/>
      <point x="139.649" y="731.899"/>
      <point x="135.449" y="731.899" type="curve"/>
      <point x="139.649" y="745.55" type="line"/>
      <point x="235.55" y="771.899" type="line" smooth="yes"/>
      <point x="237.711" y="772.493"/>
      <point x="242.649" y="773.949"/>
      <point x="243.699" y="773.949" type="curve" smooth="yes"/>
      <point x="245.948" y="773.949"/>
      <point x="248.988" y="773.144"/>
      <point x="248.988" y="769.37" type="curve" smooth="yes"/>
      <point x="248.988" y="766.097"/>
      <point x="248.206" y="761.342"/>
      <point x="246.75" y="755" type="curve" smooth="yes"/>
      <point x="171.38" y="429.125" type="line"/>
      <point x="228.08" y="494.225"/>
      <point x="260.63" y="508.925"/>
      <point x="314.18" y="508.925" type="curve" smooth="yes"/>
      <point x="376.818" y="508.925"/>
      <point x="440.463" y="471.303"/>
      <point x="440.463" y="391.175" type="curve" smooth="yes"/>
      <point x="440.463" y="378.624"/>
      <point x="438.902" y="365.03"/>
      <point x="435.53" y="350.375" type="curve" smooth="yes"/>
      <point x="382.08" y="126.725" type="line" smooth="yes"/>
      <point x="376.83" y="103.625"/>
      <point x="368.327" y="72.2979"/>
      <point x="368.327" y="59.5254" type="curve" smooth="yes"/>
      <point x="368.327" y="52.1748"/>
      <point x="374.524" y="37.375"/>
      <point x="388.175" y="37.375" type="curve" smooth="yes"/>
      <point x="406.548" y="37.375"/>
      <point x="418.625" y="40.5254"/>
      <point x="443.825" y="59.4248" type="curve"/>
      <point x="452.225" y="46.9248" type="line"/>
      <point x="433.325" y="17.3252"/>
      <point x="380.13" y="-9.97461"/>
      <point x="342.33" y="-9.97461" type="curve" smooth="yes"/>
      <point x="316.397" y="-9.97461"/>
      <point x="298.556" y="4.03711"/>
      <point x="298.33" y="37.4746" type="curve" smooth="yes"/>
      <point x="298.328" y="37.7098"/>
      <point x="298.328" y="37.9458"/>
      <point x="298.328" y="38.1825" type="curve" smooth="yes"/>
      <point x="298.328" y="62.8815"/>
      <point x="306.92" y="95.6133"/>
    </contour>
  </outline>
</glyph>
<glyph name="i" format="1">
  <advance width="294"/>
  <unicode hex="0069"/>
  <outline>
    <contour>
      <point x="190.892" y="358.725" type="curve" smooth="yes"/>
      <point x="136.752" y="130.475" type="line" smooth="yes"/>
      <point x="130.615" y="105.072"/>
      <point x="122.671" y="74.791"/>
      <point x="122.671" y="58.9443" type="curve" smooth="yes"/>
      <point x="122.671" y="47.4746"/>
      <point x="129.806" y="38.125"/>
      <point x="142.847" y="38.125" type="curve" smooth="yes"/>
      <point x="161.22" y="38.125"/>
      <point x="173.297" y="42.2754"/>
      <point x="198.497" y="61.1748" type="curve"/>
      <point x="206.896" y="50.6748" type="line"/>
      <point x="187.997" y="17.0752"/>
      <point x="129.802" y="-10.2246"/>
      <point x="92.002" y="-10.2246" type="curve" smooth="yes"/>
      <point x="65.8721" y="-10.2246"/>
      <point x="51" y="8.11719"/>
      <point x="51" y="41.9287" type="curve" smooth="yes"/>
      <point x="51" y="66.6279"/>
      <point x="59.6445" y="99.3252"/>
      <point x="69.9521" y="139.925" type="curve" smooth="yes"/>
      <point x="122.289" y="350" type="line" smooth="yes"/>
      <point x="127.679" y="373"/>
      <point x="141.622" y="436.254"/>
      <point x="141.892" y="449.025" type="curve" smooth="yes"/>
      <point x="141.896" y="449.199"/>
      <point x="141.897" y="449.371"/>
      <point x="141.897" y="449.542" type="curve" smooth="yes"/>
      <point x="141.897" y="459.731"/>
      <point x="135.436" y="465.825"/>
      <point x="126.142" y="465.825" type="curve" smooth="yes"/>
      <point x="108.345" y="465.825"/>
      <point x="97.5771" y="462.22"/>
      <point x="79.1943" y="445.675" type="curve"/>
      <point x="68.7441" y="456.225" type="line"/>
      <point x="86.9619" y="491.259"/>
      <point x="121.677" y="513.075"/>
      <point x="174.041" y="513.075" type="curve" smooth="yes"/>
      <point x="199.683" y="513.075"/>
      <point x="215.715" y="503.712"/>
      <point x="215.873" y="480.525" type="curve" smooth="yes"/>
      <point x="215.874" y="480.393"/>
      <point x="215.874" y="480.26"/>
      <point x="215.874" y="480.125" type="curve" smooth="yes"/>
      <point x="215.874" y="454.921"/>
      <point x="200.072" y="398.945"/>
    </contour>
    <contour>
      <point x="219.151" y="716.225" type="curve" smooth="yes"/>
      <point x="239.825" y="716.225"/>
      <point x="255.039" y="701.568"/>
      <point x="255.039" y="680.223" type="curve" smooth="yes"/>
      <point x="255.039" y="646.004"/>
      <point x="225.283" y="624.625"/>
      <point x="199.102" y="624.625" type="curve" smooth="yes"/>
      <point x="178.737" y="624.625"/>
      <point x="165.093" y="636.713"/>
      <point x="165.093" y="656.872" type="curve" smooth="yes"/>
      <point x="165.093" y="690.881"/>
      <point x="193.035" y="716.225"/>
    </contour>
  </outline>
</glyph>
<glyph name="j" format="1">
  <advance width="325"/>
  <unicode hex="006A"/>
  <outline>
    <contour>
      <point x="241.862" y="716.225" type="curve" smooth="yes"/>
      <point x="262.536" y="716.225"/>
      <point x="277.75" y="701.568"/>
      <point x="277.75" y="680.223" type="curve" smooth="yes"/>
      <point x="277.75" y="646.004"/>
      <point x="247.994" y="624.625"/>
      <point x="221.812" y="624.625" type="curve" smooth="yes"/>
      <point x="201.448" y="624.625"/>
      <point x="187.804" y="636.713"/>
      <point x="187.804" y="656.872" type="curve" smooth="yes"/>
      <point x="187.804" y="690.881"/>
      <point x="215.746" y="716.225"/>
    </contour>
    <contour>
      <point x="227.86" y="359.3" type="curve" smooth="yes"/>
      <point x="163.811" y="81.0498" type="line" smooth="yes"/>
      <point x="160.66" y="66.3496"/>
      <point x="156.46" y="51.6504"/>
      <point x="153.311" y="36.9502" type="curve" smooth="yes"/>
      <point x="140.71" y="-16.5996"/>
      <point x="121.811" y="-51.25"/>
      <point x="73.5107" y="-94.2998" type="curve" smooth="yes"/>
      <point x="42.0107" y="-121.6"/>
      <point x="-27.04" y="-165.7"/>
      <point x="-97.3896" y="-165.7" type="curve" smooth="yes"/>
      <point x="-117.34" y="-165.7"/>
      <point x="-137.29" y="-161.5"/>
      <point x="-157.239" y="-153.1" type="curve" smooth="yes"/>
      <point x="-162.574" y="-150.814"/>
      <point x="-164.037" y="-147.422"/>
      <point x="-164.037" y="-143.325" type="curve" smooth="yes"/>
      <point x="-164.037" y="-115.389"/>
      <point x="-123.082" y="-92.2002"/>
      <point x="-100.54" y="-92.2002" type="curve" smooth="yes"/>
      <point x="-72.1895" y="-92.2002"/>
      <point x="-56.4395" y="-117.4"/>
      <point x="-29.1396" y="-117.4" type="curve" smooth="yes"/>
      <point x="-20.7393" y="-117.4"/>
      <point x="-10.2393" y="-114.25"/>
      <point x="0.260742" y="-109" type="curve" smooth="yes"/>
      <point x="56.96" y="-80.6504"/>
      <point x="65.3604" y="-48.0996"/>
      <point x="81.1104" y="20.1504" type="curve" smooth="yes"/>
      <point x="155.162" y="340.4" type="line" smooth="yes"/>
      <point x="161.96" y="369.8" type="line" smooth="yes"/>
      <point x="167.21" y="393.95"/>
      <point x="176.391" y="434.729"/>
      <point x="176.66" y="447.5" type="curve" smooth="yes"/>
      <point x="176.664" y="447.674"/>
      <point x="176.666" y="447.846"/>
      <point x="176.666" y="448.017" type="curve" smooth="yes"/>
      <point x="176.666" y="458.206"/>
      <point x="170.204" y="464.3"/>
      <point x="160.91" y="464.3" type="curve" smooth="yes"/>
      <point x="142.114" y="464.3"/>
      <point x="130.347" y="457.694"/>
      <point x="108.963" y="440.15" type="curve"/>
      <point x="99.5127" y="451.7" type="line"/>
      <point x="118.021" y="484.475"/>
      <point x="155.62" y="511.55"/>
      <point x="205.811" y="511.55" type="curve" smooth="yes"/>
      <point x="231.703" y="511.55"/>
      <point x="248.644" y="502.083"/>
      <point x="248.644" y="478.454" type="curve" smooth="yes"/>
      <point x="248.644" y="453.211"/>
      <point x="237.023" y="399.442"/>
    </contour>
  </outline>
</glyph>
<glyph name="k" format="1">
  <advance width="501"/>
  <unicode hex="006B"/>
  <outline>
    <contour>
      <point x="302.83" y="192.875" type="curve" smooth="yes"/>
      <point x="328" y="141"/>
      <point x="359.729" y="76.3252"/>
      <point x="370.127" y="60.5752" type="curve" smooth="yes"/>
      <point x="374.177" y="54.4414"/>
      <point x="384.725" y="36.4248"/>
      <point x="398.375" y="36.4248" type="curve" smooth="yes"/>
      <point x="416.748" y="36.4248"/>
      <point x="427.774" y="38.5254"/>
      <point x="452.975" y="57.4248" type="curve"/>
      <point x="461.375" y="46.9248" type="line"/>
      <point x="442.475" y="13.3252"/>
      <point x="405.68" y="-9.9248"/>
      <point x="367.88" y="-9.9248" type="curve" smooth="yes"/>
      <point x="341.947" y="-9.9248"/>
      <point x="325.352" y="6.25586"/>
      <point x="307.131" y="38.5254" type="curve" smooth="yes"/>
      <point x="298.83" y="53.2246"/>
      <point x="277.63" y="96.2754"/>
      <point x="236.68" y="183.425" type="curve" smooth="yes"/>
      <point x="199.768" y="261.981"/>
      <point x="195.729" y="295.775"/>
      <point x="166.33" y="295.775" type="curve" smooth="yes"/>
      <point x="161.08" y="295.775"/>
      <point x="155.83" y="294.725"/>
      <point x="150.58" y="290.525" type="curve"/>
      <point x="83.3799" y="0.724609" type="line"/>
      <point x="13.4297" y="0.724609" type="line"/>
      <point x="178" y="690" type="line" smooth="yes"/>
      <point x="179.473" y="696.998"/>
      <point x="180.301" y="703.221"/>
      <point x="180.301" y="708.533" type="curve" smooth="yes"/>
      <point x="180.301" y="718.364"/>
      <point x="177.467" y="725.073"/>
      <point x="170.65" y="727.8" type="curve" smooth="yes"/>
      <point x="166.45" y="729.899"/>
      <point x="150.7" y="729.899"/>
      <point x="146.5" y="729.899" type="curve"/>
      <point x="149.65" y="743.55" type="line"/>
      <point x="239.95" y="768.75" type="line" smooth="yes"/>
      <point x="243.1" y="769.8"/>
      <point x="247.25" y="770.85"/>
      <point x="249.35" y="770.85" type="curve" smooth="yes"/>
      <point x="253.962" y="770.85"/>
      <point x="257.886" y="769.036"/>
      <point x="257.886" y="762.585" type="curve" smooth="yes"/>
      <point x="257.886" y="760.225"/>
      <point x="257.261" y="755.659"/>
      <point x="256.65" y="753" type="curve" smooth="yes"/>
      <point x="164.229" y="350.375" type="line" smooth="yes"/>
      <point x="163.659" y="347.52"/>
      <point x="163.398" y="344.995"/>
      <point x="163.398" y="342.762" type="curve" smooth="yes"/>
      <point x="163.398" y="328.577"/>
      <point x="173.915" y="326.225"/>
      <point x="182.08" y="326.225" type="curve" smooth="yes"/>
      <point x="194.68" y="326.225"/>
      <point x="254.518" y="390.583"/>
      <point x="291.28" y="425.975" type="curve" smooth="yes"/>
      <point x="311.608" y="445.544"/>
      <point x="323.526" y="456.135"/>
      <point x="340" y="471" type="curve" smooth="yes"/>
      <point x="374.367" y="502.01"/>
      <point x="396.767" y="511.985"/>
      <point x="414.963" y="511.985" type="curve" smooth="yes"/>
      <point x="438.915" y="511.985"/>
      <point x="456.71" y="497.318"/>
      <point x="456.71" y="476.629" type="curve" smooth="yes"/>
      <point x="456.71" y="454.965"/>
      <point x="439.851" y="436.51"/>
      <point x="423.875" y="436.51" type="curve" smooth="yes"/>
      <point x="412.54" y="436.51"/>
      <point x="406.999" y="441.593"/>
      <point x="399.379" y="451.869" type="curve" smooth="yes"/>
      <point x="394.233" y="458.811"/>
      <point x="391.391" y="465.03"/>
      <point x="385.752" y="465.03" type="curve" smooth="yes"/>
      <point x="379.322" y="465.03"/>
      <point x="369.896" y="456.092"/>
      <point x="357.533" y="444.586" type="curve" smooth="yes"/>
      <point x="324.88" y="412.515" type="line" smooth="yes"/>
      <point x="307.477" y="394.356"/>
      <point x="266.63" y="351.994"/>
      <point x="244.03" y="327.275" type="curve"/>
      <point x="244.03" y="312.575"/>
      <point x="278" y="245"/>
    </contour>
  </outline>
</glyph>
<glyph name="l" format="1">
  <advance width="284"/>
  <unicode hex="006C"/>
  <outline>
    <contour>
      <point x="44.2617" y="140.5" type="curve" smooth="yes"/>
      <point x="175" y="693" type="line" smooth="yes"/>
      <point x="176.387" y="699.009"/>
      <point x="177.105" y="704.374"/>
      <point x="177.105" y="709.066" type="curve" smooth="yes"/>
      <point x="177.105" y="719.175"/>
      <point x="173.771" y="726.164"/>
      <point x="166.6" y="729.75" type="curve" smooth="yes"/>
      <point x="162.399" y="731.851"/>
      <point x="147.7" y="732.9"/>
      <point x="143.5" y="732.9" type="curve"/>
      <point x="146.649" y="746.55" type="line"/>
      <point x="247.6" y="772.851" type="line" smooth="yes"/>
      <point x="249.521" y="773.347"/>
      <point x="251.7" y="773.851"/>
      <point x="252.75" y="773.851" type="curve" smooth="yes"/>
      <point x="254.973" y="773.851"/>
      <point x="256.956" y="772.353"/>
      <point x="256.956" y="769.09" type="curve" smooth="yes"/>
      <point x="256.956" y="766.188"/>
      <point x="256.178" y="761.887"/>
      <point x="254.8" y="756" type="curve" smooth="yes"/>
      <point x="111.512" y="131.05" type="line" smooth="yes"/>
      <point x="106.328" y="107.794"/>
      <point x="97.7598" y="76.623"/>
      <point x="97.7598" y="63.8496" type="curve" smooth="yes"/>
      <point x="97.7598" y="46.2021"/>
      <point x="107.072" y="39.7725"/>
      <point x="119.768" y="39.7725" type="curve" smooth="yes"/>
      <point x="136.22" y="39.7725"/>
      <point x="158.351" y="50.5703"/>
      <point x="173.257" y="61.75" type="curve"/>
      <point x="181.657" y="51.25" type="line"/>
      <point x="162.757" y="17.6504"/>
      <point x="105.212" y="-9.65039"/>
      <point x="67.4121" y="-9.65039" type="curve" smooth="yes"/>
      <point x="41.2803" y="-9.65039"/>
      <point x="26.3105" y="8.69336"/>
      <point x="26.3105" y="42.5078" type="curve" smooth="yes"/>
      <point x="26.3105" y="67.207"/>
      <point x="34.9053" y="100.031"/>
    </contour>
  </outline>
</glyph>
<glyph name="m" format="1">
  <advance width="789"/>
  <unicode hex="006D"/>
  <outline>
    <contour>
      <point x="592.979" y="139.7" type="curve" smooth="yes"/>
      <point x="642.38" y="339.5" type="line" smooth="yes"/>
      <point x="646.703" y="357.528"/>
      <point x="648.834" y="373.998"/>
      <point x="648.834" y="388.705" type="curve" smooth="yes"/>
      <point x="648.834" y="439.858"/>
      <point x="623.061" y="469.7"/>
      <point x="574.13" y="469.7" type="curve" smooth="yes"/>
      <point x="539.479" y="469.7"/>
      <point x="498.93" y="468.35"/>
      <point x="445.38" y="401.15" type="curve"/>
      <point x="444.38" y="396.95"/>
      <point x="443.979" y="390.781"/>
      <point x="442.28" y="383.4" type="curve" smooth="yes"/>
      <point x="354.08" y="0.200195" type="line"/>
      <point x="353.534" y="0.20073"/>
      <point x="352.988" y="0.200989"/>
      <point x="352.441" y="0.200989" type="curve" smooth="yes"/>
      <point x="282.03" y="0.200195" type="line"/>
      <point x="369.88" y="352.85" type="line" smooth="yes"/>
      <point x="372.634" y="364.762"/>
      <point x="373.945" y="376.116"/>
      <point x="373.945" y="386.767" type="curve" smooth="yes"/>
      <point x="373.945" y="440.017"/>
      <point x="341.178" y="475.7"/>
      <point x="292.18" y="475.7" type="curve" smooth="yes"/>
      <point x="255.43" y="475.7"/>
      <point x="211.68" y="461"/>
      <point x="169.68" y="431.6" type="curve"/>
      <point x="67.9795" y="0.200195" type="line"/>
      <point x="-3.12012" y="0.200195" type="line"/>
      <point x="88.9795" y="378.05" type="line" smooth="yes"/>
      <point x="95.2803" y="404.3"/>
      <point x="103.68" y="444.325"/>
      <point x="103.68" y="451.7" type="curve" smooth="yes"/>
      <point x="103.68" y="461.528"/>
      <point x="101.33" y="470.45"/>
      <point x="85.8799" y="470.45" type="curve" smooth="yes"/>
      <point x="69.1836" y="470.45"/>
      <point x="55.5156" y="457.944"/>
      <point x="40.1826" y="441.5" type="curve"/>
      <point x="30.7324" y="453.05" type="line"/>
      <point x="46.2129" y="482.455"/>
      <point x="81.7479" y="512.519"/>
      <point x="126.059" y="512.519" type="curve" smooth="yes"/>
      <point x="168.452" y="512.519"/>
      <point x="176.788" y="497.681"/>
      <point x="176.788" y="478.999" type="curve" smooth="yes"/>
      <point x="176.788" y="471.954"/>
      <point x="176.081" y="464.838"/>
      <point x="174.777" y="458.9" type="curve"/>
      <point x="218.979" y="493.55"/>
      <point x="265.93" y="512.45"/>
      <point x="319.479" y="512.45" type="curve" smooth="yes"/>
      <point x="373.03" y="512.45"/>
      <point x="420.28" y="488.3"/>
      <point x="433.93" y="425.3" type="curve"/>
      <point x="486.43" y="492.5"/>
      <point x="532.13" y="503.25"/>
      <point x="590.93" y="503.25" type="curve" smooth="yes"/>
      <point x="653.421" y="503.25"/>
      <point x="717.476" y="466.493"/>
      <point x="717.476" y="387.055" type="curve" smooth="yes"/>
      <point x="717.476" y="374.395"/>
      <point x="715.849" y="360.652"/>
      <point x="712.33" y="345.8" type="curve" smooth="yes"/>
      <point x="659.78" y="130.25" type="line" smooth="yes"/>
      <point x="654.53" y="107.15"/>
      <point x="646.027" y="74.8232"/>
      <point x="646.027" y="62.0498" type="curve" smooth="yes"/>
      <point x="646.027" y="54.7002"/>
      <point x="649.225" y="38.9004"/>
      <point x="665.875" y="38.9004" type="curve" smooth="yes"/>
      <point x="684.248" y="38.9004"/>
      <point x="696.325" y="42.0498"/>
      <point x="721.524" y="60.9502" type="curve"/>
      <point x="729.925" y="50.4502" type="line"/>
      <point x="710.024" y="17.8496"/>
      <point x="654.83" y="-10.4502"/>
      <point x="623.03" y="-10.4502" type="curve" smooth="yes"/>
      <point x="586.886" y="-10.4502"/>
      <point x="575.028" y="7.8288"/>
      <point x="575.028" y="41.7079" type="curve" smooth="yes"/>
      <point x="575.028" y="66.406"/>
      <point x="583.62" y="99.1387"/>
    </contour>
  </outline>
</glyph>
<glyph name="n" format="1">
  <advance width="519"/>
  <unicode hex="006E"/>
  <outline>
    <contour>
      <point x="170.275" y="432.65" type="curve"/>
      <point x="197.339" y="465.959"/>
      <point x="257.659" y="512.461"/>
      <point x="318.97" y="512.461" type="curve" smooth="yes"/>
      <point x="382.896" y="512.461"/>
      <point x="448.964" y="475.369"/>
      <point x="448.964" y="394.725" type="curve" smooth="yes"/>
      <point x="448.964" y="382.492"/>
      <point x="447.448" y="369.244"/>
      <point x="444.175" y="354.95" type="curve" smooth="yes"/>
      <point x="390.625" y="130.25" type="line" smooth="yes"/>
      <point x="385.375" y="107.15"/>
      <point x="375.873" y="73.8232"/>
      <point x="375.873" y="61.0498" type="curve" smooth="yes"/>
      <point x="375.873" y="53.7002"/>
      <point x="382.07" y="37.9004"/>
      <point x="395.72" y="37.9004" type="curve" smooth="yes"/>
      <point x="414.093" y="37.9004"/>
      <point x="427.17" y="42.0498"/>
      <point x="452.37" y="60.9502" type="curve"/>
      <point x="460.771" y="50.4502" type="line"/>
      <point x="441.87" y="16.8496"/>
      <point x="383.675" y="-10.4502"/>
      <point x="345.875" y="-10.4502" type="curve" smooth="yes"/>
      <point x="319.754" y="-10.4502"/>
      <point x="305.874" y="7.90234"/>
      <point x="305.874" y="41.7041" type="curve" smooth="yes"/>
      <point x="305.874" y="66.4023"/>
      <point x="314.518" y="99.1367"/>
      <point x="323.825" y="139.7" type="curve" smooth="yes"/>
      <point x="377.275" y="353.9" type="line" smooth="yes"/>
      <point x="379.646" y="364.186"/>
      <point x="380.764" y="373.974"/>
      <point x="380.764" y="383.19" type="curve" smooth="yes"/>
      <point x="380.764" y="437.128"/>
      <point x="342.444" y="471.5"/>
      <point x="292.226" y="471.5" type="curve" smooth="yes"/>
      <point x="261.775" y="471.5"/>
      <point x="205.025" y="447.35"/>
      <point x="161.976" y="400.1" type="curve"/>
      <point x="69.5254" y="0.200195" type="line"/>
      <point x="-2.5752" y="0.200195" type="line"/>
      <point x="89.5752" y="378.05" type="line" smooth="yes"/>
      <point x="96.5213" y="406.53"/>
      <point x="104" y="443.083"/>
      <point x="104" y="455" type="curve" smooth="yes"/>
      <point x="104" y="464.828"/>
      <point x="96.6494" y="470.75"/>
      <point x="87.2002" y="470.75" type="curve" smooth="yes"/>
      <point x="70.5029" y="470.75"/>
      <point x="57.1113" y="457.944"/>
      <point x="40.7783" y="441.5" type="curve"/>
      <point x="31.3281" y="453.05" type="line"/>
      <point x="49.4164" y="485.083"/>
      <point x="80.373" y="512.45"/>
      <point x="129.425" y="512.45" type="curve" smooth="yes"/>
      <point x="170.284" y="512.45"/>
      <point x="177.383" y="497.05"/>
      <point x="177.383" y="476.472" type="curve" smooth="yes"/>
      <point x="177.383" y="466.651"/>
      <point x="177.192" y="459.165"/>
    </contour>
  </outline>
</glyph>
<glyph name="o" format="1">
  <advance width="486"/>
  <unicode hex="006F"/>
  <outline>
    <contour>
      <point x="179.075" y="-10.375" type="curve" smooth="yes"/>
      <point x="84.2765" y="-10.375"/>
      <point x="12.6758" y="27.8343"/>
      <point x="12.6758" y="147.155" type="curve" smooth="yes"/>
      <point x="12.6758" y="351.564"/>
      <point x="148.086" y="511.375"/>
      <point x="283.025" y="511.375" type="curve" smooth="yes"/>
      <point x="375.41" y="511.375"/>
      <point x="445.902" y="471.759"/>
      <point x="445.902" y="352.659" type="curve" smooth="yes"/>
      <point x="445.902" y="148.391"/>
      <point x="320.245" y="-10.375"/>
    </contour>
    <contour>
      <point x="83.8214" y="136.664" type="curve" smooth="yes"/>
      <point x="83.8214" y="64.6199"/>
      <point x="110.999" y="21.125"/>
      <point x="190.626" y="21.125" type="curve" smooth="yes"/>
      <point x="310.697" y="21.125"/>
      <point x="376.484" y="235.122"/>
      <point x="376.484" y="367.976" type="curve" smooth="yes"/>
      <point x="376.484" y="437.732"/>
      <point x="349.638" y="479.875"/>
      <point x="268.325" y="479.875" type="curve" smooth="yes"/>
      <point x="143.937" y="479.875"/>
      <point x="83.8214" y="268.776"/>
    </contour>
  </outline>
</glyph>
<glyph name="p" format="1">
  <advance width="527"/>
  <unicode hex="0070"/>
  <outline>
    <contour>
      <point x="110.075" y="377.425" type="line" smooth="yes"/>
      <point x="113.056" y="389.945"/>
      <point x="124.829" y="436.02"/>
      <point x="124.829" y="451.483" type="curve" smooth="yes"/>
      <point x="124.829" y="461.723"/>
      <point x="115.417" y="465.925"/>
      <point x="106.075" y="465.925" type="curve" smooth="yes"/>
      <point x="89.2783" y="465.925"/>
      <point x="76.7295" y="459.119"/>
      <point x="55.3457" y="441.575" type="curve"/>
      <point x="45.8965" y="453.125" type="line"/>
      <point x="64.7227" y="486.463"/>
      <point x="101.736" y="511.975"/>
      <point x="153.193" y="511.975" type="curve" smooth="yes"/>
      <point x="178.834" y="511.975"/>
      <point x="198.125" y="501.563"/>
      <point x="198.125" y="482.575" type="curve" smooth="yes"/>
      <point x="198.125" y="479.112"/>
      <point x="195.938" y="455.465"/>
      <point x="193.725" y="448.825" type="curve"/>
      <point x="230.475" y="487.675"/>
      <point x="270.525" y="511.825"/>
      <point x="315.675" y="511.825" type="curve" smooth="yes"/>
      <point x="404.664" y="511.825"/>
      <point x="478.911" y="462.382"/>
      <point x="478.911" y="340.581" type="curve" smooth="yes"/>
      <point x="478.911" y="113.13"/>
      <point x="348.232" y="-10.0254"/>
      <point x="197.025" y="-10.0254" type="curve" smooth="yes"/>
      <point x="163.425" y="-10.0254"/>
      <point x="125.625" y="-0.575195"/>
      <point x="94.125" y="27.7754" type="curve"/>
      <point x="26.9492" y="-232" type="line"/>
      <point x="-35" y="-232" type="line"/>
    </contour>
    <contour>
      <point x="187.475" y="419.425" type="curve"/>
      <point x="116.175" y="121.225" type="line"/>
      <point x="120.375" y="63.4746"/>
      <point x="141.375" y="13.0752"/>
      <point x="210.675" y="13.0752" type="curve" smooth="yes"/>
      <point x="321.343" y="13.0752"/>
      <point x="402.896" y="175.327"/>
      <point x="402.896" y="340.533" type="curve" smooth="yes"/>
      <point x="402.896" y="421.51"/>
      <point x="372.68" y="480.325"/>
      <point x="294.625" y="480.325" type="curve" smooth="yes"/>
      <point x="267.325" y="480.325"/>
      <point x="227.375" y="454.075"/>
    </contour>
  </outline>
</glyph>
<glyph name="q" format="1">
  <advance width="540"/>
  <unicode hex="0071"/>
  <outline>
    <contour>
      <point x="241.559" y="29.25" type="curve" smooth="yes"/>
      <point x="266.758" y="29.25"/>
      <point x="296.158" y="34.5"/>
      <point x="330.809" y="52.3496" type="curve"/>
      <point x="416.542" y="407.25" type="line" smooth="yes"/>
      <point x="417.053" y="408.784"/>
      <point x="417.29" y="409.808"/>
      <point x="417.29" y="410.703" type="curve" smooth="yes"/>
      <point x="417.29" y="411.646"/>
      <point x="417.027" y="412.447"/>
      <point x="416.542" y="413.55" type="curve" smooth="yes"/>
      <point x="397.643" y="456.6"/>
      <point x="363.358" y="489.15"/>
      <point x="309.809" y="489.15" type="curve" smooth="yes"/>
      <point x="198.019" y="489.15"/>
      <point x="116.883" y="337.595"/>
      <point x="116.883" y="180.643" type="curve" smooth="yes"/>
      <point x="116.883" y="95.8542"/>
      <point x="150.716" y="29.25"/>
    </contour>
    <contour>
      <point x="500.658" y="533.45" type="line" smooth="yes"/>
      <point x="502.892" y="535.277"/>
      <point x="505.758" y="536.55"/>
      <point x="506.809" y="536.55" type="curve" smooth="yes"/>
      <point x="508.639" y="536.55"/>
      <point x="511.76" y="535.422"/>
      <point x="511.76" y="532.167" type="curve" smooth="yes"/>
      <point x="511.76" y="529.1"/>
      <point x="510.178" y="521.928"/>
      <point x="508.858" y="516.65" type="curve" smooth="yes"/>
      <point x="332" y="-232" type="line"/>
      <point x="264.101" y="-232" type="line"/>
      <point x="322.458" y="22.9502" type="line"/>
      <point x="285.708" y="4.0498"/>
      <point x="246.809" y="-9.59961"/>
      <point x="203.758" y="-9.59961" type="curve" smooth="yes"/>
      <point x="108.428" y="-9.59961"/>
      <point x="39.7925" y="52.9187"/>
      <point x="39.7925" y="171.062" type="curve" smooth="yes"/>
      <point x="39.7925" y="382.139"/>
      <point x="161.512" y="512.25"/>
      <point x="321.358" y="512.25" type="curve" smooth="yes"/>
      <point x="354.958" y="512.25"/>
      <point x="402.893" y="497.55"/>
      <point x="434.393" y="463.95" type="curve"/>
      <point x="439.643" y="483.9" type="line"/>
    </contour>
  </outline>
</glyph>
<glyph name="r" format="1">
  <advance width="404"/>
  <unicode hex="0072"/>
  <outline>
    <contour>
      <point x="117.6" y="374.65" type="line" smooth="yes"/>
      <point x="123.132" y="398.735"/>
      <point x="130.98" y="435.379"/>
      <point x="131.25" y="448.15" type="curve" smooth="yes"/>
      <point x="131.254" y="448.324"/>
      <point x="131.255" y="448.496"/>
      <point x="131.255" y="448.667" type="curve" smooth="yes"/>
      <point x="131.255" y="458.857"/>
      <point x="124.794" y="464.95"/>
      <point x="115.5" y="464.95" type="curve" smooth="yes"/>
      <point x="96.7031" y="464.95"/>
      <point x="85.9365" y="459.345"/>
      <point x="64.5527" y="441.8" type="curve"/>
      <point x="54.1025" y="453.35" type="line"/>
      <point x="71.2963" y="483.799"/>
      <point x="108.235" y="512.2"/>
      <point x="154.4" y="512.2" type="curve" smooth="yes"/>
      <point x="181.041" y="512.2"/>
      <point x="200.231" y="502.837"/>
      <point x="200.231" y="479.65" type="curve" smooth="yes"/>
      <point x="200.231" y="456.24"/>
      <point x="197.3" y="434.5"/>
      <point x="197.3" y="434.5" type="curve"/>
      <point x="230.9" y="463.9"/>
      <point x="280.25" y="501.7"/>
      <point x="336.95" y="501.7" type="curve" smooth="yes"/>
      <point x="347.896" y="501.7"/>
      <point x="390.906" y="498.871"/>
      <point x="390.906" y="480.7" type="curve" smooth="yes"/>
      <point x="390.906" y="448.347"/>
      <point x="357.453" y="432.4"/>
      <point x="336.95" y="432.4" type="curve" smooth="yes"/>
      <point x="310.7" y="432.4"/>
      <point x="296" y="443.95"/>
      <point x="272.9" y="443.95" type="curve" smooth="yes"/>
      <point x="237.2" y="443.95"/>
      <point x="197.3" y="403"/>
      <point x="184.7" y="380.95" type="curve"/>
      <point x="96.5" y="-0.200195" type="line"/>
      <point x="24.5" y="-0.200195" type="line"/>
    </contour>
  </outline>
</glyph>
<glyph name="s" format="1">
  <advance width="390"/>
  <unicode hex="0073"/>
  <outline>
    <contour>
      <point x="117.314" y="19.0752" type="curve" smooth="yes"/>
      <point x="166.196" y="19.0752"/>
      <point x="245.292" y="46.9317"/>
      <point x="245.292" y="123.803" type="curve" smooth="yes"/>
      <point x="245.292" y="171.114"/>
      <point x="193.338" y="212.972"/>
      <point x="162.615" y="241.775" type="curve" smooth="yes"/>
      <point x="134.198" y="268.297"/>
      <point x="75.686" y="313.068"/>
      <point x="75.686" y="369.283" type="curve" smooth="yes"/>
      <point x="75.686" y="450.968"/>
      <point x="165.218" y="504"/>
      <point x="249.715" y="504" type="curve" smooth="yes"/>
      <point x="303.265" y="504"/>
      <point x="345" y="468.008"/>
      <point x="345" y="454" type="curve" smooth="yes"/>
      <point x="345" y="431.473"/>
      <point x="331.965" y="414.975"/>
      <point x="316.715" y="414.975" type="curve" smooth="yes"/>
      <point x="287.415" y="414.975"/>
      <point x="303.564" y="477.125"/>
      <point x="241.615" y="477.125" type="curve" smooth="yes"/>
      <point x="184.496" y="477.125"/>
      <point x="143.423" y="446.59"/>
      <point x="143.423" y="399.123" type="curve" smooth="yes"/>
      <point x="143.423" y="351.197"/>
      <point x="202.593" y="310.085"/>
      <point x="227.615" y="286.025" type="curve" smooth="yes"/>
      <point x="263.998" y="251.556"/>
      <point x="319.487" y="200.872"/>
      <point x="319.487" y="147.434" type="curve" smooth="yes"/>
      <point x="319.487" y="36.2656"/>
      <point x="187.531" y="-11.2754"/>
      <point x="112.215" y="-11.2754" type="curve" smooth="yes"/>
      <point x="10.3652" y="-11.2754"/>
      <point x="-20.8848" y="52.8076"/>
      <point x="-20.8848" y="80.8252" type="curve" smooth="yes"/>
      <point x="-20.8848" y="99.9053"/>
      <point x="-10.3594" y="125.975"/>
      <point x="13.6152" y="125.975" type="curve" smooth="yes"/>
      <point x="25.9971" y="125.975"/>
      <point x="41.4297" y="114.4"/>
      <point x="41.4297" y="103" type="curve" smooth="yes"/>
      <point x="41.4297" y="93.5186"/>
      <point x="33.8564" y="82.083"/>
      <point x="33.8564" y="72" type="curve" smooth="yes"/>
      <point x="33.8564" y="33.541"/>
      <point x="64.4062" y="19.0752"/>
    </contour>
  </outline>
</glyph>
<glyph name="t" format="1">
  <advance width="321"/>
  <unicode hex="0074"/>
  <outline>
    <contour>
      <point x="55.7695" y="159.175" type="curve" smooth="yes"/>
      <point x="121.565" y="435.55" type="line" smooth="yes"/>
      <point x="122.61" y="440.06"/>
      <point x="124.024" y="444.809"/>
      <point x="124.024" y="448.43" type="curve" smooth="yes"/>
      <point x="124.024" y="451.634"/>
      <point x="122.917" y="453.956"/>
      <point x="119.466" y="454.449" type="curve" smooth="yes"/>
      <point x="115.18" y="455.062"/>
      <point x="65.915" y="454.449"/>
      <point x="61.7158" y="455.5" type="curve" smooth="yes"/>
      <point x="60.7852" y="455.733"/>
      <point x="60.3614" y="458.026"/>
      <point x="60.3614" y="461.347" type="curve" smooth="yes"/>
      <point x="60.3614" y="471.459"/>
      <point x="64.2906" y="491.1"/>
      <point x="69.7998" y="491.1" type="curve" smooth="yes"/>
      <point x="75.0498" y="491.1"/>
      <point x="117.05" y="491.1"/>
      <point x="135.949" y="492.149" type="curve"/>
      <point x="142.25" y="510"/>
      <point x="166.95" y="610.434"/>
      <point x="176.4" y="642.983" type="curve" smooth="yes"/>
      <point x="178.471" y="650.114"/>
      <point x="230.7" y="653.483"/>
      <point x="232.8" y="653.483" type="curve" smooth="yes"/>
      <point x="236.868" y="653.483"/>
      <point x="240.185" y="651.294"/>
      <point x="240.185" y="644.654" type="curve" smooth="yes"/>
      <point x="240.185" y="641.011"/>
      <point x="239.488" y="636.029"/>
      <point x="238" y="629.333" type="curve" smooth="yes"/>
      <point x="231.7" y="600.983"/>
      <point x="208.3" y="519.449"/>
      <point x="202" y="491.1" type="curve"/>
      <point x="234.55" y="491.1"/>
      <point x="264.05" y="492.149"/>
      <point x="274.55" y="492.149" type="curve" smooth="yes"/>
      <point x="288.403" y="492.149"/>
      <point x="292.975" y="489.294"/>
      <point x="292.975" y="483.582" type="curve" smooth="yes"/>
      <point x="292.975" y="477.865"/>
      <point x="288.319" y="465.5"/>
      <point x="285.25" y="460" type="curve" smooth="yes"/>
      <point x="282.216" y="453.399" type="line"/>
      <point x="277.59" y="453.399"/>
      <point x="222.941" y="454.449"/>
      <point x="194.915" y="454.449" type="curve"/>
      <point x="168.486" y="346.993"/>
      <point x="141.465" y="239.13"/>
      <point x="115.885" y="130.825" type="curve" smooth="yes"/>
      <point x="110.552" y="107.817"/>
      <point x="101.135" y="70.998"/>
      <point x="101.135" y="58.2246" type="curve" smooth="yes"/>
      <point x="101.135" y="50.875"/>
      <point x="106.332" y="35.0752"/>
      <point x="119.982" y="35.0752" type="curve" smooth="yes"/>
      <point x="138.355" y="35.0752"/>
      <point x="156.58" y="38.4248"/>
      <point x="178.63" y="61.5254" type="curve"/>
      <point x="187.03" y="51.0254" type="line"/>
      <point x="167.18" y="15.3252"/>
      <point x="121.435" y="-9.875"/>
      <point x="70.7852" y="-9.875" type="curve" smooth="yes"/>
      <point x="44.8086" y="-9.875"/>
      <point x="32.6846" y="10.3477"/>
      <point x="32.6846" y="45.001" type="curve" smooth="yes"/>
      <point x="32.6846" y="69.9473"/>
      <point x="46.1218" y="118.65"/>
    </contour>
  </outline>
</glyph>
<glyph name="u" format="1">
  <advance width="513"/>
  <unicode hex="0075"/>
  <outline>
    <contour>
      <point x="89.0996" y="368.15" type="line" smooth="yes"/>
      <point x="94.3496" y="392.301"/>
      <point x="104.58" y="435.179"/>
      <point x="104.85" y="447.95" type="curve" smooth="yes"/>
      <point x="104.854" y="448.124"/>
      <point x="104.855" y="448.296"/>
      <point x="104.855" y="448.467" type="curve" smooth="yes"/>
      <point x="104.855" y="458.656"/>
      <point x="98.3936" y="464.75"/>
      <point x="89.0996" y="464.75" type="curve" smooth="yes"/>
      <point x="70.3037" y="464.75"/>
      <point x="58.5361" y="458.145"/>
      <point x="37.1523" y="440.601" type="curve"/>
      <point x="27.7021" y="452.15" type="line"/>
      <point x="45.5371" y="483.732"/>
      <point x="80.7959" y="512"/>
      <point x="129" y="512" type="curve" smooth="yes"/>
      <point x="154.641" y="512"/>
      <point x="177.674" y="509.638"/>
      <point x="177.831" y="479.45" type="curve" smooth="yes"/>
      <point x="177.832" y="479.34"/>
      <point x="177.832" y="479.229"/>
      <point x="177.832" y="479.117" type="curve" smooth="yes"/>
      <point x="177.832" y="453.941"/>
      <point x="163.308" y="397.374"/>
      <point x="153.899" y="357.65" type="curve" smooth="yes"/>
      <point x="104.535" y="154.2" type="line" smooth="yes"/>
      <point x="101.712" y="142.202"/>
      <point x="100.37" y="130.561"/>
      <point x="100.37" y="119.493" type="curve" smooth="yes"/>
      <point x="100.37" y="64.6992"/>
      <point x="133.267" y="24"/>
      <point x="182.186" y="24" type="curve" smooth="yes"/>
      <point x="214.735" y="24"/>
      <point x="252.936" y="35.5498"/>
      <point x="298.086" y="67.0498" type="curve"/>
      <point x="407.735" y="502.8" type="line"/>
      <point x="469.886" y="502.8" type="line"/>
      <point x="469.886" y="502.8"/>
      <point x="366.086" y="57.5996"/>
      <point x="361.886" y="38.7002" type="curve"/>
      <point x="372.386" y="40.7998"/>
      <point x="383.936" y="43.9502"/>
      <point x="395.485" y="47.0996" type="curve"/>
      <point x="395.485" y="19.7998" type="line"/>
      <point x="363.985" y="5.09961"/>
      <point x="336.535" y="-7.5"/>
      <point x="312.386" y="-7.5" type="curve" smooth="yes"/>
      <point x="295.438" y="-7.5"/>
      <point x="291.624" y="7.19531"/>
      <point x="291.624" y="19.1689" type="curve" smooth="yes"/>
      <point x="291.624" y="28.2451"/>
      <point x="292.933" y="34.4395"/>
      <point x="294.785" y="41.8496" type="curve"/>
      <point x="245.436" y="8.25"/>
      <point x="208.535" y="-9.59961"/>
      <point x="150.785" y="-9.59961" type="curve" smooth="yes"/>
      <point x="88.5156" y="-9.59961"/>
      <point x="27.2061" y="19.875"/>
      <point x="27.2061" y="96.8252" type="curve" smooth="yes"/>
      <point x="27.2061" y="109.405"/>
      <point x="28.8447" y="123.254"/>
      <point x="32.3857" y="138.45" type="curve" smooth="yes"/>
    </contour>
  </outline>
</glyph>
